# Created by Open3D 
# object name: link_base
# number of vertices: 240
# number of triangles: 500
v -0.0233505 0.0321377 0.130363
vn -0.575298 0.810194 0.112328
v -0.00612442 0.0473434 0.1305
vn -0.311292 0.950289 -0.0069682
v 0.0575584 -0.021534 0.0100092
vn 0.046811 -0.021314 0.998676
v 0.0551045 -0.0305555 0.00900431
vn 0.873348 -0.468001 0.13505
v 0.0410013 -0.0471802 0.00950646
vn 0.421641 -0.439579 0.793088
v -0.0585859 0.0204418 0.00950676
vn -0.393555 0.151262 0.906771
v -0.0456054 0.0140021 0.0100075
vn -0.886721 0.324312 0.329466
v 0.0624786 0.000822 0.00950667
vn 0.644191 0.112394 0.756562
v 0.060311 0.0155774 0.00950664
vn 0.191589 0.0529899 0.980044
v 0.0562054 0.0273791 0.00925568
vn 0.872321 0.458119 0.170829
v -0.0418516 0.0228995 0.0100073
vn -0.849972 0.519226 0.089169
v -0.034133 0.0337701 0.0100074
vn -0.652475 0.733085 0.191998
v 0.0439536 -0.0185479 0.0100073
vn 0.900361 -0.426761 0.0849937
v 0.0393201 -0.027016 0.0100073
vn 0.795808 -0.600775 0.0758864
v 0.0462345 -0.0111211 0.0100073
vn 0.970151 -0.227683 0.0834715
v 0.032125 -0.0351243 0.0100073
vn 0.667697 -0.742761 0.0498625
v 0.0452367 0.0428783 0.00950698
vn 0.527299 0.482701 0.699253
v 0.0312587 0.0473798 0.010009
vn -0.0880242 -0.000409968 0.996118
v -0.0207503 -0.0429577 0.0100073
vn -0.465256 -0.883827 0.0488578
v -0.0237499 -0.0478941 0.0100082
vn -0.397031 0.00358133 0.917798
v -0.0118146 -0.0462058 0.0100073
vn -0.262185 -0.943921 0.200677
v -0.0291475 -0.0442523 0.0100082
vn -0.0338929 -0.214332 0.976173
v -0.0289728 -0.0379014 0.0100073
vn -0.633522 -0.773007 0.0333024
v -0.0296026 -0.0507478 0.0100083
vn 0.183833 0.170421 0.968071
v -0.0436095 -0.0451461 0.00900465
vn -0.296107 -0.277563 0.913936
v -0.0360092 -0.0312935 0.0100072
vn -0.637971 -0.598616 0.484409
v -0.0285853 -0.0554055 0.00950648
vn -0.337732 -0.621283 0.707067
v 0.00952696 0.0617539 0.00950653
vn 0.090255 0.564751 0.820311
v 0.0246849 0.0497198 0.0100089
vn -0.0189745 -0.288947 0.957157
v 0.0196848 0.0592662 0.00950666
vn 0.295383 0.746528 0.596192
v 0.0246892 0.0456558 0.00725639
vn 0.268459 0.419064 0.867361
v 0.0274181 -0.0561859 0.00925572
vn 0.331756 -0.737057 0.588799
v 0.0247295 -0.0498662 0.0100087
vn 0.138123 0.0994221 0.985412
v -0.00142874 -0.0613137 0.0100092
vn -0.000203819 -0.0599418 0.998202
v 0.0281358 0.0382332 0.0100073
vn 0.593911 0.784127 0.18004
v 0.0255961 -0.0437288 0.0100089
vn 0.0201805 -0.158527 0.987148
v -0.0410427 -0.0253232 0.0207411
vn -0.806531 -0.478696 -0.346926
v -0.00771942 0.0616223 0.00950679
vn -0.083168 0.44017 0.894054
v 0.00693857 0.0471995 0.0100073
vn 0.155809 0.97253 0.17294
v -0.00456475 0.0473337 0.0100073
vn -0.0565562 0.996022 0.0688578
v -0.012237 0.0461107 0.0100073
vn -0.264797 0.955281 0.131606
v -0.0212686 0.0427034 0.0100073
vn -0.452807 0.888958 0.0686987
v 0.0469226 0.00755594 0.0100073
vn 0.979425 0.173957 0.102305
v 0.0437258 0.0190784 0.0100074
vn 0.924905 0.368787 0.0924501
v 0.0520505 0.00339237 0.0100088
vn 0.14426 -0.441569 0.885554
v 0.0378327 0.0285562 0.0100073
vn 0.793381 0.606935 0.0466403
v 0.0477059 0.000288537 0.0100073
vn 0.987525 -0.00182987 0.157451
v 0.0162979 0.0448366 0.0100073
vn 0.401562 0.911818 0.0856504
v -0.0476076 -0.00538299 0.0166764
vn -0.26826 -0.333742 -0.903688
v -0.0471067 -0.0128709 0.0131292
vn -0.972039 -0.144153 -0.185365
v -0.0476065 0.0125558 0.0126722
vn -0.928845 0.318582 -0.189084
v -0.0476068 0.0142389 0.0375026
vn -0.97596 0.121855 0.180703
v -0.0476076 -0.00870987 0.0323281
vn -0.512515 -0.715162 0.47526
v -0.0466081 -0.0127513 0.0406194
vn -0.974988 -0.219672 0.0338107
v 0.0168392 -0.0446361 0.0100073
vn 0.320511 -0.945398 0.0591211
v 0.00750932 -0.0471121 0.0100073
vn 0.161833 -0.979373 0.12099
v -0.00110538 -0.0476013 0.0100073
vn -0.0456327 -0.996771 0.0660693
v 0.0254797 -0.0403327 0.0100073
vn 0.497718 -0.861994 0.0961358
v 0.0351071 0.0520325 0.00900552
vn 0.451957 0.770464 0.449579
v -0.0606155 -0.0145155 0.00950643
vn -0.281524 -0.0709464 0.956928
v -0.0455191 -0.0142775 0.0100075
vn -0.788661 -0.360671 0.497926
v -0.0588066 -3.71382e-05 0.0156456
vn -0.605271 0.0832091 -0.791659
v -0.0476076 0.00720383 0.0179994
vn -0.539325 0.425195 -0.726869
v 0.0172928 -0.0603401 0.000995558
vn 0.162795 -0.477034 -0.863676
v 0.0273395 -0.0499207 -7.81188e-06
vn 0.142012 0.339251 -0.929915
v -0.0588066 0.00983612 0.0216207
vn -0.329059 0.818105 -0.471619
v -0.0363856 0.0308556 0.113007
vn -0.783992 0.618759 0.0499406
v -0.0474908 0.00453921 0.113007
vn -0.968508 0.0783297 0.23634
v -0.0465503 0.00926935 0.0409964
vn -0.985114 0.171903 0.000873758
v -0.0294296 0.0375484 0.113007
vn -0.616461 0.786524 0.0368102
v -0.0212688 0.0427039 0.113007
vn -0.503072 0.864238 0.00339433
v -0.0122372 0.0461111 0.113007
vn -0.110057 0.396097 0.911589
v -0.0474324 -0.00511352 0.0409931
vn -0.998795 -0.0486014 -0.00687985
v -0.0451459 0.0436095 0.00900493
vn -0.530493 0.432247 0.729205
v -0.0382531 -0.028942 0.0280686
vn -0.751504 -0.658146 0.0456668
v 0.016298 0.044837 0.113007
vn 0.262848 0.807313 0.528352
v 0.00693875 0.0472 0.113007
vn 0.0955306 0.995415 0.00477805
v -0.00270456 0.0476306 0.113007
vn 0.0139937 0.996718 -0.079733
v 0.02499 0.0406385 0.113007
vn 0.489525 0.82836 0.272369
v 0.0326589 0.0347761 0.113007
vn 0.676674 0.702533 0.220361
v -0.041852 0.0228996 0.113007
vn -0.888955 0.447921 0.095529
v -0.0360096 -0.0312937 0.113007
vn -0.707825 -0.625618 0.328003
v -0.045605 0.0140061 0.113007
vn -0.940244 0.279409 0.194609
v -0.0415718 -0.0234044 0.113007
vn -0.698712 -0.393365 0.59755
v -0.0428559 -0.0217282 0.0325461
vn -0.882478 -0.467959 0.047404
v -0.0454321 -0.0145569 0.113007
vn -0.906498 -0.283947 0.312466
v 0.00655229 -0.0624261 0.00900479
vn 0.119284 -0.965592 0.231091
v -0.0151939 -0.0609027 0.00900405
vn -0.169933 -0.961049 0.217964
v 0.0609024 -0.0151939 0.0090046
vn 0.966504 -0.231635 0.110525
v 0.0626156 -0.00438739 0.000995519
vn 0.979587 -0.031971 -0.198464
v 0.0601504 -0.0145615 0.000493008
vn 0.384623 -0.143391 -0.911868
v -0.0443662 -0.0175372 0.0257737
vn -0.961462 -0.273407 -0.0289571
v 0.0254799 -0.0403331 0.113007
vn 0.559788 -0.828225 0.02609
v 0.0330773 -0.0343784 0.113007
vn 0.576827 -0.583204 -0.571964
v 0.00875925 -0.0493005 0.00149327
vn -0.00148839 0.00961117 -0.999953
v 0.0359958 -0.0340196 0.00149315
vn -0.115918 0.0971276 -0.988498
v -0.0263435 -0.0419409 0.0014933
vn 0.0828998 0.131266 -0.987875
v -0.0497862 0.00845042 0.00149322
vn 0.0243279 -0.00170778 -0.999703
v -0.0427627 0.0268595 0.00149314
vn 0.0233369 -0.015876 -0.999602
v -0.0460903 -0.0206339 0.0014933
vn 0.0604821 0.0200019 -0.997969
v -0.0101559 0.0579321 0.00799369
vn 0.597626 -0.517345 -0.612533
v -0.0487987 0.00912654 -7.22009e-06
vn 0.119378 0.00882222 -0.99281
v 0.0504778 0.00142515 0.00149367
vn -0.047961 0.00537834 -0.998835
v -0.0206336 0.0460906 0.00149315
vn 0.00904178 -0.01794 -0.999798
v -0.0105815 0.0516405 -8.36924e-06
vn 0.341974 0.0025028 -0.939706
v -0.0256524 0.051273 0.0100094
vn -0.213877 -0.2165 0.952567
v -0.0251173 -0.0464699 -8.32435e-06
vn -0.37053 -0.186602 -0.909883
v 0.00102682 0.050062 0.00149337
vn 1.04016e-05 -0.0155008 -0.99988
v 0.0268595 0.0427627 0.00149316
vn -0.00901023 -0.0207528 -0.999744
v 0.0411796 0.0292289 0.00149314
vn -0.0439571 -0.0222485 -0.998786
v -0.00899324 0.0520681 0.00799374
vn -0.683028 0.591386 -0.428644
v -0.00791861 -0.0551458 -8.3561e-06
vn -0.0866669 0.0163656 -0.996103
v 0.0251752 -0.0440595 -8.38511e-06
vn -0.0246809 0.050946 -0.998396
v 0.0466526 -0.0193468 -7.17884e-06
vn -0.0661568 0.0239261 -0.997522
v -0.010368 -0.0513014 -7.74507e-06
vn 0.0883257 0.110413 -0.989953
v -0.0285942 -0.0449001 -7.67639e-06
vn 0.0926304 0.0260169 -0.995361
v -0.0447488 -0.0236203 -8.33938e-06
vn 0.0455471 0.0240646 -0.998672
v -0.00767295 0.055 -8.03783e-06
vn -0.131847 -0.11078 -0.985061
v -0.00913596 -0.0555831 0.00799381
vn -0.910452 -0.121329 -0.39542
v -0.00936098 -0.0588551 -8.72426e-06
vn 0.0638086 -0.032883 -0.99742
v 0.0293027 0.04556 -8.94856e-06
vn -0.136124 0.0436261 -0.989731
v 0.0505384 -0.00176802 -7.89411e-06
vn -0.00477036 -0.0880839 -0.996102
v -0.0115674 -0.0538451 0.00799378
vn 0.98792 0.131719 -0.0816333
v 0.0318326 -0.0479349 0.0100094
vn -0.797816 0.266316 0.540893
v 0.0518986 -0.0353447 0.000995218
vn 0.382186 -0.284158 -0.879311
v 0.0295624 -0.0466256 -7.64012e-06
vn -0.392979 -0.489544 -0.778405
v -0.0289539 0.0435293 -8.26387e-06
vn 0.204831 -0.045231 -0.977752
v -0.0275077 0.0564193 0.00900639
vn -0.413437 0.782171 0.466132
v 0.0560051 -0.00206263 -8.03428e-06
vn -0.0280363 0.906843 -0.420535
v 0.0583984 0.00143083 0.00450454
vn -0.643972 -0.49074 0.586919
v -0.0255973 0.0437275 0.0100092
vn -0.185916 0.166303 0.96839
v -0.0312513 0.0478948 0.010009
vn 0.281262 0.053715 0.958127
v -0.0582161 0.0194531 -9.23439e-06
vn -0.0366823 0.0129745 -0.999243
v -0.0285245 0.051987 -8.71857e-06
vn 0.0803322 -0.0948966 -0.992241
v -0.0273893 0.044598 0.00450767
vn -0.138752 0.989962 0.0269025
v -0.0113325 0.0588403 -8.35132e-06
vn 0.0167145 0.0307829 -0.999386
v 0.0549106 0.0256612 -9.21991e-06
vn 0.0447718 0.0153447 -0.998879
v 0.0198988 0.0592129 0.000493402
vn 0.17063 0.55009 -0.817488
v -0.0249504 0.0489888 0.0022471
vn -0.843445 0.0180899 -0.53691
v 0.0546493 0.00241622 0.00224927
vn 0.0332638 -0.614329 -0.788349
v -0.00212802 -0.0476598 0.113007
vn -0.0489955 -0.676751 0.73458
v -0.0116783 -0.0462558 0.113007
vn -0.177888 -0.855764 0.485823
v 0.00750939 -0.0471126 0.113007
vn 0.170375 -0.985378 0.00180635
v -0.0434754 -0.0321115 0.0276269
vn -0.320685 -0.936337 -0.142945
v -0.0456978 -0.0282622 0.0199284
vn -0.66705 -0.399096 -0.6291
v -0.00655221 0.0624264 0.000995898
vn -0.0461634 0.963303 -0.264419
v -0.0626159 0.00438747 0.00900388
vn -0.963326 0.0186051 0.267688
v -0.0491403 -0.0222995 0.0274089
vn -0.984242 0.143768 -0.102948
v -0.0456978 -0.0282622 0.0320716
vn -0.29368 -0.394901 0.87052
v -0.0476076 -0.0105307 0.0237616
vn -0.218317 -0.954553 -0.202896
v 0.0368877 -0.0507866 0.000995775
vn 0.545755 -0.771071 -0.328027
v -0.0588066 0.00983612 0.0303793
vn -0.918908 0.35881 0.163898
v -0.0476075 0.0107661 0.0265719
vn -0.563677 0.825995 -8.51242e-06
v -0.0476076 0.00720383 0.0340007
vn -0.360256 0.605942 0.70926
v -0.0588066 0.00332719 0.03624
vn -0.223882 0.296816 0.928319
v -0.0588066 -0.00871062 0.0196713
vn -0.786486 -0.48347 -0.384313
v -0.0588066 -0.0105316 0.0282386
vn -0.755556 -0.640769 0.1362
v -0.0476075 -0.00141288 0.0366769
vn -0.534153 -0.0960244 0.839917
v -0.0588066 -0.00538345 0.0353244
vn -0.587558 -0.407952 0.698821
v 0.0246491 -0.0462451 0.0045039
vn 0.939099 -0.307605 0.153204
v -0.0276533 -0.0509198 0.00450662
vn -0.400181 0.912562 -0.0841732
v -0.0626155 0.00438747 0.000995242
vn -0.969833 0.160927 -0.1831
v -0.0573387 0.0255387 0.000995371
vn -0.882579 0.457739 -0.107372
v -0.0413309 0.0475591 0.000995272
vn -0.56429 0.60024 -0.566823
v -0.0275081 0.0564206 0.000995702
vn -0.333749 0.898775 -0.28428
v -0.0616603 -0.00905281 0.000492997
vn -0.406532 -0.0701437 -0.91094
v -0.0559712 -0.0272891 0.000493079
vn -0.629211 -0.299042 -0.717403
v -0.0564209 -0.0275083 0.00900351
vn -0.842842 -0.522988 0.126885
v -0.0299703 -0.0460185 0.00450727
vn 0.976602 -0.211759 0.0374922
v -0.0424481 -0.0459198 0.000744064
vn -0.495603 -0.486257 -0.719675
v -0.0289731 -0.0379018 0.113007
vn -0.519327 -0.72931 0.445428
v 0.0393206 -0.0270162 0.113007
vn 0.808452 -0.469411 -0.355047
v 0.0466718 0.00988597 0.113007
vn 0.969402 0.229517 0.0870721
v 0.0437264 0.0190786 0.113007
vn 0.885737 0.443953 0.135558
v -0.0474324 -0.00511354 0.113007
vn -0.866681 -0.0934341 0.490035
v 0.043954 -0.0185481 0.113007
vn 0.932253 -0.361744 0.0067534
v 0.046788 -0.00932049 0.113007
vn 0.985166 -0.170146 0.0223213
v 0.0389908 0.0274901 0.113007
vn 0.78302 0.55206 0.286548
v 0.0477064 0.000288646 0.113007
vn 0.997618 0.0338981 0.0600822
v 0.0168394 -0.0446365 0.113007
vn 0.384459 -0.923121 0.00631272
v -0.0207505 -0.0429582 0.113007
vn -0.355111 -0.802847 0.478888
v 0.0603401 0.0172931 0.000995706
vn 0.886243 0.228871 -0.402729
v 0.0507864 0.0368874 0.000995155
vn 0.789619 0.564683 -0.240074
v 0.0264933 0.0496963 -9.04315e-06
vn 0.0478613 -0.477746 -0.877194
v 0.0361055 0.0510574 0.000744024
vn 0.44884 0.571709 -0.686798
v 0.0301443 0.0474446 -8.25002e-06
vn -0.0759072 -0.0219378 -0.996874
v -0.0289624 -0.0552659 0.000493133
vn -0.256437 -0.519127 -0.81532
v -0.0151938 -0.0609024 0.00099527
vn -0.277968 -0.927453 -0.25013
v 0.00109079 -0.0629996 0.000995735
vn -0.0147508 -0.965904 -0.25848
v 0.0212598 0.0422596 0.113257
vn 0.244995 0.636147 -0.731638
v 0.0329209 0.0342983 0.113143
vn 0.592062 0.612444 -0.523809
v -0.0224544 0.0417222 0.113219
vn -0.293563 0.476761 -0.828565
v -0.034061 0.0330903 0.113219
vn -0.288937 0.270552 -0.918323
v -0.021484 0.0427189 0.149855
vn -0.437698 0.896002 0.0748421
v -0.0314257 0.0355687 0.150107
vn -0.192459 0.227236 0.954633
v -0.00700839 0.0461673 0.150359
vn -0.000784136 0.0080142 0.999968
v -0.00590501 0.0474483 0.149855
vn -0.12149 0.991675 0.0426776
v -0.0458764 0.013477 0.149855
vn -0.965821 0.25902 0.00997912
v -0.0407301 0.0252604 0.149855
vn -0.832812 0.551313 0.04978
v 0.0205473 -0.0432993 0.149855
vn 0.389898 -0.919474 0.0504606
v -0.0393691 -0.0273338 0.149855
vn -0.451896 -0.339035 0.825134
v -0.0329209 -0.0342983 0.113143
vn -0.546407 -0.567882 -0.615589
v -0.0414577 -0.0233417 0.113219
vn -0.600366 -0.321521 -0.732246
v -0.027827 -0.0390243 0.149855
vn -0.616213 -0.787413 0.016219
v 0.0414577 0.0233417 0.113219
vn 0.69687 0.401498 -0.594282
v 0.0470443 -0.007671 0.113295
vn 0.981688 -0.159062 -0.104821
v 0.0463834 0.0117792 0.149855
vn 0.876579 0.258401 0.406002
v 0.0411728 0.0243101 0.149855
vn 0.867465 0.497312 0.0136002
v 0.0478988 0.00164346 0.149855
vn 0.999863 0.0112765 0.0120759
v 0.0458764 -0.013477 0.149855
vn 0.88447 -0.298356 0.358743
v 0.0265192 -0.0356831 0.130363
vn -0.796263 0.549941 0.25205
v 0.0460355 0.011648 0.113219
vn 0.950656 0.217346 -0.221391
v 0.0245103 -0.0334354 0.133378
vn -0.171852 0.0487325 -0.983917
v 0.023775 -0.0326127 0.12926
vn 0.432721 -0.656726 0.617627
v 0.0372443 -0.0295971 0.113219
vn 0.27428 -0.232594 -0.933097
v -0.0212598 -0.0422596 0.113257
vn -0.349169 -0.824528 -0.445236
v -0.0430947 0.0197434 0.113143
vn -0.442911 0.200426 -0.873876
v -0.0449565 -0.0153286 0.149981
vn -0.378761 -0.142578 0.914446
v -0.0472929 0.00425798 0.113219
vn -0.539792 0.0555638 -0.839963
v -0.0478988 -0.00164346 0.149855
vn -0.997578 -0.048271 0.0500801
v -0.0460355 -0.011648 0.113219
vn -0.58783 -0.125061 -0.79926
v -0.045094 0.0121271 0.150359
vn -0.00703977 -0.000490556 0.999975
v 0.0400626 -0.0246886 0.150359
vn 0.00181447 -0.00407052 0.99999
v -0.0200591 -0.0436075 0.149855
vn -0.140835 -0.342903 0.928754
v -0.00698943 -0.0474146 0.149855
vn -0.201032 -0.979535 0.00989646
v 0.0051369 -0.047306 0.149981
vn 0.0689992 -0.694868 0.71582
v 0.00878675 -0.0468298 0.132908
vn 0.256143 -0.960488 -0.108879
v 0.0293073 -0.0378401 0.149855
vn 0.603299 -0.772937 0.196467
v 0.0343661 0.0329788 0.150107
vn 0.417808 0.393804 0.818752
v -0.0253594 0.0343854 0.133378
vn 0.306686 -0.0670962 -0.949443
v 0.00749555 -0.0471396 0.128698
vn 0.218486 -0.956086 0.195354
v 0.0153792 -0.0451565 0.130105
vn 0.244009 -0.969134 0.0351837
v 0.0386943 -0.0280878 0.149855
vn 0.811973 -0.583389 0.0189001
v -0.0260947 0.0352081 0.12926
vn 0.697025 -0.61612 0.366814
v 0.0254842 0.0401624 0.150107
vn 0.244967 0.340965 0.907598
v 0.00698943 0.0474146 0.149855
vn 0.181236 0.981779 0.0571257
v 0.0200591 0.0436075 0.149855
vn 0.364906 0.930978 0.0111522
v -0.0124807 0.0459443 0.132898
vn -0.301331 0.936637 -0.178637
v -0.0123963 0.0460445 0.128328
vn -0.256808 0.922821 0.287143
v 0.0222687 -0.0418455 0.113257
vn 0.483664 -0.873171 -0.0603418
f 3//3 5//5 4//4
f 6//6 11//11 12//12
f 7//7 11//11 6//6
f 3//3 13//13 14//14
f 3//3 15//15 13//13
f 3//3 14//14 16//16
f 17//17 18//18 9//9
f 19//19 20//20 21//21
f 19//19 22//22 20//20
f 23//23 22//22 19//19
f 24//24 22//22 25//25
f 25//25 22//22 26//26
f 27//27 24//24 25//25
f 28//28 29//29 30//30
f 26//26 22//22 23//23
f 31//31 29//29 28//28
f 32//32 33//33 34//34
f 35//35 9//9 18//18
f 34//34 33//33 36//36
f 38//38 39//39 28//28
f 38//38 40//40 39//39
f 38//38 41//41 40//40
f 42//42 41//41 38//38
f 42//42 38//38 12//12
f 43//43 9//9 44//44
f 43//43 45//45 9//9
f 9//9 46//46 44//44
f 47//47 3//3 8//8
f 47//47 15//15 3//3
f 28//28 39//39 48//48
f 28//28 48//48 35//35
f 46//46 9//9 35//35
f 35//35 31//31 28//28
f 10//10 17//17 9//9
f 34//34 55//55 56//56
f 57//57 34//34 56//56
f 34//34 58//58 55//55
f 3//3 58//58 34//34
f 3//3 16//16 58//58
f 21//21 34//34 57//57
f 21//21 27//27 34//34
f 60//60 7//7 6//6
f 60//60 61//61 7//7
f 60//60 26//26 61//61
f 25//25 26//26 60//60
f 67//67 12//12 11//11
f 67//67 70//70 12//12
f 70//70 71//71 12//12
f 12//12 71//71 42//42
f 71//71 72//72 42//42
f 73//73 68//68 69//69
f 51//51 7//7 50//50
f 39//39 76//76 48//48
f 77//77 76//76 39//39
f 40//40 77//77 39//39
f 78//78 77//77 40//40
f 48//48 79//79 35//35
f 79//79 80//80 35//35
f 7//7 81//81 11//11
f 81//81 67//67 11//11
f 26//26 75//75 37//37
f 69//69 83//83 7//7
f 84//84 85//85 82//82
f 84//84 86//86 85//85
f 83//83 81//81 7//7
f 68//68 83//83 69//69
f 42//42 72//72 41//41
f 76//76 79//79 48//48
f 72//72 40//40 41//41
f 72//72 78//78 40//40
f 82//82 85//85 75//75
f 50//50 61//61 54//54
f 34//34 88//88 87//87
f 27//27 88//88 34//34
f 89//89 90//90 8//8
f 89//89 8//8 3//3
f 54//54 69//69 52//52
f 32//32 34//34 87//87
f 89//89 3//3 4//4
f 34//34 36//36 3//3
f 93//93 16//16 94//94
f 95//95 98//98 99//99
f 97//97 100//100 95//95
f 95//95 104//104 108//108
f 95//95 108//108 109//109
f 110//110 95//95 109//109
f 95//95 99//99 104//104
f 100//100 98//98 95//95
f 95//95 103//103 96//96
f 113//113 112//112 95//95
f 96//96 113//113 95//95
f 96//96 114//114 113//113
f 103//103 114//114 96//96
f 115//115 116//116 97//97
f 100//100 117//117 102//102
f 98//98 102//102 99//99
f 100//100 102//102 98//98
f 112//112 115//115 95//95
f 95//95 115//115 97//97
f 95//95 110//110 103//103
f 119//119 112//112 120//120
f 110//110 121//121 122//122
f 119//119 115//115 112//112
f 123//123 115//115 119//119
f 124//124 33//33 5//5
f 5//5 33//33 32//32
f 125//125 65//65 126//126
f 64//64 65//65 125//125
f 113//113 65//65 64//64
f 119//119 120//120 123//123
f 123//123 120//120 115//115
f 110//110 109//109 121//121
f 30//30 29//29 59//59
f 59//59 29//29 18//18
f 108//108 118//118 109//109
f 122//122 91//91 114//114
f 108//108 105//105 118//118
f 104//104 105//105 108//108
f 128//128 106//106 38//38
f 129//129 47//47 8//8
f 12//12 131//131 132//132
f 128//128 132//132 106//106
f 122//122 45//45 47//47
f 118//118 136//136 138//138
f 134//134 127//127 133//133
f 106//106 131//131 38//38
f 36//36 124//124 5//5
f 115//115 107//107 116//116
f 129//129 8//8 130//130
f 120//120 107//107 115//115
f 130//130 8//8 140//140
f 140//140 8//8 45//45
f 140//140 45//45 122//122
f 74//74 132//132 128//128
f 94//94 16//16 14//14
f 141//141 142//142 57//57
f 141//141 57//57 143//143
f 37//37 144//144 145//145
f 75//75 144//144 37//37
f 28//28 138//138 146//146
f 148//148 145//145 144//144
f 99//99 127//127 104//104
f 136//136 127//127 139//139
f 136//136 139//139 134//134
f 135//135 139//139 127//127
f 135//135 127//127 132//132
f 75//75 149//149 144//144
f 132//132 127//127 134//134
f 85//85 148//148 149//149
f 92//92 148//148 85//85
f 50//50 49//49 63//63
f 85//85 149//149 75//75
f 37//37 148//148 92//92
f 37//37 145//145 148//148
f 151//151 32//32 64//64
f 152//152 154//154 153//153
f 155//155 154//154 152//152
f 156//156 150//150 157//157
f 157//157 150//150 53//53
f 144//144 149//149 148//148
f 155//155 158//158 154//154
f 159//159 158//158 155//155
f 159//159 53//53 158//158
f 152//152 153//153 66//66
f 66//66 153//153 63//63
f 63//63 49//49 62//62
f 122//122 129//129 91//91
f 91//91 129//129 140//140
f 137//137 140//140 122//122
f 65//65 124//124 126//126
f 113//113 126//126 160//160
f 113//113 160//160 65//65
f 30//30 138//138 28//28
f 156//156 49//49 150//150
f 62//62 49//49 156//156
f 28//28 146//146 38//38
f 6//6 162//162 147//147
f 6//6 163//163 162//162
f 74//74 163//163 6//6
f 74//74 164//164 163//163
f 38//38 165//165 128//128
f 38//38 146//146 165//165
f 52//52 51//51 153//153
f 154//154 52//52 153//153
f 158//158 52//52 154//154
f 158//158 54//54 52//52
f 158//158 53//53 54//54
f 50//50 53//53 150//150
f 51//51 63//63 153//153
f 50//50 54//54 53//53
f 157//157 53//53 159//159
f 147//147 162//162 166//166
f 60//60 166//166 167//167
f 161//161 20//20 107//107
f 161//161 24//24 20//20
f 168//168 25//25 60//60
f 107//107 20//20 22//22
f 169//169 22//22 24//24
f 25//25 170//170 27//27
f 60//60 167//167 168//168
f 147//147 166//166 60//60
f 168//168 170//170 25//25
f 63//63 51//51 50//50
f 49//49 50//50 150//150
f 169//169 24//24 161//161
f 168//168 167//167 170//170
f 137//137 91//91 140//140
f 61//61 50//50 7//7
f 73//73 69//69 54//54
f 51//51 69//69 7//7
f 52//52 69//69 51//51
f 38//38 131//131 12//12
f 74//74 12//12 132//132
f 82//82 171//171 72//72
f 67//67 81//81 72//72
f 78//78 76//76 77//77
f 78//78 172//172 76//76
f 172//172 79//79 76//76
f 173//173 174//174 172//172
f 74//74 6//6 12//12
f 26//26 37//37 61//61
f 37//37 92//92 61//61
f 86//86 54//54 61//61
f 86//86 175//175 73//73
f 175//175 68//68 73//73
f 176//176 177//177 172//172
f 174//174 178//178 172//172
f 86//86 73//73 54//54
f 177//177 179//179 172//172
f 172//172 80//80 79//79
f 173//173 43//43 44//44
f 179//179 43//43 173//173
f 179//179 47//47 43//43
f 177//177 47//47 179//179
f 178//178 174//174 46//46
f 174//174 44//44 46//46
f 173//173 44//44 174//174
f 80//80 46//46 35//35
f 178//178 46//46 80//80
f 143//143 55//55 180//180
f 180//180 55//55 58//58
f 180//180 58//58 93//93
f 82//82 26//26 23//23
f 142//142 21//21 57//57
f 181//181 21//21 142//142
f 181//181 19//19 21//21
f 171//171 19//19 181//181
f 171//171 23//23 19//19
f 82//82 23//23 171//171
f 82//82 75//75 26//26
f 93//93 58//58 16//16
f 143//143 56//56 55//55
f 57//57 56//56 143//143
f 94//94 14//14 172//172
f 172//172 14//14 13//13
f 172//172 13//13 176//176
f 176//176 13//13 15//15
f 70//70 67//67 72//72
f 175//175 86//86 72//72
f 68//68 175//175 72//72
f 83//83 68//68 72//72
f 81//81 83//83 72//72
f 84//84 82//82 72//72
f 86//86 84//84 72//72
f 86//86 61//61 92//92
f 85//85 86//86 92//92
f 177//177 15//15 47//47
f 176//176 15//15 177//177
f 71//71 70//70 72//72
f 179//179 173//173 172//172
f 8//8 90//90 182//182
f 10//10 182//182 183//183
f 9//9 182//182 10//10
f 8//8 182//182 9//9
f 151//151 5//5 32//32
f 184//184 31//31 121//121
f 185//185 186//186 184//184
f 109//109 184//184 121//121
f 10//10 183//183 17//17
f 17//17 185//185 59//59
f 89//89 91//91 90//90
f 4//4 91//91 89//89
f 4//4 125//125 91//91
f 187//187 27//27 170//170
f 188//188 27//27 187//187
f 188//188 88//88 27//27
f 189//189 88//88 188//188
f 189//189 87//87 88//88
f 64//64 32//32 87//87
f 17//17 183//183 185//185
f 59//59 138//138 30//30
f 59//59 185//185 138//138
f 64//64 87//87 189//189
f 171//171 181//181 72//72
f 141//141 94//94 72//72
f 143//143 180//180 93//93
f 94//94 172//172 72//72
f 94//94 143//143 93//93
f 181//181 142//142 72//72
f 141//141 72//72 142//142
f 125//125 5//5 151//151
f 125//125 4//4 5//5
f 107//107 22//22 169//169
f 147//147 60//60 6//6
f 66//66 63//63 62//62
f 172//172 178//178 80//80
f 196//196 194//194 195//195
f 202//202 201//201 203//203
f 210//210 209//209 207//207
f 196//196 197//197 194//194
f 211//211 213//213 214//214
f 216//216 204//204 202//202
f 219//219 198//198 217//217
f 221//221 220//220 219//219
f 218//218 220//220 221//221
f 225//225 224//224 216//216
f 227//227 231//231 214//214
f 214//214 232//232 211//211
f 231//231 232//232 214//214
f 211//211 232//232 213//213
f 192//192 195//195 194//194
f 215//215 233//233 94//94
f 233//233 172//172 210//210
f 208//208 191//191 229//229
f 213//213 227//227 214//214
f 210//210 206//206 209//209
f 212//212 209//209 206//206
f 208//208 212//212 205//205
f 207//207 212//212 208//208
f 197//197 196//196 236//236
f 235//235 236//236 196//196
f 235//235 237//237 236//236
f 238//238 2//2 1//1
f 239//239 1//1 2//2
f 239//239 234//234 1//1
f 232//232 227//227 213//213
f 238//238 234//234 239//239
f 1//1 234//234 230//230
f 234//234 238//238 230//230
f 230//230 238//238 1//1
f 233//233 228//228 94//94
f 226//226 227//227 200//200
f 201//201 224//224 223//223
f 235//235 223//223 229//229
f 223//223 218//218 201//201
f 223//223 196//196 195//195
f 229//229 207//207 208//208
f 229//229 210//210 207//207
f 223//223 210//210 229//229
f 223//223 222//222 218//218
f 223//223 235//235 196//196
f 224//224 226//226 223//223
f 226//226 200//200 228//228
f 224//224 225//225 226//226
f 217//217 94//94 219//219
f 223//223 226//226 228//228
f 202//202 94//94 216//216
f 221//221 94//94 203//203
f 203//203 94//94 202//202
f 216//216 94//94 141//141
f 191//191 172//172 190//190
f 190//190 172//172 78//78
f 143//143 94//94 240//240
f 192//192 172//172 193//193
f 193//193 172//172 215//215
f 193//193 215//215 94//94
f 193//193 94//94 217//217
f 212//212 206//206 172//172
f 205//205 212//212 172//172
f 219//219 94//94 221//221
f 72//72 172//172 192//192
f 141//141 225//225 216//216
f 228//228 200//200 240//240
f 193//193 199//199 195//195
f 217//217 199//199 193//193
f 199//199 217//217 198//198
f 198//198 219//219 220//220
f 204//204 216//216 224//224
f 218//218 221//221 203//203
f 143//143 231//231 141//141
f 141//141 226//226 225//225
f 141//141 227//227 226//226
f 231//231 227//227 141//141
f 240//240 200//200 232//232
f 240//240 94//94 228//228
f 143//143 232//232 231//231
f 240//240 232//232 143//143
f 200//200 227//227 232//232
f 203//203 201//201 218//218
f 198//198 222//222 199//199
f 195//195 199//199 222//222
f 191//191 205//205 172//172
f 222//222 198//198 220//220
f 222//222 220//220 218//218
f 202//202 204//204 201//201
f 223//223 195//195 222//222
f 201//201 204//204 224//224
f 188//188 187//187 120//120
f 160//160 33//33 65//65
f 121//121 137//137 122//122
f 121//121 31//31 18//18
f 125//125 114//114 91//91
f 125//125 113//113 114//114
f 116//116 170//170 117//117
f 127//127 99//99 133//133
f 117//117 170//170 167//167
f 188//188 120//120 189//189
f 64//64 189//189 120//120
f 107//107 187//187 161//161
f 111//111 105//105 101//101
f 111//111 118//118 105//105
f 136//136 101//101 105//105
f 101//101 136//136 118//118
f 133//133 163//163 164//164
f 103//103 110//110 122//122
f 97//97 117//117 100//100
f 97//97 116//116 117//117
f 103//103 122//122 114//114
f 9//9 45//45 8//8
f 111//111 101//101 118//118
f 146//146 138//138 136//136
f 47//47 45//45 43//43
f 166//166 117//117 167//167
f 134//134 165//165 136//136
f 121//121 18//18 186//186
f 186//186 18//18 184//184
f 184//184 18//18 29//29
f 184//184 29//29 31//31
f 169//169 116//116 107//107
f 27//27 20//20 24//24
f 21//21 20//20 27//27
f 169//169 187//187 116//116
f 133//133 162//162 163//163
f 166//166 162//162 133//133
f 161//161 187//187 169//169
f 185//185 183//183 137//137
f 137//137 183//183 182//182
f 125//125 151//151 64//64
f 136//136 165//165 146//146
f 182//182 91//91 137//137
f 90//90 91//91 182//182
f 210//210 223//223 233//233
f 223//223 228//228 233//233
f 172//172 233//233 215//215
f 236//236 237//237 190//190
f 152//152 156//156 157//157
f 157//157 159//159 152//152
f 190//190 235//235 191//191
f 191//191 208//208 205//205
f 152//152 159//159 155//155
f 192//192 193//193 195//195
f 197//197 2//2 238//238
f 192//192 239//239 72//72
f 192//192 238//238 239//239
f 197//197 238//238 194//194
f 78//78 239//239 2//2
f 72//72 239//239 78//78
f 235//235 190//190 237//237
f 191//191 235//235 229//229
f 210//210 172//172 206//206
f 192//192 194//194 238//238
f 207//207 209//209 212//212
f 78//78 236//236 190//190
f 78//78 197//197 236//236
f 78//78 2//2 197//197
f 112//112 113//113 64//64
f 187//187 107//107 120//120
f 138//138 184//184 109//109
f 187//187 170//170 116//116
f 186//186 137//137 121//121
f 186//186 185//185 137//137
f 35//35 18//18 31//31
f 104//104 136//136 105//105
f 139//139 131//131 106//106
f 36//36 5//5 3//3
f 185//185 184//184 138//138
f 59//59 18//18 17//17
f 133//133 164//164 134//134
f 125//125 126//126 113//113
f 120//120 112//112 64//64
f 127//127 136//136 104//104
f 102//102 133//133 99//99
f 102//102 166//166 133//133
f 166//166 102//102 117//117
f 129//129 130//130 140//140
f 109//109 118//118 138//138
f 152//152 62//62 156//156
f 134//134 164//164 165//165
f 134//134 106//106 132//132
f 152//152 66//66 62//62
f 139//139 106//106 134//134
f 128//128 165//165 164//164
f 128//128 164//164 74//74
f 135//135 132//132 131//131
f 135//135 131//131 139//139
f 160//160 36//36 33//33
f 126//126 36//36 160//160
f 126//126 124//124 36//36
f 122//122 47//47 129//129
f 65//65 33//33 124//124
