# Created by Open3D 
# object name: link5
# number of vertices: 252
# number of triangles: 500
v 0.0310925 0.0632022 -0.024709
vn 0.677101 -0.684185 -0.270971
v 0.036304 0.0704622 -0.0428874
vn 0.95077 -0.309671 -0.01182
v 0.0373215 0.0697808 -0.0160937
vn 0.973817 -0.187629 -0.128356
v -0.0282584 0.0347856 -0.179707
vn -0.555016 0.669195 -0.4941
v -0.0109189 0.0214293 -0.179707
vn -0.01676 0.0571802 -0.998223
v -0.0214294 0.0109188 -0.179707
vn -0.0693548 0.0301946 -0.997135
v -0.0203802 -0.0103843 -0.179707
vn -0.054458 -0.0337567 -0.997945
v -0.0448508 -0.00334692 -0.179707
vn -0.942168 -0.0501827 -0.331363
v -0.0434596 0.0103198 -0.179707
vn -0.725465 0.214777 -0.65389
v 0.0109186 0.021429 -0.179707
vn 0.0292425 0.0707868 -0.997063
v 0.0119484 0.0430391 -0.179707
vn 0.197334 0.645691 -0.73766
v 0.0263879 0.0363668 -0.179707
vn 0.451061 0.667863 -0.592033
v -0.00467827 0.0445649 -0.179707
vn -0.0529897 0.887984 -0.456811
v -0.00376202 -0.0237526 -0.179709
vn -0.0152637 -0.0432512 -0.998948
v -0.00579816 -0.0444561 -0.179707
vn -0.115888 -0.68615 -0.71817
v 0.0358506 0.0268961 -0.179707
vn 0.671781 0.579452 -0.461461
v 0.0214285 0.0109185 -0.179708
vn 0.0905216 0.0266107 -0.995539
v 0.0214294 -0.0109188 -0.179707
vn 0.0511819 -0.0182806 -0.998522
v 0.0429094 0.0121543 -0.179707
vn 0.703051 0.196309 -0.683507
v 0.0443577 -0.00648213 -0.179707
vn 0.820845 -0.0831184 -0.56507
v 0.00372798 0.0854447 0.00493358
vn 0.0485392 0.998201 0.0351915
v 0.0116118 0.0820278 0.0193929
vn 0.256712 0.925279 0.279211
v 0.000934653 0.0828207 0.0226159
vn -0.0337327 0.950718 0.308216
v 0.00537482 0.0765189 0.0316533
vn 0.181511 0.640662 0.74606
v -0.00420583 0.0768211 0.0315857
vn -0.127372 0.619737 0.774405
v 0.0167501 0.0750428 0.028326
vn 0.451492 0.622681 0.63908
v -0.00262463 0.0855757 -0.0584865
vn -0.034721 0.998364 -0.0454259
v 0.010474 0.0851329 -0.0479957
vn 0.160913 0.986918 -0.00997881
v 0.0142821 0.0654252 0.0341846
vn 0.342442 0.127754 0.930813
v 0.0240094 0.0611653 0.0294352
vn 0.646451 0.0247363 0.762554
v 0.0257054 0.0775635 0.0159357
vn 0.52567 0.809737 0.260762
v 0.0301802 0.0714263 0.0179178
vn 0.809948 0.381388 0.445564
v 0.00306671 0.0646271 0.0368132
vn 0.134633 0.150621 0.979381
v -0.0190589 0.0407002 -0.179707
vn -0.331397 0.864711 -0.377426
v 0.0214929 0.0818299 0.00201789
vn 0.286964 0.955973 0.0613829
v -0.0373425 0.0249869 -0.179707
vn -0.77251 0.501987 -0.388893
v 0.0287674 -0.0343721 -0.179707
vn 0.595507 -0.573944 -0.562103
v 0.0393169 -0.0212233 -0.179707
vn 0.787048 -0.383508 -0.483194
v -0.0328749 0.0601668 0.019358
vn -0.87117 0.0928011 0.482131
v -0.0368971 0.0560942 0.010017
vn -0.96704 0.0204898 0.253799
v -0.0321364 0.0239932 0.0205955
vn -0.804973 -0.306257 0.508158
v -0.033302 0.0715158 0.0115988
vn -0.795605 0.475486 0.3754
v -0.0325704 0.0764737 0.00152245
vn -0.643201 0.760018 0.0930871
v -0.02613 0.0592093 0.0277563
vn -0.668994 0.0476032 0.741741
v -0.0031715 0.0494948 0.0381471
vn -0.0872919 0.0276666 0.995799
v -0.00585081 0.0662476 0.0364466
vn -0.1909 0.222802 0.95599
v -0.01547 0.0562413 0.0347353
vn -0.388132 0.0484607 0.920329
v -0.0370061 0.0692601 0.00182897
vn -0.941237 0.278603 0.190927
v -0.0381026 0.0658733 -0.00660178
vn -0.998694 0.00430686 -0.0509039
v -0.0270971 0.0692837 0.0235164
vn -0.652252 0.489495 0.57876
v -0.024612 0.0787391 0.0134959
vn -0.463631 0.833617 0.300214
v -0.0256303 0.0807801 -0.0021702
vn -0.367479 0.929277 0.0374568
v -0.0137019 0.0790153 0.0250088
vn -0.342968 0.831146 0.437687
v -0.0342317 0.0764129 -0.0451418
vn -0.629956 0.776232 -0.0249085
v 0.0109182 -0.0214289 -0.179708
vn 0.0304064 -0.0754952 -0.996682
v 0.0176287 -0.0413404 -0.179707
vn 0.354241 -0.806339 -0.473636
v 0.00703204 -0.0443882 -0.179707
vn 0.0716589 -0.875013 -0.478766
v -0.0208387 -0.0396809 -0.179707
vn -0.278385 -0.551277 -0.786509
v -0.0330202 -0.0300975 -0.179707
vn -0.532531 -0.523467 -0.665126
v -0.0419619 -0.015756 -0.179707
vn -0.706478 -0.331877 -0.625097
v -0.0380316 0.0239932 0.00463395
vn -0.952866 -0.285871 0.101607
v 0.0209085 0.0395545 -0.151649
vn 0.498761 0.865389 -0.0483687
v 0.0274688 0.0368666 -0.139135
vn 0.648584 0.751949 -0.117943
v 0.00874487 0.0439371 -0.157955
vn 0.127672 0.990528 -0.0505331
v 0.0391789 0.0218543 -0.151747
vn 0.887343 0.459915 -0.0331709
v 0.0444902 0.00376343 -0.157413
vn 0.991023 0.133265 -0.0107004
v 0.0276375 0.041027 -0.130759
vn 0.464757 0.69328 -0.550785
v 0.0365456 0.0290569 -0.136478
vn 0.748624 0.558562 -0.357169
v -0.00423949 0.0482294 -0.133706
vn -0.0368106 0.830812 -0.555335
v 0.0126982 0.0466141 -0.133629
vn 0.236847 0.904551 -0.35453
v 0.0262782 0.0663773 0.0257615
vn 0.664787 0.311299 0.679081
v 0.0432711 0.0140331 -0.138009
vn 0.946554 0.289991 -0.141214
v -0.0361666 0.0662431 -0.0714071
vn -0.754903 -0.626467 0.194061
v -0.0364086 0.0682653 -0.0813154
vn -0.874533 0.473633 -0.104229
v -0.036586 0.0594459 -0.0869747
vn -0.72393 -0.561324 0.401049
v -0.00810525 0.0829227 -0.0730799
vn -0.0833913 0.966685 -0.242003
v -0.0204341 0.0819119 -0.0655468
vn -0.224223 0.964652 -0.138459
v -0.0257978 0.0815737 -0.0547508
vn -0.384259 0.922914 -0.0239734
v 0.0439165 0.00577403 -0.135513
vn 0.968593 -0.13102 0.211334
v 0.00326564 0.069397 -0.10618
vn 0.054001 0.830579 -0.554276
v -0.00961679 0.0698735 -0.104332
vn -0.152968 0.819854 -0.551761
v -0.0363922 0.072291 -0.0547906
vn -0.995874 -0.0904768 -0.00698615
v -0.0380675 0.0575067 -0.0996315
vn -0.867703 0.398519 -0.297108
v -0.039341 0.0445501 -0.106822
vn -0.631858 -0.459647 0.624084
v -0.042665 0.0224014 -0.124066
vn -0.99059 0.107926 0.0841593
v -0.043784 0.00548319 -0.134699
vn -0.991609 -0.0611385 0.113906
v -0.000650587 0.0778882 -0.0896481
vn -0.00447785 0.926485 -0.376305
v -0.017118 0.0764862 -0.0888746
vn -0.224219 0.911 -0.346128
v -0.00161122 0.0239417 -0.0208901
vn -0.0279799 -0.987155 -0.157299
v -0.0190101 0.0239933 -0.0331603
vn -0.500272 -0.39306 -0.771513
v -0.0203479 0.0239932 0.032525
vn -0.399722 -0.702526 0.588795
v -0.0035783 -0.0225926 -0.181706
vn -0.0105205 -0.042762 -0.99903
v 0.0197003 0.014313 -0.181707
vn 0.053339 0.0445348 -0.997583
v 0.0234579 -0.00188078 -0.181706
vn 0.133404 -0.00681211 -0.991038
v -0.0218949 0.0239424 0.00424687
vn -0.22137 -0.972747 0.0689835
v 0.0075541 0.0239425 0.020191
vn 0.0688955 -0.926764 0.369271
v 0.0225831 0.0239432 -0.00347486
vn 0.463414 0.884718 -0.0502132
v -0.0439968 0.00873683 -0.155346
vn -0.988106 0.153079 -0.0146004
v -0.0167115 0.0449179 -0.134629
vn -0.299278 0.769649 -0.56398
v -0.0204783 0.0406481 -0.142291
vn -0.483272 0.870752 -0.0907702
v -0.04063 0.021703 -0.137481
vn -0.89712 0.436828 -0.0660056
v -0.0339186 0.0299433 -0.144679
vn -0.703395 0.705958 -0.0828202
v -0.0085423 0.0442936 -0.145555
vn -0.134801 0.988423 -0.069638
v 0.0341178 0.0582463 0.0172438
vn 0.868414 0.0417158 0.494082
v 0.0373722 0.0567648 0.00755746
vn 0.985062 0.0568959 0.162527
v 0.00609375 0.0239932 0.0379615
vn 0.166948 -0.236815 0.957104
v 0.0299799 0.0239932 0.0233506
vn 0.635512 -0.563655 0.527653
v 0.0372575 0.0239932 0.00911749
vn 0.88967 -0.369677 0.268004
v 0.0162514 0.0239932 0.0347348
vn 0.474035 -0.29028 0.831281
v -0.00722936 0.0239932 0.0375087
vn -0.209473 -0.431605 0.877404
v 0.0170076 -0.0170077 -0.181705
vn 0.17524 -0.210704 -0.961714
v 0.00376242 0.0237549 -0.181707
vn 0.00752644 0.0705687 -0.997479
v -0.0237563 0.0037626 -0.181705
vn -0.123827 0.0192113 -0.992118
v -0.0122663 0.0200838 -0.181705
vn -0.0432235 0.0538124 -0.997615
v -0.0214308 -0.0109197 -0.181705
vn -0.253961 -0.194387 -0.94748
v -0.0294282 0.0239933 -0.0245996
vn -0.7199 -0.442103 -0.53506
v 0.0148957 0.0238257 -0.0349427
vn 0.248653 0.779632 -0.574758
v 0.0301448 0.0238258 -0.0226524
vn 0.345063 0.903201 -0.255264
v -0.00610051 0.0238257 -0.0374921
vn -0.0599151 0.633774 -0.771194
v -0.0191012 0.0238258 -0.0330837
vn -0.370785 0.745411 -0.553969
v -0.0312654 0.0238257 -0.0215719
vn -0.485437 0.807956 -0.334004
v -0.0370919 0.0238257 -0.00914259
vn -0.225112 0.972676 -0.0567909
v -0.0377091 0.0238257 0.00457122
vn -0.769792 0.634958 0.0651876
v -0.0361658 0.0131518 -0.0111443
vn -0.464207 -0.877175 -0.122785
v -0.0371133 0.0120925 0.00654411
vn -0.405402 -0.911853 0.064602
v 0.0377073 0.0238257 -0.00458607
vn 0.669582 0.723609 -0.167478
v -0.0169133 0.0120922 -0.033677
vn -0.168428 -0.910627 -0.377346
v 0.0161647 0.0238257 0.0340667
vn 0.331938 0.667803 0.666225
v -0.0282582 0.0120924 -0.025151
vn -0.335433 -0.90359 -0.266477
v 0.00391261 0.013152 0.0378886
vn 0.075515 -0.86652 0.493396
v 0.0159902 0.0120923 0.0342842
vn 0.138947 -0.954745 0.262974
v -0.0202954 0.0238257 0.0321086
vn -0.229615 0.899281 0.372251
v -0.00304898 0.0238257 0.0378626
vn -0.0409131 0.78927 0.612682
v 0.0312569 0.0238257 0.0215842
vn 0.324671 0.914211 0.242501
v 0.0372126 0.0238257 0.00917211
vn 0.69827 0.703014 0.13487
v 0.0378365 0.0131518 -0.00436998
vn 0.413457 -0.91021 0.0239064
v -0.0198623 0.0120924 0.0321962
vn -0.15986 -0.955436 0.248168
v -0.0076522 0.0120924 0.0370478
vn -0.0903345 -0.880835 0.464725
v -0.0302283 0.0120921 0.0225041
vn -0.33484 -0.905058 0.262207
v -0.0322879 0.0238257 0.0204176
vn -0.636854 0.683844 0.356056
v 0.0287145 0.0131517 0.0247829
vn 0.339863 -0.892527 0.296462
v 0.036182 0.0131517 0.0115011
vn 0.36958 -0.919651 0.132861
v 0.0346035 0.0120922 -0.0149262
vn 0.408435 -0.889749 -0.203783
v 0.0242361 0.0131518 -0.0289831
vn 0.285137 -0.897314 -0.336934
v 0.00978853 0.0120924 -0.0365416
vn 0.137904 -0.881457 -0.451681
v -0.00329981 0.0120925 -0.0376858
vn -0.0315236 -0.955315 -0.293902
v 9.31427e-08 0.01209 2.73705e-08
vn 0.00859967 -0.999961 0.00214354
v -0.00643735 0.0239933 -0.0378994
vn -0.222815 -0.296162 -0.928785
v 0.01901 0.0239933 -0.0331603
vn 0.495836 -0.429523 -0.754756
v 0.0380373 0.0239933 -0.0049068
vn 0.961533 -0.225334 -0.157095
v 0.0324416 0.0239933 -0.0197317
vn 0.632301 -0.632592 -0.44724
v 0.00529691 0.0239932 -0.0379672
vn 0.156839 -0.314632 -0.936167
v 0.030772 0.0783708 -0.061423
vn 0.574083 0.817529 -0.0455583
v 0.0350905 0.0752917 -0.00934721
vn 0.721005 0.69159 0.0430818
v -0.0273376 0.0525465 -0.0254379
vn -0.720233 -0.0263337 -0.693232
v -0.0192409 0.0562407 -0.0324402
vn -0.431613 -0.0318353 -0.901497
v -0.00289033 0.0533375 -0.0373563
vn -0.0701428 -0.0290933 -0.997113
v 0.0359595 0.0711347 0.0037021
vn 0.895243 0.390457 0.214671
v 0.0264401 0.0811686 -0.0214769
vn 0.370275 0.928837 0.0125492
v 0.023453 0.0818492 -0.0614475
vn 0.289808 0.953704 -0.0803713
v -0.0367206 0.0239932 -0.0103812
vn -0.707665 -0.67677 -0.202962
v 0.0380255 0.0636853 -0.00581943
vn 0.994362 0.027345 -0.10245
v -0.0289796 0.0628949 -0.0276873
vn -0.573076 -0.762145 -0.301197
v -0.0164912 0.0593737 -0.0356304
vn -0.22064 -0.900745 -0.374134
v -0.0359125 0.0606955 -0.0135434
vn -0.885914 -0.0682618 -0.4588
v -0.0362105 0.0679553 -0.0214342
vn -0.861105 -0.499135 -0.0967557
v -0.0367105 0.0732955 -0.0168351
vn -0.923399 0.383723 0.00955254
v 0.00549175 0.0589187 -0.039521
vn 0.0741967 -0.899804 -0.429938
v -0.0167557 0.0705078 0.0311693
vn -0.444121 0.378238 0.812215
v -0.0146155 0.0603285 -0.0525688
vn -0.175547 -0.983797 0.0364344
v -0.029909 0.0645771 -0.0471555
vn -0.36305 -0.931714 0.0102058
v 0.0334291 0.0577543 -0.0176017
vn 0.897251 -0.0546044 -0.438131
v 0.013254 0.0563918 -0.035183
vn 0.359697 -0.0628475 -0.93095
v 0.0250204 0.0544492 -0.027686
vn 0.677424 -0.0159123 -0.735421
v -0.0121865 -0.0429506 -0.160007
vn -0.21933 -0.974443 0.0485366
v -0.0346704 -0.0286326 -0.163747
vn -0.811681 -0.583642 0.0231263
v -0.0380119 -0.0213889 -0.145065
vn -0.852973 -0.487572 0.186306
v -0.0427922 -0.0134961 -0.161159
vn -0.936621 -0.348961 0.0311076
v -0.0246526 -0.037558 -0.157568
vn -0.540207 -0.838831 0.0673743
v -0.031084 -0.0306236 -0.146586
vn -0.654155 -0.732417 0.188801
v -0.0324866 0.0655001 -0.0578066
vn -0.560198 -0.820576 0.113283
v -0.0304066 0.0600996 -0.106647
vn -0.513213 0.66324 -0.544725
v -0.0330058 0.0674702 -0.0933064
vn -0.57081 0.733561 -0.368869
v -0.0361601 0.0328408 -0.130748
vn -0.767931 0.512639 -0.384035
v -0.0131892 0.0848703 -0.0344664
vn -0.162586 0.98669 0.00306735
v -0.030203 0.0762528 -0.0745674
vn -0.505202 0.834212 -0.221048
v -0.0237955 0.069258 -0.0987135
vn -0.324675 0.801568 -0.50207
v -0.0277325 0.0404669 -0.1313
vn -0.537733 0.702928 -0.465549
v 0.0321124 -0.030578 -0.150398
vn 0.736344 -0.665905 0.119869
v 0.0399445 -0.0201716 -0.153174
vn 0.856488 -0.514785 0.0377584
v 0.0395025 -0.0158157 -0.141167
vn 0.883543 -0.398587 0.245928
v 0.00290055 -0.0438239 -0.148648
vn 0.0126877 -0.997882 0.0638023
v -0.00965723 -0.0421183 -0.143763
vn -0.187442 -0.960721 0.20465
v -0.0160159 -0.0378736 -0.13804
vn -0.409601 -0.846708 0.339577
v 0.0236044 -0.0277305 -0.132491
vn 0.350468 -0.397852 0.847872
v 0.0204395 -0.0143071 -0.126973
vn 0.156072 -0.308675 0.938276
v 0.00620275 -0.0352435 -0.132224
vn 0.0610837 -0.383849 0.921373
v 0.0158947 -0.0370088 -0.136669
vn 0.345868 -0.7406 0.576096
v 0.0041088 -0.0417317 -0.13936
vn 0.0802704 -0.902401 0.423354
v 0.0142922 -0.0419499 -0.150093
vn 0.292823 -0.952855 0.0795089
v 0.0269762 0.0551292 -0.0841783
vn 0.222496 -0.874083 0.431827
v 0.00207416 0.0496397 -0.0849823
vn 0.0397471 -0.858983 0.510459
v 0.0243687 0.0455523 -0.0965901
vn 0.214446 -0.732736 0.645841
v 0.00442427 0.0560531 -0.0704966
vn 0.0502412 -0.967717 0.246982
v 0.02262 0.0601672 -0.0661381
vn 0.204285 -0.959848 0.192247
v -0.0391515 -0.0097852 -0.133638
vn -0.692998 -0.358236 0.625636
v -0.0430498 -0.00810048 -0.143193
vn -0.973977 -0.198577 0.109256
v 0.0202426 0.0605942 -0.0346265
vn 0.284259 -0.946253 -0.15428
v 0.0204007 0.0615582 -0.049009
vn 0.178301 -0.983946 0.00764282
v -0.00086446 0.059458 -0.0452891
vn 0.045626 -0.996972 0.0629737
v 0.029271 -0.028791 -0.138174
vn 0.656872 -0.631509 0.411966
v 0.037624 -0.0137226 -0.133952
vn 0.679946 -0.354242 0.642017
v 0.0362061 0.0674513 -0.0684476
vn 0.880277 -0.462478 0.105956
v 0.0373541 0.0627237 -0.0886033
vn 0.970686 0.23906 -0.024874
v 0.0416919 0.0282606 -0.119155
vn 0.953582 -0.0858078 0.288648
v 0.0344158 0.0501711 -0.0970391
vn 0.527661 -0.664772 0.528822
v 0.0326767 0.0602884 -0.078535
vn 0.567227 -0.775761 0.276494
v 0.0206177 -0.0377027 -0.143484
vn 0.480566 -0.839145 0.254738
v 0.00633197 0.0207383 -0.11312
vn 0.0598453 -0.480218 0.875105
v 0.00721075 0.000725478 -0.121234
vn 0.019283 -0.316032 0.948553
v 0.0252127 0.0153818 -0.118199
vn 0.161418 -0.374296 0.913152
v 0.0235895 0.0320299 -0.10862
vn 0.239133 -0.557961 0.794666
v 0.0440973 -0.0076081 -0.152809
vn 0.974598 -0.218043 0.0511559
v 0.00868388 0.0349331 -0.103452
vn 0.0738215 -0.68669 0.723192
v -0.00398531 0.0443498 -0.0927676
vn -0.122173 -0.78728 0.604371
v 0.038476 0.0206281 -0.11996
vn 0.350273 -0.388253 0.85239
v 0.0231815 0.0605652 -0.111088
vn 0.344888 0.750648 -0.563542
v 0.032655 0.0642342 -0.0986119
vn 0.563708 0.687503 -0.457791
v 0.0309385 0.0649751 -0.051384
vn 0.475366 -0.878244 0.0520973
v 0.0256868 0.0719661 -0.0927859
vn 0.346158 0.819148 -0.457352
v 0.0146814 0.0753538 -0.0922998
vn 0.193176 0.881732 -0.430386
v 0.011454 0.0826858 -0.0728797
vn 0.13243 0.966461 -0.220034
v 0.0280824 0.0757469 -0.0801871
vn 0.480292 0.836344 -0.264287
v 0.0376411 0.0558202 -0.103352
vn 0.790859 0.484664 -0.373687
v 0.039212 0.0506586 -0.102114
vn 0.613778 -0.442429 0.653861
v 0.0356642 0.0731948 -0.0647895
vn 0.842085 0.53208 -0.0882228
v 0.0141009 0.061569 -0.1142
vn 0.210931 0.77647 -0.593803
v 0.0246524 -0.0375581 -0.157568
vn 0.535242 -0.843595 0.0431719
v -0.0336195 0.0473088 -0.0993808
vn -0.286775 -0.632215 0.719767
v -0.029102 -0.0281242 -0.137237
vn -0.645498 -0.59795 0.475172
v -0.0248154 -0.0264703 -0.132522
vn -0.328488 -0.377831 0.865644
v -0.0110632 0.0840526 0.00827201
vn -0.184538 0.97778 0.0994623
v -0.0378609 0.0271814 -0.116593
vn -0.377765 -0.367173 0.849987
v -0.0263841 0.025678 -0.113326
vn -0.270521 -0.503138 0.820775
v -0.00941905 0.0185806 -0.114302
vn -0.0898319 -0.477735 0.873899
v -0.0127356 0.0361516 -0.103328
vn -0.103294 -0.644913 0.757244
v -0.027558 0.0508805 -0.0914621
vn -0.267837 -0.77225 0.576102
v -0.0150275 -0.0256284 -0.129218
vn -0.0730801 -0.301 0.95082
v -0.0194504 0.00596646 -0.120833
vn -0.129325 -0.329819 0.935144
v -0.0163367 0.0585459 -0.0680181
vn -0.179328 -0.954319 0.238992
v -0.00909476 -0.036807 -0.133729
vn -0.146825 -0.616151 0.773822
v -0.0248726 0.0562056 -0.0803498
vn -0.285658 -0.877039 0.386266
f 1//1 2//2 3//3
f 4//4 5//5 6//6
f 7//7 8//8 9//9
f 7//7 9//9 6//6
f 10//10 11//11 12//12
f 11//11 10//10 5//5
f 11//11 5//5 13//13
f 16//16 10//10 12//12
f 16//16 17//17 10//10
f 18//18 19//19 20//20
f 22//22 23//23 24//24
f 24//24 26//26 22//22
f 27//27 21//21 28//28
f 31//31 26//26 32//32
f 5//5 4//4 34//34
f 33//33 29//29 24//24
f 22//22 26//26 31//31
f 22//22 31//31 35//35
f 6//6 36//36 4//4
f 17//17 16//16 19//19
f 37//37 18//18 38//38
f 39//39 40//40 41//41
f 45//45 33//33 46//46
f 45//45 46//46 47//47
f 42//42 50//50 51//51
f 52//52 54//54 43//43
f 55//55 56//56 57//57
f 55//55 57//57 14//14
f 14//14 57//57 15//15
f 14//14 58//58 7//7
f 7//7 58//58 59//59
f 18//18 20//20 38//38
f 8//8 7//7 60//60
f 7//7 59//59 60//60
f 37//37 55//55 18//18
f 41//41 40//40 61//61
f 35//35 28//28 21//21
f 33//33 24//24 25//25
f 13//13 64//64 11//11
f 62//62 11//11 64//64
f 11//11 62//62 12//12
f 12//12 62//62 16//16
f 65//65 19//19 16//16
f 66//66 20//20 19//19
f 63//63 67//67 68//68
f 64//64 70//70 62//62
f 62//62 70//70 63//63
f 68//68 65//65 63//63
f 63//63 65//65 16//16
f 63//63 16//16 62//62
f 71//71 29//29 30//30
f 68//68 72//72 65//65
f 65//65 72//72 66//66
f 23//23 22//22 21//21
f 73//73 74//74 75//75
f 76//76 77//77 27//27
f 15//15 58//58 14//14
f 34//34 13//13 5//5
f 17//17 19//19 18//18
f 24//24 29//29 26//26
f 55//55 37//37 56//56
f 6//6 9//9 36//36
f 52//52 78//78 54//54
f 65//65 66//66 19//19
f 72//72 79//79 66//66
f 70//70 67//67 63//63
f 35//35 21//21 22//22
f 80//80 69//69 81//81
f 73//73 82//82 74//74
f 83//83 84//84 75//75
f 83//83 85//85 84//84
f 76//76 87//87 88//88
f 44//44 41//41 91//91
f 92//92 93//93 94//94
f 99//99 69//69 100//100
f 101//101 36//36 9//9
f 102//102 4//4 36//36
f 102//102 36//36 101//101
f 4//4 100//100 34//34
f 103//103 13//13 34//34
f 103//103 34//34 100//100
f 69//69 70//70 103//103
f 103//103 70//70 64//64
f 44//44 50//50 39//39
f 40//40 39//39 48//48
f 39//39 42//42 48//48
f 50//50 42//42 39//39
f 106//106 29//29 33//33
f 44//44 39//39 41//41
f 105//105 32//32 104//104
f 32//32 71//71 104//104
f 107//107 108//108 104//104
f 104//104 108//108 105//105
f 42//42 51//51 43//43
f 107//107 104//104 30//30
f 29//29 109//109 30//30
f 29//29 106//106 109//109
f 30//30 104//104 71//71
f 45//45 110//110 106//106
f 45//45 106//106 33//33
f 30//30 109//109 107//107
f 47//47 110//110 45//45
f 47//47 91//91 110//110
f 44//44 91//91 47//47
f 48//48 49//49 40//40
f 61//61 40//40 49//49
f 43//43 48//48 42//42
f 92//92 94//94 111//111
f 112//112 93//93 92//92
f 113//113 114//114 92//92
f 92//92 115//115 113//113
f 112//112 92//92 114//114
f 107//107 97//97 108//108
f 96//96 97//97 107//107
f 116//116 90//90 89//89
f 89//89 118//118 117//117
f 89//89 117//117 119//119
f 120//120 121//121 89//89
f 119//119 120//120 89//89
f 89//89 121//121 122//122
f 89//89 122//122 95//95
f 122//122 123//123 95//95
f 123//123 124//124 125//125
f 122//122 124//124 123//123
f 118//118 89//89 97//97
f 119//119 127//127 120//120
f 120//120 127//127 129//129
f 128//128 130//130 131//131
f 96//96 132//132 133//133
f 96//96 133//133 128//128
f 128//128 134//134 96//96
f 135//135 126//126 97//97
f 97//97 96//96 134//134
f 97//97 134//134 135//135
f 126//126 118//118 97//97
f 121//121 124//124 122//122
f 120//120 129//129 121//121
f 132//132 137//137 138//138
f 137//137 132//132 139//139
f 140//140 139//139 132//132
f 140//140 125//125 139//139
f 123//123 125//125 140//140
f 130//130 133//133 138//138
f 95//95 123//123 140//140
f 133//133 130//130 128//128
f 137//137 139//139 147//147
f 132//132 138//138 133//133
f 124//124 129//129 147//147
f 129//129 127//127 147//147
f 147//147 127//127 146//146
f 147//147 146//146 145//145
f 124//124 121//121 129//129
f 147//147 145//145 144//144
f 147//147 136//136 142//142
f 143//143 136//136 147//147
f 142//142 141//141 147//147
f 147//147 141//141 131//131
f 147//147 131//131 130//130
f 130//130 138//138 147//147
f 138//138 137//137 147//147
f 147//147 139//139 125//125
f 147//147 125//125 124//124
f 147//147 144//144 143//143
f 89//89 90//90 148//148
f 110//110 96//96 106//106
f 108//108 97//97 150//150
f 89//89 149//149 151//151
f 97//97 89//89 151//151
f 89//89 148//148 152//152
f 106//106 96//96 109//109
f 109//109 96//96 107//107
f 91//91 41//41 95//95
f 152//152 148//148 157//157
f 3//3 2//2 154//154
f 31//31 158//158 154//154
f 159//159 153//153 160//160
f 35//35 31//31 154//154
f 97//97 151//151 150//150
f 91//91 96//96 110//110
f 91//91 95//95 96//96
f 95//95 161//161 89//89
f 161//161 116//116 89//89
f 108//108 150//150 105//105
f 150//150 162//162 105//105
f 162//162 158//158 105//105
f 32//32 105//105 158//158
f 31//31 32//32 158//158
f 162//162 3//3 154//154
f 162//162 154//154 158//158
f 156//156 163//163 164//164
f 165//165 166//166 163//163
f 165//165 49//49 166//166
f 61//61 161//161 95//95
f 26//26 71//71 32//32
f 43//43 54//54 167//167
f 48//48 167//167 49//49
f 89//89 152//152 149//149
f 41//41 61//61 95//95
f 35//35 154//154 159//159
f 159//159 28//28 35//35
f 90//90 156//156 148//148
f 148//148 156//156 157//157
f 145//145 119//119 117//117
f 118//118 143//143 144//144
f 126//126 143//143 118//118
f 118//118 144//144 117//117
f 146//146 119//119 145//145
f 117//117 144//144 145//145
f 126//126 136//136 143//143
f 127//127 119//119 146//146
f 95//95 140//140 132//132
f 132//132 96//96 95//95
f 135//135 136//136 126//126
f 135//135 142//142 136//136
f 142//142 135//135 134//134
f 134//134 141//141 142//142
f 141//141 128//128 131//131
f 141//141 134//134 128//128
f 9//9 8//8 98//98
f 90//90 155//155 156//156
f 160//160 28//28 159//159
f 168//168 157//157 164//164
f 26//26 29//29 71//71
f 159//159 154//154 153//153
f 116//116 165//165 155//155
f 156//156 164//164 157//157
f 165//165 163//163 155//155
f 61//61 49//49 161//161
f 161//161 165//165 116//116
f 155//155 90//90 116//116
f 161//161 49//49 165//165
f 155//155 163//163 156//156
f 163//163 166//166 171//171
f 163//163 171//171 170//170
f 170//170 164//164 163//163
f 172//172 3//3 162//162
f 172//172 1//1 3//3
f 166//166 49//49 167//167
f 173//173 149//149 152//152
f 151//151 174//174 172//172
f 150//150 172//172 162//162
f 157//157 168//168 173//173
f 150//150 151//151 172//172
f 173//173 152//152 157//157
f 1//1 172//172 174//174
f 174//174 151//151 149//149
f 58//58 15//15 175//175
f 176//176 177//177 178//178
f 178//178 60//60 176//176
f 176//176 60//60 59//59
f 60//60 178//178 8//8
f 166//166 181//181 171//171
f 59//59 179//179 176//176
f 182//182 83//83 183//183
f 74//74 183//183 83//83
f 78//78 185//185 77//77
f 54//54 78//78 186//186
f 186//186 78//78 77//77
f 182//182 184//184 83//83
f 186//186 88//88 187//187
f 184//184 101//101 85//85
f 184//184 85//85 83//83
f 74//74 83//83 75//75
f 186//186 77//77 88//88
f 189//189 190//190 191//191
f 15//15 57//57 175//175
f 99//99 188//188 182//182
f 175//175 192//192 193//193
f 194//194 179//179 175//175
f 195//195 196//196 197//197
f 195//195 197//197 198//198
f 199//199 192//192 200//200
f 201//201 202//202 203//203
f 201//201 204//204 202//202
f 205//205 204//204 201//201
f 177//177 206//206 207//207
f 209//209 208//208 168//168
f 208//208 173//173 168//168
f 168//168 210//210 209//209
f 195//195 211//211 212//212
f 198//198 197//197 199//199
f 216//216 214//214 217//217
f 217//217 214//214 213//213
f 199//199 200//200 218//218
f 219//219 220//220 221//221
f 220//220 196//196 221//221
f 221//221 222//222 219//219
f 194//194 175//175 193//193
f 179//179 194//194 180//180
f 180//180 177//177 176//176
f 176//176 179//179 180//180
f 178//178 207//207 8//8
f 177//177 207//207 178//178
f 175//175 57//57 192//192
f 175//175 179//179 58//58
f 74//74 186//186 183//183
f 191//191 223//223 79//79
f 203//203 202//202 224//224
f 203//203 224//224 222//222
f 195//195 212//212 226//226
f 211//211 218//218 189//189
f 198//198 211//211 195//195
f 207//207 86//86 8//8
f 54//54 74//74 82//82
f 186//186 74//74 54//54
f 67//67 227//227 228//228
f 208//208 1//1 173//173
f 164//164 170//170 210//210
f 164//164 210//210 168//168
f 228//228 227//227 230//230
f 231//231 87//87 232//232
f 227//227 231//231 230//230
f 230//230 231//231 233//233
f 228//228 234//234 67//67
f 215//215 79//79 72//72
f 234//234 235//235 215//215
f 214//214 235//235 234//234
f 236//236 213//213 214//214
f 236//236 2//2 213//213
f 154//154 2//2 236//236
f 232//232 76//76 27//27
f 232//232 27//27 28//28
f 87//87 76//76 232//232
f 233//233 231//231 232//232
f 232//232 28//28 160//160
f 236//236 153//153 154//154
f 229//229 2//2 1//1
f 229//229 1//1 208//208
f 174//174 173//173 1//1
f 233//233 232//232 160//160
f 227//227 237//237 231//231
f 70//70 237//237 67//67
f 237//237 227//227 67//67
f 237//237 69//69 80//80
f 231//231 80//80 87//87
f 173//173 174//174 149//149
f 81//81 69//69 99//99
f 183//183 186//186 187//187
f 183//183 187//187 182//182
f 80//80 81//81 87//87
f 187//187 88//88 81//81
f 187//187 81//81 99//99
f 87//87 81//81 88//88
f 78//78 52//52 185//185
f 99//99 182//182 187//187
f 76//76 88//88 77//77
f 184//184 182//182 188//188
f 69//69 237//237 70//70
f 38//38 20//20 223//223
f 223//223 20//20 66//66
f 56//56 37//37 238//238
f 200//200 192//192 57//57
f 218//218 238//238 189//189
f 238//238 218//218 200//200
f 153//153 233//233 160//160
f 80//80 231//231 237//237
f 234//234 68//68 67//67
f 153//153 236//236 233//233
f 233//233 236//236 214//214
f 233//233 214//214 228//228
f 228//228 214//214 234//234
f 72//72 234//234 215//215
f 234//234 72//72 68//68
f 228//228 230//230 233//233
f 213//213 2//2 229//229
f 224//224 202//202 225//225
f 239//239 75//75 84//84
f 58//58 179//179 59//59
f 27//27 77//77 185//185
f 10//10 112//112 5//5
f 5//5 112//112 114//114
f 242//242 185//185 52//52
f 53//53 51//51 50//50
f 242//242 52//52 51//51
f 242//242 51//51 53//53
f 169//169 53//53 50//50
f 44//44 169//169 50//50
f 44//44 47//47 169//169
f 23//23 21//21 242//242
f 24//24 23//23 25//25
f 25//25 23//23 53//53
f 46//46 25//25 169//169
f 242//242 53//53 23//23
f 84//84 85//85 243//243
f 244//244 84//84 243//243
f 206//206 243//243 85//85
f 206//206 85//85 86//86
f 210//210 170//170 204//204
f 239//239 245//245 246//246
f 246//246 245//245 219//219
f 248//248 249//249 241//241
f 250//250 171//171 181//181
f 245//245 249//249 220//220
f 248//248 220//220 249//249
f 199//199 197//197 251//251
f 194//194 251//251 241//241
f 194//194 241//241 240//240
f 170//170 171//171 250//250
f 240//240 241//241 206//206
f 240//240 206//206 177//177
f 240//240 177//177 180//180
f 248//248 197//197 220//220
f 239//239 84//84 244//244
f 10//10 93//93 112//112
f 98//98 86//86 85//85
f 100//100 188//188 99//99
f 102//102 188//188 100//100
f 102//102 100//100 4//4
f 9//9 98//98 101//101
f 101//101 98//98 85//85
f 13//13 103//103 64//64
f 54//54 82//82 167//167
f 167//167 82//82 166//166
f 43//43 51//51 52//52
f 43//43 167//167 48//48
f 100//100 69//69 103//103
f 242//242 21//21 185//185
f 185//185 21//21 27//27
f 169//169 47//47 46//46
f 98//98 8//8 86//86
f 102//102 101//101 184//184
f 17//17 93//93 10//10
f 5//5 114//114 6//6
f 6//6 114//114 113//113
f 6//6 113//113 7//7
f 7//7 113//113 115//115
f 7//7 115//115 92//92
f 7//7 92//92 14//14
f 53//53 169//169 25//25
f 14//14 92//92 55//55
f 55//55 111//111 18//18
f 18//18 111//111 94//94
f 18//18 94//94 17//17
f 17//17 94//94 93//93
f 25//25 46//46 33//33
f 102//102 184//184 188//188
f 55//55 92//92 111//111
f 247//247 75//75 239//239
f 250//250 181//181 252//252
f 229//229 208//208 209//209
f 219//219 245//245 220//220
f 196//196 220//220 197//197
f 226//226 212//212 215//215
f 211//211 189//189 191//191
f 191//191 212//212 211//211
f 211//211 198//198 218//218
f 218//218 198//198 199//199
f 215//215 212//212 79//79
f 79//79 212//212 191//191
f 214//214 216//216 235//235
f 226//226 215//215 235//235
f 235//235 216//216 222//222
f 209//209 210//210 205//205
f 205//205 210//210 204//204
f 226//226 196//196 195//195
f 229//229 205//205 217//217
f 217//217 205//205 201//201
f 216//216 201//201 203//203
f 216//216 203//203 222//222
f 226//226 222//222 221//221
f 213//213 229//229 217//217
f 229//229 209//209 205//205
f 217//217 201//201 216//216
f 235//235 222//222 226//226
f 219//219 222//222 224//224
f 219//219 224//224 246//246
f 221//221 196//196 226//226
f 202//202 252//252 225//225
f 225//225 252//252 247//247
f 38//38 190//190 37//37
f 37//37 190//190 189//189
f 37//37 189//189 238//238
f 207//207 206//206 86//86
f 181//181 82//82 73//73
f 190//190 223//223 191//191
f 251//251 197//197 248//248
f 244//244 249//249 245//245
f 246//246 247//247 239//239
f 244//244 243//243 249//249
f 249//249 243//243 241//241
f 241//241 243//243 206//206
f 181//181 73//73 252//252
f 252//252 73//73 75//75
f 252//252 75//75 247//247
f 38//38 223//223 190//190
f 224//224 225//225 246//246
f 223//223 66//66 79//79
f 225//225 247//247 246//246
f 204//204 170//170 250//250
f 204//204 250//250 202//202
f 202//202 250//250 252//252
f 180//180 194//194 240//240
f 200//200 57//57 56//56
f 251//251 248//248 241//241
f 194//194 193//193 199//199
f 192//192 199//199 193//193
f 251//251 194//194 199//199
f 239//239 244//244 245//245
f 82//82 181//181 166//166
f 56//56 238//238 200//200
