# Created by Open3D 
# object name: link1
# number of vertices: 252
# number of triangles: 500
v -0.0457313 0.0296459 0.0162885
vn -0.93008 0.0115707 0.367175
v -0.046761 0.0588947 0.0118415
vn -0.684961 0.694161 0.221289
v -0.0478293 0.0296452 0.00841979
vn -0.99069 0.00275636 0.136111
v 0.0186993 -0.0339455 0.0402465
vn 0.373061 -0.299326 0.878197
v 0.00400669 -0.032591 0.0443903
vn 0.101869 -0.321165 0.941529
v 0.00865079 -0.0422498 0.0391003
vn 0.176179 -0.551849 0.815122
v 0.00631603 -0.0505907 0.0312798
vn 0.123981 -0.818667 0.560725
v -0.00321474 -0.0432945 0.0392676
vn -0.0437822 -0.546984 0.835997
v -0.00450753 -0.0495903 0.0335847
vn -0.106583 -0.777707 0.619526
v -0.0071636 -0.0547729 0.0232049
vn -0.0551155 -0.934728 0.351063
v -0.00571394 -0.0294851 0.0451812
vn -0.123026 -0.258232 0.958218
v -0.000949511 -0.0165431 0.0480899
vn 0.0150619 -0.0827914 0.996453
v 0.0343996 -0.00312228 0.0342
vn 0.709402 -0.0156501 0.704631
v 0.0271903 -0.000564808 0.0403343
vn 0.578467 -0.00771583 0.815669
v 0.0220484 -0.00652663 0.0432446
vn 0.443141 -0.0553268 0.894743
v 0.0148644 -0.00246958 0.0465216
vn 0.322913 -0.00575133 0.946411
v 0.0298204 -0.0200074 0.0374927
vn 0.547742 -0.126027 0.827101
v 0.0126957 -0.0231178 0.0452561
vn 0.314526 -0.168229 0.934223
v 0.00945959 -0.01234 0.0475946
vn 0.111417 -0.0246679 0.993468
v 0.0310565 0.0296138 0.0373096
vn 0.622804 0.00566162 0.782358
v -0.0176198 -0.0424478 0.0363518
vn -0.317022 -0.5678 0.759671
v -0.0125661 -0.0370799 0.0410689
vn -0.239952 -0.381943 0.892492
v -0.0150368 0.029601 0.046016
vn -0.301274 0.0081105 0.953503
v -0.0241964 -0.00174598 0.0422083
vn -0.496855 -0.00822813 0.867795
v -0.0144658 -0.00427819 0.046503
vn -0.299291 -0.0189557 0.953974
v -0.0234579 -0.0309867 0.0393756
vn -0.438499 -0.290529 0.850477
v -0.0252576 -0.0198026 0.0405919
vn -0.508953 -0.0897359 0.856104
v -0.0473165 -0.00807228 0.0110477
vn -0.966609 -0.024652 0.255065
v -0.00848665 -0.00749092 0.0479031
vn -0.15257 -0.053522 0.986842
v -0.0341029 -0.0424293 0.0244473
vn -0.681669 -0.557111 0.474294
v -0.0147148 -0.0245117 0.0444079
vn -0.295626 -0.16633 0.940712
v -0.0016756 0.0296296 0.048415
vn -0.0705319 0.00577455 0.997493
v 0.0214915 -0.0419774 0.0349276
vn 0.362274 -0.580723 0.729053
v -0.030794 -0.0359218 0.0325938
vn -0.563757 -0.410713 0.716584
v -0.0334848 -0.0284854 0.0329063
vn -0.669381 -0.131331 0.731219
v -0.033907 -0.00803572 0.0344917
vn -0.69288 -0.0179816 0.720829
v 0.0198661 -0.049531 0.0278551
vn 0.316381 -0.783304 0.535106
v 0.0224877 0.029646 0.0429299
vn 0.411705 0.00791297 0.911283
v -0.0441122 -0.00307257 0.0202587
vn -0.902602 -0.0162198 0.43017
v -0.0400183 -0.0196542 0.0266161
vn -0.824289 -0.0401958 0.564741
v -0.0440378 -0.0256739 0.017025
vn -0.93537 -0.127202 0.330003
v -0.0478928 -0.019285 0.00419382
vn -0.997569 -0.0551364 0.0426186
v -0.048453 0.0296455 -0.0013757
vn -0.997669 0.000869812 -0.0682317
v -0.0458298 0.0296454 -0.0155265
vn -0.94709 0.0111038 -0.320775
v -0.0323716 0.0296458 0.0361709
vn -0.682715 0.000553346 0.730685
v -0.0250209 -0.0456454 0.029785
vn -0.421089 -0.728546 0.540282
v -0.0152698 -0.0507293 0.0283185
vn -0.261593 -0.818452 0.511571
v -0.0449994 -0.0357065 -0.00762858
vn -0.9325 -0.361136 0.00503152
v -0.0383145 -0.0462405 -0.00285841
vn -0.726294 -0.686069 -0.0425026
v 0.0373949 -0.024259 0.0296073
vn 0.8114 -0.0652897 0.580833
v 0.0079687 0.0296477 0.0476744
vn 0.193834 0.00637704 0.981014
v -0.0382765 0.0295055 -0.029789
vn -0.783175 -0.00861179 -0.621741
v -0.040259 0.0296461 0.0268227
vn -0.836244 0.00217689 0.548353
v -0.0245003 0.0296466 0.0417968
vn -0.511626 0.001703 0.859207
v 0.0451819 0.0296451 0.0174933
vn 0.945031 -0.00109801 0.32698
v 0.0478038 -0.000958591 0.00862939
vn 0.980645 -0.00427023 0.195749
v 0.0483752 0.0290294 0.00179442
vn 0.999138 0.00615948 0.0410471
v 0.0443036 -0.00381528 0.0199109
vn 0.896032 -0.0221928 0.443435
v 0.043701 -0.0278022 0.0171302
vn 0.927736 -0.155134 0.33947
v 0.0485801 -0.0133546 -0.00177609
vn 0.999868 -0.00347593 -0.0158576
v -0.00300173 -0.056854 0.0142723
vn -0.0524955 -0.996601 0.0634884
v 0.046836 -0.0202591 0.00932056
vn 0.97388 -0.0837944 0.211035
v 0.0440381 0.00864469 -0.0207886
vn 0.90891 0.0388207 -0.415182
v 0.0395069 0.0102107 -0.0292334
vn 0.847887 0.191752 -0.494287
v 0.0404717 0.0296469 -0.0264245
vn 0.837654 0.0188374 -0.545876
v 0.0415397 -0.0395281 0.0126844
vn 0.898727 -0.395558 0.18927
v 0.0388426 -0.0346093 0.0238666
vn 0.826835 -0.278344 0.488741
v 0.0363885 -0.0419154 0.0221358
vn 0.718128 -0.514689 0.468389
v -1.352e-06 -0.0567393 -0.00368242
vn -0.0146976 -0.994661 -0.102144
v 0.0462333 -0.00146821 -0.0186473
vn 0.97721 0.144273 -0.15571
v 0.0478422 0.0295064 -0.0079799
vn 0.981951 0.0103951 -0.188851
v 0.031668 -0.0344162 0.032466
vn 0.59516 -0.332035 0.731804
v -0.00399885 0.029651 -0.0483351
vn -0.0906357 0.0588259 -0.994145
v 0.0311584 -0.0508436 -0.0063935
vn 0.435525 -0.889137 -0.140549
v 0.0212788 -0.0541084 -0.00785914
vn 0.224155 -0.964028 -0.142846
v -0.0477641 -0.00848604 -0.116144
vn -0.78611 -0.169527 -0.594384
v -0.0484666 0.00367508 -0.116145
vn -0.976636 0.0480383 -0.209462
v 0.019282 -0.0480441 -0.0442082
vn 0.353725 -0.924744 -0.140457
v 0.00887998 -0.0541077 -0.0211038
vn 0.149803 -0.979063 -0.137824
v -0.0385453 -0.0313168 0.0262105
vn -0.813476 -0.25898 0.520756
v 0.00661084 -0.0558142 0.0184837
vn 0.107626 -0.973477 0.201888
v 0.0297477 -0.0456156 0.0256312
vn 0.515055 -0.69038 0.508029
v 0.0236174 -0.0530259 0.0164743
vn 0.336945 -0.906452 0.254584
v 0.0167828 -0.0535012 0.0217181
vn 0.179335 -0.915495 0.360149
v 0.0362833 -0.0467377 0.0128378
vn 0.623844 -0.738774 0.255014
v 0.0302869 0.0134358 -0.0405209
vn 0.668093 0.338883 -0.662428
v 0.0328551 0.0296481 -0.0356759
vn 0.698488 0.0503369 -0.713849
v 0.00686628 0.0283459 -0.0480538
vn 0.234789 0.0703669 -0.969496
v 0.0225088 0.0273897 -0.0430369
vn 0.48935 0.0660709 -0.869581
v -0.000933093 0.020285 -0.0510565
vn 0.0571703 0.58724 -0.807391
v 0.0151355 0.0196683 -0.0484327
vn 0.359469 0.307818 -0.880926
v -0.0328462 0.0296298 -0.0356958
vn -0.676936 -0.00807134 -0.735997
v 0.0455041 0.0296458 -0.0169405
vn 0.943312 0.0136306 -0.331627
v 0.00479566 0.0432095 -0.0705613
vn 0.0376282 0.583168 0.81148
v 0.025519 0.0211733 -0.0598678
vn 0.133675 0.586863 0.798575
v 0.0167937 0.039215 -0.0697416
vn 0.24213 0.678682 0.693371
v 0.0269967 0.0373339 -0.0735677
vn 0.541832 0.750422 0.378531
v 0.0376417 0.0296125 0.0306304
vn 0.805327 -0.00556478 0.592805
v -0.0432582 0.00682449 -0.0232663
vn -0.867569 0.165358 -0.46902
v -0.0265079 0.0296479 -0.0406147
vn -0.607812 0.0509321 -0.792446
v -0.0413577 -0.037429 0.0161927
vn -0.875102 -0.361603 0.321622
v -0.0387268 -0.0445443 0.0109642
vn -0.806139 -0.568844 0.16296
v -0.0476007 -0.00215995 -0.0121334
vn -0.992282 0.0490395 -0.113895
v -0.030149 -0.0504274 0.0160838
vn -0.466078 -0.826093 0.316769
v -0.0173665 -0.0544028 0.0175843
vn -0.233542 -0.946209 0.223936
v -0.0462134 -0.00625265 -0.0299697
vn -0.950005 0.306788 -0.0580637
v -0.0473612 -0.0262477 -0.0231337
vn -0.963372 -0.262545 -0.0546404
v -0.041867 -0.0394024 -0.0173369
vn -0.830956 -0.536913 -0.14573
v -0.0385662 -0.0335735 -0.0513114
vn -0.747217 -0.64782 -0.148314
v -0.03866 -0.0300429 -0.0738977
vn -0.823061 -0.566772 -0.036614
v -0.0291254 -0.0414669 -0.0538016
vn -0.56146 -0.813649 -0.150792
v -0.0358785 -0.0467088 -0.0127808
vn -0.579899 -0.793279 -0.185543
v -0.0307518 -0.038469 -0.0721173
vn -0.622707 -0.781622 -0.0361138
v -0.025423 -0.0414208 -0.116146
vn -0.371754 -0.592475 -0.714683
v -0.0183658 -0.0459998 -0.0681651
vn -0.415795 -0.908444 -0.0429346
v -0.019223 0.0442637 -0.0798148
vn -0.415264 0.875915 0.245619
v -0.0237746 0.0141575 -0.0492663
vn -0.366447 0.919839 0.140047
v -0.0378173 0.00885348 -0.0503162
vn -0.390354 0.796451 0.461834
v -0.0330931 0.0338441 -0.0762181
vn -0.655257 0.706727 0.266785
v -0.0385441 0.0295286 -0.086571
vn -0.797389 0.599606 0.0681414
v -0.0386122 0.00452145 -0.0375279
vn -0.739679 0.66891 -0.0737152
v -0.0458248 -0.0036034 -0.0403643
vn -0.811591 0.522479 0.26141
v -0.0108743 0.0405932 -0.0695029
vn -0.154126 0.568823 0.80789
v -0.0117343 0.0444478 -0.0738963
vn -0.194299 0.825518 0.529875
v -0.0385586 0.0177719 -0.0607646
vn -0.35066 0.650726 0.673494
v 0.0291338 -0.0410331 -0.0563908
vn 0.601251 -0.792937 -0.098733
v -0.0270388 0.0362048 -0.0718328
vn -0.399195 0.702545 0.58913
v -0.0214577 0.0206391 -0.0589649
vn -0.131658 0.647489 0.750616
v -0.0223614 -0.047187 -0.042592
vn -0.359208 -0.921633 -0.146844
v -0.00762937 -0.0489904 -0.0676664
vn -0.174165 -0.983636 -0.0461107
v -0.0085026 -0.0511914 -0.0415663
vn -0.164867 -0.977911 -0.128486
v 0.0469608 0.0117999 -0.088484
vn 0.974061 0.22411 0.0313074
v 0.0476337 0.00154236 -0.0628978
vn 0.980348 0.186532 0.0642114
v 0.0449805 0.0120121 -0.0652199
vn 0.925776 0.351632 0.1389
v 0.0447761 0.000216199 -0.0455305
vn 0.654505 0.607729 0.449765
v 0.041032 0.0208536 -0.068238
vn 0.820815 0.513277 0.250617
v 0.0483505 -0.00519766 -0.0673054
vn 0.996981 -0.0772978 -0.00727796
v 0.0436351 0.0210911 -0.0886626
vn 0.906759 0.419688 0.0406194
v 0.0384002 0.0291857 -0.0797469
vn 0.758265 0.633941 0.152161
v 0.035155 0.0281969 -0.0690248
vn 0.599716 0.660291 0.452058
v 0.0289921 0.0397473 -0.0887853
vn 0.622212 0.781985 0.0367643
v 0.0427891 -0.0229991 -0.0822967
vn 0.874634 -0.483975 -0.027993
v 0.0465597 -0.0136344 -0.0814991
vn 0.961467 -0.274639 -0.0124474
v 0.0453335 -0.0214899 -0.0553093
vn 0.917816 -0.385958 -0.0930052
v 0.0385819 -0.0320244 -0.0582725
vn 0.762616 -0.637344 -0.110495
v 0.0036111 -0.0492986 -0.0686531
vn 0.0798927 -0.995143 -0.0575131
v 0.00836912 -0.0499077 -0.0532719
vn 0.196681 -0.97428 -0.109978
v 0.0196769 -0.0451645 -0.075008
vn 0.331022 -0.942793 -0.0395625
v -0.0284914 -0.0518264 -0.00740848
vn -0.321085 -0.936562 -0.140554
v 0.0305177 -0.0436043 -0.0377359
vn 0.56002 -0.806326 -0.190307
v 0.0273723 -0.0406711 -0.0759915
vn 0.573424 -0.818631 -0.0320523
v 0.0310385 -0.0374357 -0.116145
vn 0.357035 -0.420254 -0.834214
v 0.0366347 -0.0324263 -0.0770314
vn 0.735127 -0.677397 -0.0268758
v 0.0381474 -0.0299665 -0.116146
vn 0.414079 -0.28964 -0.86293
v 0.0383827 0.0302176 -0.0937395
vn 0.782556 0.622537 0.00737197
v 0.047731 -0.0223469 -0.0275651
vn 0.988438 -0.147031 -0.037048
v 0.047572 -0.0106804 -0.0286527
vn 0.980871 0.194154 0.0140059
v 0.039709 -0.037047 -0.0331765
vn 0.746882 -0.640419 -0.178973
v 0.0392944 0.00568955 -0.0459723
vn 0.671674 0.707617 0.219389
v 0.0380752 0.00478122 -0.0418658
vn 0.738873 0.64136 -0.206697
v 0.0368 -0.0466342 -0.00925912
vn 0.645559 -0.743386 -0.175014
v 5.12352e-07 0.0200117 -0.0568976
vn -0.0203905 0.867023 0.497851
v -0.0200035 0.0196824 -0.0455935
vn -0.364406 0.435221 -0.823281
v -0.0481801 -0.0175448 -0.0285385
vn -0.999694 -0.0231222 -0.00879757
v 0.0268937 0.0123426 -0.0477224
vn 0.375395 0.926359 -0.0306217
v -0.0430668 0.0205687 -0.0751589
vn -0.874304 0.475543 0.0972193
v -0.0415521 0.0190704 -0.0666033
vn -0.814426 0.517381 0.262729
v 0.0200296 0.0185336 -0.0568012
vn 0.11219 0.719448 0.685425
v 0.00429897 0.0477077 -0.0774998
vn 0.104417 0.934674 0.339826
v -0.0062727 0.0480371 -0.0798047
vn -0.137488 0.971219 0.194502
v 0.0124082 0.0469665 -0.0807018
vn 0.287788 0.947646 0.138363
v 0.011055 0.047804 -0.0900959
vn 0.226432 0.973993 -0.00818601
v 0.0206013 0.0431393 -0.0780028
vn 0.401603 0.850737 0.33906
v -0.0310753 0.0379142 -0.088149
vn -0.648391 0.761279 0.00655895
v -0.0116151 0.0477722 -0.0880791
vn -0.255738 0.966735 0.00456399
v -0.0198149 0.0442461 -0.116147
vn -0.0376498 0.0811605 -0.99599
v -0.0226158 0.0437563 -0.0885363
vn -0.475226 0.878881 0.0415644
v 0.0226141 0.0437571 -0.0885364
vn 0.409705 0.912105 0.0143706
v 0.0201141 0.0439291 -0.116147
vn 0.384935 0.837058 -0.388791
v 0.048145 -0.00664985 -0.116144
vn 0.620807 -0.0996272 -0.777607
v 0.0484871 0.00313228 -0.116145
vn 0.780689 0.0618793 -0.621848
v 0.0465078 0.0136788 -0.116145
vn 0.55553 0.186862 -0.810228
v -0.0300391 0.0381007 -0.116147
vn -0.623664 0.7781 -0.0748582
v 0.0409472 0.026116 -0.116146
vn 0.551348 0.321534 -0.769826
v 0.033764 0.0348147 -0.116147
vn 0.525677 0.592938 -0.60999
v -0.00131577 -0.0484451 -0.116147
vn -0.0228388 -0.580678 -0.813813
v 0.0453409 -0.0172513 -0.116145
vn 0.454386 -0.190889 -0.870112
v -0.00106604 0.0490776 -0.0912246
vn -0.00137971 0.99995 0.00987182
v -0.0461831 0.0138962 -0.0788043
vn -0.959973 0.271414 0.0691912
v -0.0476807 0.00217315 -0.0652104
vn -0.988937 0.141127 0.0456872
v -0.0476714 -0.00853976 -0.0797133
vn -0.977755 -0.207737 -0.0289797
v -0.0464984 0.0137095 -0.116145
vn -0.883344 0.294433 -0.364709
v -0.04539 -0.0218788 -0.0529664
vn -0.912401 -0.396856 -0.100149
v -0.0451953 -0.017571 -0.0781864
vn -0.927912 -0.372163 -0.0217713
v -0.0437142 -0.0210556 -0.116145
vn -0.676249 -0.34896 -0.648779
v -0.0352943 -0.0332408 -0.116145
vn -0.508285 -0.464632 -0.725095
v 0.00442278 0.0483194 -0.116146
vn 0.138001 0.961898 -0.236027
v -0.0388023 0.0290273 -0.116146
vn -0.784996 0.589879 -0.189271
v -0.0434923 0.021965 -0.0982113
vn -0.896341 0.443364 0.00105016
v -0.0066468 0.0481384 -0.116146
vn -0.158724 0.984731 -0.0714976
v 0.0124953 -0.0469442 -0.116146
vn 0.137778 -0.594787 -0.791988
v 0.0314171 0.0270585 -0.0653963
vn 0.258177 0.635015 0.72808
v -0.00363299 0.0319253 -0.0645026
vn 0.00687833 0.511628 0.85918
v 0.022218 -0.0431649 -0.116145
vn 0.239532 -0.450046 -0.860281
v -0.0156743 0.0296487 -0.0457225
vn -0.310222 0.0223926 -0.9504
v -0.045539 -0.0323778 0.00500662
vn -0.946755 -0.29345 0.13245
v -0.0337751 -0.0500906 0.00655242
vn -0.522907 -0.851716 0.0338827
v -0.0237819 -0.0543165 0.00754581
vn -0.28827 -0.956818 0.037415
v -0.0290645 0.0128653 -0.0428137
vn -0.743089 0.35535 -0.56705
v 0.0219549 -0.0549216 0.00423197
vn 0.226853 -0.973384 0.0325704
v -0.0144839 -0.0560275 -0.000461066
vn -0.146493 -0.986123 -0.0781166
v 0.0451828 -0.0353825 -0.0052992
vn 0.929686 -0.36736 -0.0270258
v 0.0469522 -0.028498 -0.00130879
vn 0.979392 -0.187895 0.0740697
v 0.00946276 -0.0568879 0.00260267
vn 0.0946091 -0.994935 -0.033957
v 0.0287396 -0.0523241 0.0106939
vn 0.468883 -0.880803 0.0658446
v 0.0382201 -0.04633 0.00192955
vn 0.729181 -0.683784 0.0270961
v 0.0430354 -0.0393762 -0.0103219
vn 0.835209 -0.535143 -0.126683
v -0.0354896 0.0588945 0.0326705
vn -0.45278 0.794446 0.404778
v -0.0425675 0.0588939 0.0230404
vn -0.417247 0.880296 0.225795
v 0.0229585 0.0588937 0.0424246
vn 0.280816 0.825896 0.488916
v -0.0467621 0.0588937 -0.0118409
vn -0.649262 0.742565 -0.164486
v 0.042288 0.0446743 0.0241254
vn 0.861169 0.302459 0.408542
v -0.000357802 0.0592101 -0.0147036
vn -0.000417482 1 -0.000241653
v 0.0480724 0.0588945 -0.00398338
vn 0.698269 0.711867 -0.0752728
v 0.0467624 0.0588931 0.0118417
vn 0.584521 0.800905 0.129948
v 0.0441742 0.0588945 -0.0193766
vn 0.611749 0.739003 -0.282204
v 0.0354892 0.0588945 -0.0326701
vn 0.570315 0.594645 -0.566691
v -0.0484025 0.0588945 2.70275e-08
vn -0.651976 0.758144 0.012049
v -0.0160237 -0.0457468 -0.116146
vn -0.171951 -0.599654 -0.781568
v -0.0381952 0.0588941 -0.0297314
vn -0.379543 0.876041 -0.297487
v 0.0327805 0.0588927 0.0356145
vn 0.384445 0.810923 0.441141
v 0.0422925 0.0450151 0.00412289
vn 0.298625 0.93565 0.188099
v 0.0379939 0.059149 0.0295752
vn 0.251703 0.950345 0.183
v 0.0441511 0.0481 0.00412724
vn -0.982087 0.123755 0.142093
v 0.0399933 0.0494273 0.00412581
vn 0.888582 -0.447433 0.101122
v 0.0398463 0.0492417 0.0280018
vn 0.890152 -0.0418753 0.453736
v 0.0448199 0.0480935 0.0189101
vn 0.800153 -0.385714 0.459325
v 0.0118865 0.0588932 0.0469214
vn 0.165545 0.79173 0.588012
v -1.28057e-08 0.0588939 0.0482378
vn -0.008083 0.84659 0.532184
v -0.0156625 0.0588946 0.0456234
vn -0.183656 0.75322 0.631609
v -0.0264769 0.0588938 0.0405195
vn -0.313577 0.826459 0.467584
v 0.00793959 0.0588944 -0.0475793
vn 0.100756 0.644604 -0.757848
v -0.0296279 0.0588945 -0.0380659
vn -0.511557 0.600821 -0.614266
v -0.0194431 0.0588943 -0.0443258
vn -0.321648 0.620077 -0.715575
v -0.00793971 0.0588937 -0.0475801
vn -0.115406 0.628047 -0.76957
v -0.0436705 0.0483265 -0.00413135
vn 0.651285 -0.743329 -0.152608
v -0.0414158 0.0494648 -0.02536
vn -0.87207 -0.226372 -0.433878
v -0.0415447 0.0449937 -0.00413246
vn 0.161068 0.979864 -0.117995
v -0.0444919 0.0470344 -0.0195697
vn -0.827026 0.193968 -0.52764
v -0.04106 0.045258 -0.0260497
vn -0.919255 0.174507 -0.35287
v -0.0396592 0.0480991 -0.00413103
vn -0.949417 -0.306065 -0.0702294
v 0.0229584 0.0588945 -0.0424233
vn 0.336022 0.601042 -0.725147
f 1//1 2//2 3//3
f 4//4 5//5 6//6
f 7//7 6//6 8//8
f 10//10 7//7 9//9
f 8//8 9//9 7//7
f 14//14 15//15 17//17
f 14//14 17//17 13//13
f 5//5 12//12 11//11
f 15//15 16//16 18//18
f 12//12 18//18 19//19
f 18//18 17//17 15//15
f 20//20 14//14 13//13
f 21//21 9//9 8//8
f 23//23 24//24 25//25
f 5//5 11//11 8//8
f 28//28 1//1 3//3
f 29//29 25//25 31//31
f 12//12 32//32 29//29
f 11//11 31//31 22//22
f 21//21 8//8 22//22
f 33//33 6//6 7//7
f 21//21 26//26 34//34
f 26//26 27//27 35//35
f 36//36 27//27 24//24
f 33//33 7//7 37//37
f 26//26 35//35 34//34
f 39//39 41//41 40//40
f 28//28 3//3 42//42
f 3//3 43//43 42//42
f 35//35 27//27 36//36
f 21//21 34//34 46//46
f 30//30 46//46 34//34
f 17//17 50//50 13//13
f 45//45 53//53 36//36
f 54//54 24//24 23//23
f 36//36 24//24 54//54
f 5//5 18//18 12//12
f 18//18 16//16 19//19
f 38//38 16//16 15//15
f 38//38 15//15 14//14
f 38//38 14//14 20//20
f 51//51 16//16 38//38
f 25//25 32//32 23//23
f 55//55 56//56 57//57
f 8//8 11//11 22//22
f 40//40 53//53 39//39
f 39//39 53//53 1//1
f 36//36 53//53 40//40
f 45//45 36//36 54//54
f 31//31 25//25 27//27
f 25//25 24//24 27//27
f 11//11 12//12 29//29
f 31//31 27//27 26//26
f 11//11 29//29 31//31
f 51//51 32//32 19//19
f 12//12 19//19 32//32
f 6//6 5//5 8//8
f 4//4 18//18 5//5
f 22//22 31//31 26//26
f 51//51 19//19 16//16
f 21//21 46//46 47//47
f 50//50 59//59 58//58
f 62//62 60//60 56//56
f 66//66 67//67 68//68
f 60//60 57//57 56//56
f 70//70 57//57 60//60
f 59//59 50//50 67//67
f 70//70 71//71 57//57
f 59//59 67//67 66//66
f 72//72 4//4 33//33
f 67//67 72//72 68//68
f 68//68 72//72 82//82
f 37//37 7//7 84//84
f 84//84 7//7 81//81
f 82//82 83//83 85//85
f 64//64 86//86 87//87
f 64//64 87//87 65//65
f 91//91 88//88 89//89
f 63//63 64//64 65//65
f 71//71 63//63 93//93
f 94//94 95//95 96//96
f 72//72 67//67 50//50
f 72//72 33//33 82//82
f 52//52 92//92 100//100
f 13//13 50//50 98//98
f 10//10 9//9 47//47
f 47//47 9//9 21//21
f 10//10 81//81 7//7
f 72//72 17//17 4//4
f 4//4 17//17 18//18
f 4//4 6//6 33//33
f 41//41 101//101 80//80
f 80//80 101//101 30//30
f 30//30 101//101 102//102
f 20//20 13//13 98//98
f 40//40 35//35 36//36
f 104//104 46//46 30//30
f 80//80 35//35 40//40
f 80//80 30//30 34//34
f 35//35 80//80 34//34
f 47//47 46//46 105//105
f 102//102 104//104 30//30
f 43//43 44//44 103//103
f 103//103 44//44 99//99
f 58//58 56//56 55//55
f 58//58 55//55 98//98
f 39//39 1//1 28//28
f 109//109 111//111 112//112
f 110//110 113//113 109//109
f 115//115 113//113 114//114
f 106//106 121//121 122//122
f 129//129 130//130 131//131
f 132//132 134//134 133//133
f 136//136 139//139 140//140
f 141//141 97//97 139//139
f 138//138 139//139 136//136
f 111//111 115//115 129//129
f 142//142 143//143 144//144
f 145//145 142//142 144//144
f 115//115 130//130 129//129
f 146//146 131//131 130//130
f 147//147 69//69 146//146
f 78//78 147//147 148//148
f 78//78 126//126 150//150
f 151//151 152//152 153//153
f 153//153 152//152 154//154
f 10//10 47//47 105//105
f 116//116 119//119 127//127
f 127//127 124//124 116//116
f 143//143 137//137 144//144
f 70//70 60//60 157//157
f 135//135 95//95 159//159
f 162//162 163//163 90//90
f 150//150 145//145 158//158
f 74//74 150//150 161//161
f 126//126 145//145 150//150
f 156//156 157//157 60//60
f 125//125 123//123 127//127
f 123//123 124//124 127//127
f 120//120 166//166 167//167
f 119//119 167//167 125//125
f 119//119 120//120 167//167
f 127//127 119//119 125//125
f 126//126 153//153 145//145
f 169//169 124//124 94//94
f 169//169 171//171 172//172
f 175//175 176//176 177//177
f 96//96 173//173 169//169
f 177//177 176//176 174//174
f 143//143 180//180 137//137
f 181//181 180//180 176//176
f 141//141 179//179 178//178
f 155//155 185//185 141//141
f 143//143 187//187 180//180
f 167//167 189//189 122//122
f 189//189 190//190 122//122
f 190//190 77//77 164//164
f 164//164 77//77 191//191
f 195//195 196//196 110//110
f 176//176 196//196 195//195
f 176//176 77//77 192//192
f 172//172 197//197 188//188
f 198//198 192//192 199//199
f 198//198 199//199 120//120
f 197//197 200//200 188//188
f 176//176 200//200 197//197
f 176//176 195//195 76//76
f 174//174 198//198 120//120
f 142//142 187//187 143//143
f 146//146 69//69 131//131
f 177//177 116//116 175//175
f 201//201 148//148 146//146
f 124//124 170//170 116//116
f 97//97 140//140 139//139
f 191//191 193//193 164//164
f 118//118 125//125 122//122
f 148//148 201//201 204//204
f 151//151 204//204 152//152
f 113//113 196//196 114//114
f 176//176 204//204 201//201
f 107//107 193//193 108//108
f 22//22 26//26 21//21
f 25//25 29//29 32//32
f 100//100 205//205 163//163
f 48//48 49//49 102//102
f 48//48 102//102 206//206
f 98//98 50//50 58//58
f 49//49 207//207 102//102
f 102//102 207//207 104//104
f 37//37 83//83 82//82
f 209//209 100//100 163//163
f 42//42 206//206 41//41
f 42//42 103//103 164//164
f 61//61 81//81 10//10
f 72//72 50//50 17//17
f 44//44 52//52 99//99
f 104//104 105//105 46//46
f 37//37 82//82 33//33
f 42//42 43//43 103//103
f 42//42 41//41 28//28
f 28//28 41//41 39//39
f 206//206 101//101 41//41
f 80//80 40//40 41//41
f 211//211 69//69 61//61
f 61//61 105//105 211//211
f 213//213 156//156 60//60
f 144//144 156//156 212//212
f 10//10 105//105 61//61
f 83//83 81//81 210//210
f 74//74 161//161 216//216
f 160//160 86//86 64//64
f 106//106 164//164 103//103
f 112//112 111//111 129//129
f 113//113 115//115 111//111
f 109//109 112//112 108//108
f 165//165 162//162 90//90
f 168//168 162//162 165//165
f 64//64 63//63 70//70
f 71//71 70//70 63//63
f 93//93 63//63 65//65
f 89//89 87//87 86//86
f 104//104 208//208 105//105
f 213//213 59//59 66//66
f 86//86 165//165 91//91
f 99//99 209//209 121//121
f 163//163 73//73 90//90
f 209//209 163//163 117//117
f 172//172 179//179 197//197
f 141//141 178//178 173//173
f 169//169 173//173 171//171
f 172//172 171//171 178//178
f 97//97 141//141 173//173
f 174//174 183//183 198//198
f 174//174 176//176 183//183
f 188//188 200//200 175//175
f 178//178 171//171 173//173
f 175//175 200//200 176//176
f 176//176 198//198 183//183
f 202//202 97//97 96//96
f 96//96 97//97 173//173
f 186//186 146//146 130//130
f 141//141 185//185 179//179
f 176//176 179//179 185//185
f 178//178 179//179 172//172
f 176//176 197//197 179//179
f 94//94 96//96 169//169
f 202//202 96//96 95//95
f 155//155 184//184 185//185
f 218//218 219//219 53//53
f 20//20 220//220 38//38
f 195//195 194//194 76//76
f 76//76 77//77 176//176
f 222//222 98//98 55//55
f 226//226 224//224 93//93
f 43//43 228//228 221//221
f 223//223 219//219 218//218
f 194//194 191//191 76//76
f 195//195 110//110 194//194
f 192//192 198//198 176//176
f 167//167 166//166 189//189
f 76//76 191//191 77//77
f 193//193 191//191 194//194
f 189//189 192//192 77//77
f 199//199 192//192 189//189
f 176//176 185//185 184//184
f 138//138 184//184 155//155
f 155//155 139//139 138//138
f 199//199 189//189 166//166
f 199//199 166//166 120//120
f 174//174 120//120 119//119
f 122//122 125//125 167//167
f 169//169 188//188 170//170
f 169//169 170//170 124//124
f 202//202 140//140 97//97
f 123//123 203//203 94//94
f 172//172 188//188 169//169
f 174//174 119//119 177//177
f 177//177 119//119 116//116
f 188//188 175//175 170//170
f 122//122 190//190 106//106
f 106//106 190//190 164//164
f 176//176 187//187 154//154
f 154//154 187//187 142//142
f 176//176 180//180 187//187
f 176//176 154//154 152//152
f 176//176 152//152 204//204
f 148//148 204//204 151//151
f 132//132 182//182 138//138
f 176//176 184//184 182//182
f 180//180 181//181 137//137
f 182//182 184//184 138//138
f 176//176 182//182 181//181
f 181//181 182//182 132//132
f 181//181 132//132 133//133
f 181//181 133//133 137//137
f 201//201 146//146 186//186
f 196//196 113//113 110//110
f 176//176 114//114 196//196
f 194//194 110//110 193//193
f 164//164 193//193 107//107
f 193//193 110//110 109//109
f 114//114 176//176 229//229
f 115//115 114//114 229//229
f 176//176 201//201 186//186
f 223//223 230//230 221//221
f 227//227 226//226 65//65
f 223//223 231//231 233//233
f 223//223 220//220 231//231
f 232//232 234//234 235//235
f 223//223 233//233 225//225
f 98//98 222//222 236//236
f 234//234 222//222 237//237
f 235//235 237//237 236//236
f 225//225 55//55 57//57
f 231//231 20//20 98//98
f 234//234 237//237 235//235
f 231//231 98//98 233//233
f 233//233 98//98 236//236
f 222//222 234//234 232//232
f 235//235 236//236 222//222
f 38//38 238//238 51//51
f 223//223 240//240 239//239
f 240//240 32//32 239//239
f 223//223 239//239 238//238
f 51//51 239//239 32//32
f 240//240 23//23 32//32
f 51//51 238//238 239//239
f 20//20 231//231 220//220
f 223//223 238//238 220//220
f 223//223 218//218 241//241
f 38//38 220//220 238//238
f 45//45 218//218 53//53
f 235//235 222//222 232//232
f 219//219 2//2 53//53
f 53//53 2//2 1//1
f 223//223 2//2 219//219
f 223//223 225//225 224//224
f 223//223 221//221 228//228
f 223//223 228//228 2//2
f 3//3 2//2 228//228
f 3//3 228//228 43//43
f 224//224 57//57 71//71
f 225//225 57//57 224//224
f 44//44 43//43 221//221
f 100//100 243//243 244//244
f 244//244 205//205 100//100
f 244//244 245//245 205//205
f 205//205 245//245 73//73
f 73//73 245//245 242//242
f 242//242 88//88 73//73
f 249//249 247//247 246//246
f 243//243 100//100 92//92
f 246//246 247//247 251//251
f 242//242 252//252 88//88
f 65//65 226//226 93//93
f 252//252 227//227 89//89
f 71//71 93//93 224//224
f 243//243 92//92 52//52
f 227//227 87//87 89//89
f 227//227 65//65 87//87
f 230//230 243//243 52//52
f 230//230 247//247 221//221
f 248//248 250//250 249//249
f 252//252 89//89 88//88
f 223//223 242//242 245//245
f 223//223 245//245 244//244
f 223//223 244//244 243//243
f 223//223 227//227 252//252
f 45//45 241//241 218//218
f 223//223 224//224 226//226
f 240//240 54//54 23//23
f 54//54 241//241 45//45
f 225//225 237//237 55//55
f 223//223 241//241 240//240
f 237//237 222//222 55//55
f 233//233 236//236 225//225
f 225//225 236//236 237//237
f 223//223 252//252 242//242
f 223//223 243//243 230//230
f 52//52 44//44 250//250
f 251//251 247//247 250//250
f 247//247 230//230 52//52
f 250//250 247//247 52//52
f 54//54 240//240 241//241
f 223//223 226//226 227//227
f 44//44 249//249 250//250
f 221//221 247//247 249//249
f 249//249 246//246 248//248
f 251//251 250//250 248//248
f 249//249 44//44 221//221
f 251//251 248//248 246//246
f 123//123 94//94 124//124
f 94//94 203//203 95//95
f 117//117 163//163 162//162
f 121//121 209//209 117//117
f 161//161 158//158 217//217
f 90//90 73//73 88//88
f 91//91 90//90 88//88
f 86//86 91//91 89//89
f 215//215 216//216 85//85
f 215//215 74//74 216//216
f 215//215 210//210 74//74
f 83//83 210//210 215//215
f 161//161 217//217 216//216
f 157//157 133//133 135//135
f 212//212 217//217 144//144
f 144//144 217//217 158//158
f 75//75 210//210 214//214
f 112//112 149//149 49//49
f 112//112 129//129 149//149
f 131//131 149//149 129//129
f 108//108 112//112 49//49
f 42//42 48//48 206//206
f 108//108 49//49 48//48
f 208//208 207//207 149//149
f 75//75 79//79 78//78
f 75//75 214//214 79//79
f 214//214 69//69 79//79
f 69//69 211//211 131//131
f 211//211 208//208 149//149
f 81//81 214//214 210//210
f 99//99 100//100 209//209
f 100//100 99//99 52//52
f 59//59 62//62 58//58
f 163//163 205//205 73//73
f 206//206 102//102 101//101
f 216//216 217//217 212//212
f 216//216 212//212 66//66
f 85//85 216//216 66//66
f 85//85 66//66 68//68
f 68//68 82//82 85//85
f 215//215 85//85 83//83
f 213//213 60//60 62//62
f 156//156 137//137 157//157
f 62//62 59//59 213//213
f 212//212 156//156 213//213
f 66//66 212//212 213//213
f 61//61 69//69 214//214
f 58//58 62//62 56//56
f 81//81 61//61 214//214
f 84//84 83//83 37//37
f 207//207 208//208 104//104
f 49//49 149//149 207//207
f 208//208 211//211 105//105
f 150//150 158//158 161//161
f 193//193 109//109 108//108
f 107//107 108//108 48//48
f 203//203 162//162 168//168
f 128//128 162//162 203//203
f 140//140 202//202 135//135
f 157//157 135//135 159//159
f 109//109 113//113 111//111
f 115//115 229//229 130//130
f 175//175 116//116 170//170
f 128//128 117//117 162//162
f 176//176 186//186 229//229
f 165//165 160//160 159//159
f 165//165 159//159 168//168
f 186//186 130//130 229//229
f 118//118 122//122 121//121
f 118//118 128//128 125//125
f 123//123 125//125 128//128
f 141//141 139//139 155//155
f 134//134 138//138 136//136
f 138//138 134//134 132//132
f 159//159 95//95 168//168
f 128//128 203//203 123//123
f 95//95 203//203 168//168
f 78//78 148//148 151//151
f 148//148 147//147 146//146
f 151//151 153//153 126//126
f 142//142 153//153 154//154
f 142//142 145//145 153//153
f 78//78 151//151 126//126
f 128//128 118//118 117//117
f 42//42 164//164 107//107
f 84//84 81//81 83//83
f 107//107 48//48 42//42
f 118//118 121//121 117//117
f 99//99 121//121 106//106
f 103//103 99//99 106//106
f 70//70 160//160 64//64
f 160//160 70//70 159//159
f 160//160 165//165 86//86
f 165//165 90//90 91//91
f 157//157 137//137 133//133
f 79//79 69//69 147//147
f 136//136 140//140 135//135
f 134//134 136//136 135//135
f 135//135 133//133 134//134
f 144//144 158//158 145//145
f 157//157 159//159 70//70
f 135//135 202//202 95//95
f 78//78 79//79 147//147
f 75//75 78//78 74//74
f 211//211 149//149 131//131
f 75//75 74//74 210//210
f 144//144 137//137 156//156
f 74//74 78//78 150//150
f 190//190 189//189 77//77
