# Created by Open3D 
# object name: link3
# number of vertices: 252
# number of triangles: 500
v 0.0265538 -0.0356059 -0.110126
vn 0.061631 -0.0797188 -0.99491
v 0.0362603 -0.0256723 -0.110126
vn 0.851093 -0.520074 -0.0718512
v -0.0409885 -0.0167962 -0.0669987
vn -0.90515 -0.412553 0.10249
v -0.0371697 -0.0248276 -0.0796735
vn -0.833262 -0.552813 0.00847724
v -0.0338153 -0.0275975 -0.0635703
vn -0.699819 -0.695318 0.163665
v -0.0159947 -0.0335587 -0.0527994
vn -0.182648 -0.800422 0.570934
v -0.0187311 -0.0366502 -0.0592734
vn -0.389786 -0.836959 0.384145
v -0.0124499 -0.0296166 -0.0471959
vn -0.110386 -0.751064 0.650936
v 0.000454563 -0.0296746 -0.0482951
vn 0.14835 -0.733458 0.663348
v -0.0420951 -0.0143524 -0.110126
vn -0.708794 -0.216856 -0.671256
v -0.0344405 -0.0281278 -0.110125
vn -0.542252 -0.452808 -0.707763
v -0.0116553 -0.0174356 -0.0345168
vn -0.00951067 -0.711978 0.702137
v -0.0203859 -0.0201619 -0.0384997
vn -0.212248 -0.699261 0.682631
v -0.029027 -0.0228023 -0.0465129
vn -0.454071 -0.685559 0.569059
v -0.0320039 -0.0257517 -0.05455
vn -0.665615 -0.652478 0.362256
v -0.0371389 -0.0133147 -0.046907
vn -0.784235 -0.465353 0.410392
v -0.0431776 -0.0081208 -0.0607807
vn -0.982997 -0.175407 0.0543079
v 0.0131805 0.0427523 -0.0774389
vn 0.310648 0.946543 -0.0869182
v 0.000512307 0.0450418 -0.0731896
vn 0.0284068 0.997924 -0.0578004
v -0.0204127 -0.0385786 -0.0665859
vn -0.431737 -0.896522 0.0992552
v -0.0106162 -0.0430957 -0.110126
vn -0.268721 -0.94616 -0.180471
v -0.00842476 -0.0434974 -0.0720197
vn -0.240329 -0.967898 0.073586
v -0.0021853 -0.041631 -0.0633252
vn -0.0292568 -0.870486 0.491323
v -0.028218 -0.0343813 -0.079917
vn -0.583055 -0.812191 0.0198443
v -0.0235002 -0.0377605 -0.110125
vn -0.389521 -0.61998 -0.6811
v -0.00773413 0.0444796 -0.0690293
vn -0.184005 0.972891 -0.140092
v 0.0120945 -0.0396455 -0.063127
vn 0.21908 -0.812909 0.539614
v -0.025693 0.0364187 -0.110126
vn -0.37533 0.593428 -0.712019
v -0.0293706 0.0330972 -0.0592027
vn -0.667072 0.744313 0.0318362
v -0.0147975 0.0427808 -0.063299
vn -0.366719 0.929293 -0.0439492
v -0.00788614 0.0438148 -0.110126
vn -0.12761 0.565054 -0.815126
v -0.0346634 0.0278243 -0.110125
vn -0.47938 0.383327 -0.789465
v 0.049414 -0.00908896 -0.0594472
vn 0.773013 -0.353712 -0.52663
v 0.0434921 -0.0129229 -0.0708105
vn 0.943524 -0.289846 -0.160475
v 0.00662176 0.0439752 -0.110126
vn 0.0865985 0.539495 -0.837523
v 0.0214711 0.0390589 -0.110126
vn 0.299183 0.552937 -0.777657
v 0.0446041 -0.00218493 -0.0826974
vn 0.998908 -0.0331414 -0.0329202
v 0.0450423 0.00522383 -0.0731602
vn 0.966442 0.168894 -0.193557
v 0.028629 0.0346831 -0.0770201
vn 0.627677 0.771841 -0.101402
v 0.0396025 -0.0217121 -0.0622516
vn 0.778707 -0.625546 0.0480357
v 0.0336535 0.0290939 -0.110125
vn 0.555084 0.445234 -0.702601
v 0.0240939 -0.0352251 -0.0652287
vn 0.535354 -0.77007 0.34697
v 0.0505229 -0.0068428 -0.0486834
vn 0.530303 -0.79098 0.305171
v -0.0362258 0.0254752 -0.0625701
vn -0.840149 0.540852 0.0403481
v -0.0439522 0.000619086 -0.0603488
vn -0.996423 0.000116184 0.0845016
v -0.0442541 0.00265779 -0.110126
vn -0.691379 -0.019334 -0.722234
v -0.0417693 0.0152045 -0.110126
vn -0.656144 0.273065 -0.703499
v 0.0225494 -0.0306773 -0.056494
vn 0.322344 -0.698392 0.639017
v 0.0175938 -0.0406545 -0.0716125
vn 0.386232 -0.91836 0.0862567
v 0.00924709 -0.0431784 -0.0707231
vn 0.203417 -0.976227 0.0748519
v 0.060467 -0.013903 0.0020617
vn -0.0012506 0.999997 0.00203521
v 0.02316 -0.0141556 -0.0331938
vn -0.512535 0.690578 -0.510304
v 0.0321433 -0.0141652 -0.0394853
vn -0.341065 0.727724 -0.595056
v 0.0424901 -0.014156 -0.0431222
vn -0.134121 0.729048 -0.671193
v 0.0607441 -0.013903 0.00154108
vn 0.00688774 0.999959 -0.00594126
v 0.060674 -0.0141553 -0.0436289
vn 0.0968192 0.60076 -0.793545
v 0.0745369 -0.0144718 -0.0388409
vn 0.217754 0.880683 -0.42069
v 0.0690693 -0.0139553 -0.000834043
vn 0.0295125 0.999006 -0.033401
v 0.0952206 -0.0141559 0.011831
vn 0.639852 0.748141 0.175708
v 0.0968095 -0.0143147 0.000969797
vn 0.827779 0.560877 0.0141301
v 0.0919105 -0.0143139 -0.0202932
vn 0.552961 0.769902 -0.318566
v 0.0832903 -0.0144709 -0.0321122
vn 0.719911 0.101213 -0.686647
v 0.0956784 -0.0141648 -0.00996604
vn 0.857691 0.464686 -0.220074
v 0.0551255 -0.0141555 0.0441685
vn 0.0280154 0.879234 0.475566
v 0.0129347 -0.0457858 0.020291
vn -0.593469 -0.746159 0.30173
v 0.0144862 -0.0144722 0.0236314
vn -0.849766 0.0541149 0.524375
v 0.0102687 -0.0141556 0.0134599
vn -0.550351 0.820789 0.153031
v 0.0219743 -0.0141643 0.0316767
vn -0.126262 0.982813 0.134673
v 0.0860404 -0.0314139 -0.0292773
vn 0.77467 -0.00862005 -0.632307
v 0.0920449 -0.0456283 -0.02035
vn 0.902674 -0.073823 -0.423945
v 0.0960482 -0.0457853 0.00824089
vn 0.779929 -0.599814 0.178703
v 0.0303078 -0.0144711 0.0388397
vn -0.489466 0.0560119 0.870222
v 0.0336562 -0.0456284 0.0403955
vn -0.413713 -0.0440945 0.909339
v 0.0405608 -0.0144721 0.0429337
vn -0.19538 0.122809 0.973008
v 0.084435 -0.0141554 0.0307702
vn 0.603265 0.590199 0.536411
v 0.0908788 -0.045944 0.0218938
vn 0.630117 -0.682146 0.370984
v 0.0908774 -0.0141558 0.0218957
vn 0.743873 0.560185 0.36448
v 0.0758234 -0.0141555 0.0375576
vn 0.424287 0.647962 0.632555
v 0.0830604 -0.0459348 0.0319642
vn 0.515059 -0.661889 0.544625
v 0.0759081 -0.0457856 0.0376768
vn 0.352123 -0.667692 0.655894
v 0.0659269 -0.0141649 0.0422847
vn 0.264584 0.619423 0.739129
v 0.0641543 -0.0459351 0.0426934
vn 0.192974 -0.67338 0.713667
v 0.055143 -0.0457858 0.0443131
vn -0.00610189 -0.624895 0.780685
v 0.0192695 -0.0310845 0.029793
vn -0.74684 -0.0245215 0.664551
v 0.0962111 -0.0459397 -0.00633783
vn 0.574326 -0.81523 -0.074497
v 0.0254479 -0.0290782 0.0355393
vn -0.654948 -0.265682 0.70743
v 0.0218596 0.0398322 -0.0721573
vn 0.461793 0.804223 -0.374128
v 0.029859 0.0406183 -0.0631746
vn 0.335131 0.758371 -0.55907
v 0.025271 -0.0365554 -0.0724381
vn 0.532029 -0.846421 0.0227348
v 0.000553653 -0.0440298 -0.0698118
vn -0.0195489 -0.999372 0.0295476
v 0.00530763 -0.0441431 -0.110126
vn 0.0614686 -0.988693 -0.136779
v 0.0318002 -0.031321 -0.0770541
vn 0.708329 -0.70527 0.0293829
v 0.0156032 -0.041746 -0.110126
vn 0.375311 -0.92663 -0.0223403
v 0.043373 -0.00837085 -0.110126
vn 0.936306 -0.185413 -0.298249
v 0.082872 -0.0459356 -0.0316768
vn 0.146966 -0.977015 -0.154412
v 0.0113166 -0.00713745 -0.0266974
vn -0.269987 -0.89896 0.344931
v 0.00680568 0.00280317 -0.00727059
vn -0.947443 -0.299108 0.113522
v 0.00185639 0.00013212 -0.0168398
vn -0.0233658 -0.744373 0.667355
v -0.0307229 0.00188616 -0.0279605
vn -0.760341 -0.202055 0.617297
v -0.0308559 0.0105685 -0.026057
vn -0.824328 0.0290054 0.565369
v -0.0288541 -0.00628085 -0.0308318
vn -0.566482 -0.473132 0.674718
v -0.040009 0.00375062 -0.0441671
vn -0.930145 0.0102331 0.367049
v -0.0345749 0.0156234 -0.0343331
vn -0.901412 0.247824 0.355021
v -0.0394432 -0.00498819 -0.0451672
vn -0.886485 -0.222109 0.40597
v 0.0371359 -0.0115673 -0.0453082
vn 0.321954 -0.742331 0.587614
v 0.0436404 -0.0109545 -0.0447705
vn 0.069304 -0.714275 -0.696425
v 0.027249 -0.0127518 -0.0389677
vn -0.137725 -0.983539 -0.116976
v -0.0195923 0.00978223 -0.0149283
vn -0.531418 -0.344388 0.773946
v 0.0194478 -0.011499 -0.0303003
vn -0.713416 -0.54917 -0.435258
v 0.0117922 -0.00688715 -0.0210325
vn -0.922146 -0.272435 -0.274639
v 0.0621468 0.067962 0.0033769
vn 0.0819992 0.989986 -0.114906
v 0.0636325 0.0670661 0.0152126
vn 0.237778 0.934117 0.266245
v 0.0741259 0.0644383 0.00713494
vn 0.445563 0.894841 0.0270817
v 0.0656874 0.0647897 -0.00606877
vn 0.241807 0.915927 -0.320322
v 0.0527174 0.0610705 -0.0210179
vn 0.20142 0.855769 -0.476539
v 0.0457414 0.0637902 -0.0162459
vn 0.0597027 0.933796 -0.35279
v -0.0110699 0.00633899 -0.0130089
vn -0.298825 -0.60167 0.740741
v 0.0133625 -0.0133107 -0.0363193
vn 0.245381 -0.71835 0.650969
v 0.0385425 0.0231804 -0.077264
vn 0.879563 0.469 -0.0800487
v 0.0518191 0.014365 -0.061055
vn 0.679012 0.166639 -0.714964
v 0.0225132 0.0448408 -0.0617128
vn 0.204701 0.874946 -0.438825
v 0.0543859 0.00692433 -0.058802
vn 0.699852 -0.0759633 -0.710237
v -0.0438204 0.00874253 -0.0794388
vn -0.979917 0.198819 0.0152832
v 0.0552473 -0.00447731 -0.0531517
vn 0.639003 -0.763501 0.0934982
v -0.00985307 -0.00119202 -0.0190263
vn -0.141165 -0.657867 0.739786
v 0.0100783 0.0478972 -0.0594412
vn 0.0222856 0.946915 -0.320711
v 0.0286521 0.0607516 -0.0240453
vn -0.0879631 0.95849 -0.271217
v 0.0893506 0.0262 -0.0247868
vn 0.882563 0.0402593 -0.468467
v 0.0826524 0.0179722 -0.035083
vn 0.748385 -0.0243173 -0.662818
v 0.0210238 0.0600524 -0.0214387
vn -0.224067 0.961631 -0.1583
v 0.0425373 0.0669638 -0.0025866
vn -0.10088 0.986619 -0.128084
v 0.0684719 0.00451213 -0.0454113
vn 0.601798 -0.524164 -0.602571
v 0.0761209 -0.000239556 -0.0383142
vn 0.571496 -0.130809 -0.810112
v -0.0253605 -0.0137034 -0.0344308
vn -0.404434 -0.598655 0.691408
v 0.00115264 0.026911 0.0054621
vn -0.652632 -0.213525 0.726965
v 0.0123836 0.0265994 0.0172341
vn -0.836894 -0.00540188 0.547338
v 0.0172915 0.0388701 0.0218276
vn -0.695166 0.0971315 0.712257
v 0.0762055 0.033062 -0.0369621
vn 0.565764 0.370067 -0.736859
v 0.0604506 0.0325328 -0.0476687
vn 0.549931 0.383606 -0.741905
v 0.0765514 0.0445522 -0.0285741
vn 0.471753 0.592132 -0.653321
v 0.0430242 0.0242504 -0.0662062
vn 0.65805 0.430027 -0.6181
v 0.055059 0.046974 -0.0399188
vn 0.43025 0.642734 -0.633859
v 0.0584425 0.0401837 -0.0439756
vn 0.456436 0.547006 -0.701748
v -0.0149397 0.0242454 -0.00798682
vn -0.689598 -0.0429549 0.722917
v 0.0739034 0.012439 -0.0433677
vn 0.658217 -0.116442 -0.743768
v -0.00204616 0.0504387 -0.0377413
vn -0.372704 0.925375 -0.0690942
v -0.0139228 0.043988 -0.0421522
vn -0.535264 0.844267 0.0265737
v -0.0170265 0.0408894 -0.0321762
vn -0.662508 0.734383 0.147527
v 0.00235036 0.0198983 0.00284182
vn -0.542547 -0.35971 0.759112
v 0.0775292 -0.0139476 -0.0367282
vn 0.142962 -0.961994 -0.232657
v -0.0418547 0.0102409 -0.0549328
vn -0.95248 0.280836 0.117957
v -0.0391973 0.0186248 -0.0558462
vn -0.908065 0.404104 0.110082
v 0.0482173 0.0676766 0.0152434
vn -0.0811059 0.992295 0.0936593
v 0.0631194 0.0583818 -0.0209373
vn 0.315062 0.794293 -0.519456
v -0.0316455 0.0239435 -0.0352338
vn -0.842345 0.460223 0.280446
v -0.0266957 0.0318207 -0.0372476
vn -0.773361 0.593572 0.222678
v -0.0216982 0.027243 -0.0174289
vn -0.802057 0.374628 0.465143
v 0.0600564 -0.00478396 -0.0453097
vn 0.315686 -0.329929 -0.889657
v 0.0430008 0.0113223 -0.110125
vn 0.854844 0.225471 -0.467337
v 0.0361602 0.0349751 -0.0645154
vn 0.551665 0.601963 -0.577326
v 0.0554093 -0.0462599 -0.000238334
vn -1.92868e-05 -1 0.000207692
v 0.0441764 -0.0459444 0.0436299
vn -0.0745107 -0.904154 0.420658
v 0.00818261 -0.0141554 -0.000954243
vn -0.673308 0.739263 -0.0121446
v 0.0108896 -0.0141555 -0.0152678
vn -0.65359 0.723872 -0.220974
v 0.0321375 -0.0459446 -0.0394976
vn -0.301891 -0.687965 -0.659974
v 0.0231618 -0.0459443 -0.0331951
vn -0.465576 -0.709734 -0.528693
v 0.0157832 -0.0141556 -0.025082
vn -0.433474 0.850916 -0.29672
v 0.0891877 -0.0315278 -0.0196669
vn -0.981395 -0.0037186 0.191962
v 0.0858844 -0.0333861 -0.018302
vn 0.3501 0.880246 -0.320307
v 0.0857963 -0.0296691 -0.0182656
vn 0.762961 -0.507562 -0.400339
v 0.0798963 -0.0291559 -0.0350771
vn 0.628364 -0.292154 -0.720975
v 0.0250649 -0.0334315 0.03518
vn -0.630789 0.15865 0.759563
v 0.0245807 -0.0459356 0.0341824
vn -0.19058 -0.962818 0.191471
v 0.0797812 -0.0334316 -0.03518
vn 0.641671 0.125038 -0.75672
v 0.0711907 -0.0456288 -0.0403951
vn 0.382644 -0.0718291 -0.9211
v 0.0139688 -0.0459442 -0.0218957
vn -0.651257 -0.644703 -0.400279
v 0.00862869 -0.045944 0.00634268
vn -0.704248 -0.702585 0.10203
v 0.0570515 -0.0457853 -0.0441549
vn 0.0451964 -0.893739 -0.446305
v 0.0424879 -0.0459442 -0.0431212
vn -0.0891533 -0.627515 -0.773484
v 0.00879776 -0.045785 -0.00824078
vn -0.70037 -0.701384 -0.132445
v 0.0189617 -0.0333861 0.018302
vn -0.350078 0.880259 0.320295
v 0.0156584 -0.0315278 0.0196669
vn 0.976685 -0.0520427 -0.208276
v 0.0190497 -0.0296692 0.0182655
vn -0.775511 -0.478821 0.411478
v 0.0779906 0.0549357 -0.0150938
vn 0.473508 0.713658 -0.516219
v 0.0128017 -0.0139486 -0.0205379
vn -0.0208626 -0.999679 -0.0144045
v 0.0465633 -0.0139608 -0.0441384
vn -0.0416305 -0.92569 -0.375985
v 0.0785252 0.0604739 -0.00385725
vn 0.547088 0.800937 -0.243297
v 0.0887053 0.0484274 -0.00747339
vn 0.782878 0.565912 -0.258545
v 0.0844628 0.0450049 -0.0204925
vn 0.694202 0.492116 -0.525267
v 0.0846974 0.0301631 -0.030347
vn 0.741566 0.292477 -0.603769
v 0.0776778 0.022769 -0.0394412
vn 0.627657 0.136835 -0.76637
v 0.0620907 -0.0139516 -0.0432032
vn 0.136631 -0.903374 -0.406506
v 0.00461279 0.0157765 0.00219353
vn -0.525464 -0.564351 0.636706
v 0.00777823 0.0127177 0.0059398
vn -0.960855 -0.0462519 0.273163
v 0.00890307 -0.0139447 -0.00906998
vn -0.588762 -0.800259 -0.113777
v 0.0945132 -0.0139422 0.0143416
vn 0.73041 -0.640477 0.237257
v 0.0885106 -0.0139418 0.0261262
vn 0.681755 -0.589316 0.433494
v 0.0968354 -0.0139434 -0.00097774
vn 0.492261 -0.87034 -0.0137166
v 0.0314247 0.0569539 0.023793
vn -0.481129 0.618278 0.621488
v 0.047491 0.0608631 0.0279897
vn -0.164728 0.658664 0.734184
v 0.091687 0.0361853 -0.01539
vn 0.927671 0.23384 -0.291111
v 0.0751807 0.0598 0.0198106
vn 0.505385 0.74796 0.430281
v 0.0669384 0.0593509 0.0266411
vn 0.358947 0.654265 0.665653
v 0.0523936 -0.0139421 0.0444657
vn -0.00880336 -0.790878 0.61191
v 0.0619054 0.0170255 0.0425433
vn 0.183377 0.054848 0.981511
v 0.0959467 0.0129539 0.00549465
vn 0.989112 0.0449334 0.140138
v 0.0729518 -0.0139425 0.039599
vn 0.258615 -0.852988 0.453353
v 0.0654742 -0.0139427 0.0425977
vn 0.0902819 -0.919972 0.381447
v 0.054812 0.0651826 0.0236385
vn 0.0498737 0.817496 0.573771
v 0.0234019 0.0452973 0.0251955
vn -0.582937 0.331132 0.741981
v 0.0379245 0.0334139 0.0383679
vn -0.397527 0.216395 0.891709
v 0.0375828 0.0505748 0.0318538
vn -0.3581 0.424615 0.831545
v 0.0241154 0.0138481 0.0328921
vn -0.682773 0.0783237 0.726421
v 0.0105004 -0.0139432 0.0152172
vn -0.917553 -0.118303 0.379606
v 0.0815064 -0.0139417 0.0337579
vn 0.359824 -0.8354 0.415492
v 0.0848046 0.010228 0.0295034
vn 0.702755 0.0651805 0.70844
v 0.0302379 0.0283401 0.0354696
vn -0.574009 0.172063 0.800567
v 0.0442582 0.014848 0.0428077
vn -0.15036 0.0693803 0.986194
v 0.0462873 0.0380385 0.0397005
vn -0.183894 0.254018 0.949557
v 0.0920093 0.0219475 0.0170819
vn 0.903969 0.0974359 0.416348
v 0.083958 0.0334637 0.0267823
vn 0.730455 0.178503 0.659221
v 0.0721687 0.0243555 0.0381516
vn 0.531622 0.0933838 0.841818
v 0.0874549 0.04569 0.0154148
vn 0.886715 0.2919 0.358511
v 0.0946445 0.0310539 0.00214823
vn 0.981604 0.166475 0.0934882
v 0.0564692 0.0320027 0.0417095
vn 0.0249955 0.165048 0.985969
v 0.0535927 0.0482886 0.0369321
vn -0.0373049 0.411054 0.910847
v 0.0788055 0.0498132 0.0257333
vn 0.655693 0.415767 0.630241
v 0.0623901 0.0509106 0.034643
vn 0.171769 0.518757 0.837488
v 0.0652368 0.0343232 0.0395634
vn 0.256861 0.223846 0.940168
v 0.0705311 0.0436555 0.0347916
vn 0.513036 0.30844 0.801036
v 0.0922981 0.0419216 -0.00225454
vn 0.948814 0.313779 0.0359686
v 0.0815971 0.057331 0.0132622
vn 0.719016 0.645288 0.258109
v 0.00821586 -0.0139447 0.00492799
vn -0.886745 -0.454738 0.0830484
v 0.0158486 0.0550443 0.010149
vn -0.582443 0.725962 0.365704
v 0.0864623 0.0535174 0.00609709
vn 0.8291 0.555986 0.0589262
v 0.0393554 0.065047 0.0176035
vn -0.306439 0.873795 0.377595
v 0.0252129 0.0608575 0.0118761
vn -0.444539 0.85079 0.280253
v 0.0160904 0.0592686 -0.00523615
vn -0.441108 0.895925 0.0523675
v 0.0332955 0.0653807 0.00337492
vn -0.283876 0.958566 0.0237604
v -0.00692023 0.043058 -0.00822802
vn -0.731283 0.578614 0.361153
v 0.00108177 0.0505199 -0.00693318
vn -0.569562 0.806598 0.158112
v 0.0957523 0.0152505 -0.00835398
vn 0.986472 0.055918 -0.154099
v 0.0170643 -0.0139424 0.0269184
vn -0.804925 -0.0152488 0.593181
v 0.0265301 -0.0139429 0.0363017
vn -0.336097 -0.83373 0.438101
v 0.0320473 0.00759362 0.0391906
vn -0.440987 0.0657067 0.895105
v 0.0368147 -0.0139425 0.0416285
vn -0.169345 -0.810138 0.561248
v -0.000899973 0.0401237 0.00326506
vn -0.723472 0.280853 0.630643
v 0.0936349 -0.0139445 -0.016461
vn 0.512043 -0.835579 -0.199047
v 0.0940492 0.0104675 -0.0159849
vn 0.937635 0.0282104 -0.346475
v 0.0872583 -0.0139458 -0.027762
vn 0.532469 -0.738632 -0.4134
v 0.018359 0.00811057 0.0277875
vn -0.774297 0.061064 0.629869
v 0.0107488 0.0491847 0.0110961
vn -0.649417 0.485665 0.585139
f 5//5 3//3 4//4
f 8//8 6//6 9//9
f 4//4 10//10 11//11
f 8//8 9//9 12//12
f 8//8 12//12 13//13
f 13//13 14//14 8//8
f 8//8 14//14 6//6
f 6//6 15//15 7//7
f 14//14 16//16 15//15
f 16//16 17//17 3//3
f 20//20 21//21 22//22
f 7//7 20//20 23//23
f 23//23 20//20 22//22
f 15//15 3//3 5//5
f 11//11 24//24 4//4
f 1//1 21//21 25//25
f 15//15 5//5 7//7
f 1//1 11//11 10//10
f 16//16 3//3 15//15
f 9//9 23//23 27//27
f 1//1 28//28 31//31
f 29//29 28//28 32//32
f 1//1 35//35 36//36
f 34//34 37//37 38//38
f 39//39 36//36 18//18
f 42//42 40//40 43//43
f 28//28 1//1 32//32
f 32//32 44//44 29//29
f 17//17 45//45 46//46
f 1//1 31//31 35//35
f 26//26 19//19 31//31
f 30//30 26//26 31//31
f 17//17 10//10 3//3
f 1//1 10//10 46//46
f 46//46 47//47 1//1
f 47//47 32//32 1//1
f 19//19 35//35 31//31
f 27//27 48//48 9//9
f 42//42 27//27 49//49
f 27//27 50//50 49//49
f 55//55 56//56 54//54
f 61//61 62//62 57//57
f 63//63 61//61 58//58
f 65//65 66//66 67//67
f 69//69 61//61 70//70
f 59//59 71//71 60//60
f 72//72 73//73 74//74
f 75//75 76//76 77//77
f 78//78 79//79 75//75
f 81//81 80//80 78//78
f 64//64 82//82 81//81
f 66//66 84//84 68//68
f 63//63 70//70 61//61
f 86//86 72//72 68//68
f 27//27 42//42 48//48
f 24//24 11//11 25//25
f 42//42 49//49 89//89
f 20//20 24//24 21//21
f 1//1 25//25 11//11
f 23//23 22//22 90//90
f 23//23 90//90 50//50
f 27//27 23//23 50//50
f 91//91 90//90 21//21
f 1//1 91//91 21//21
f 1//1 2//2 92//92
f 89//89 93//93 1//1
f 89//89 49//49 93//93
f 94//94 2//2 1//1
f 93//93 91//91 1//1
f 50//50 90//90 91//91
f 2//2 34//34 40//40
f 67//67 68//68 51//51
f 96//96 97//97 98//98
f 102//102 100//100 103//103
f 99//99 102//102 104//104
f 105//105 106//106 107//107
f 108//108 99//99 101//101
f 107//107 109//109 96//96
f 111//111 112//112 113//113
f 96//96 110//110 97//97
f 114//114 115//115 116//116
f 101//101 117//117 108//108
f 96//96 118//118 107//107
f 87//87 18//18 121//121
f 120//120 122//122 34//34
f 121//121 88//88 87//87
f 96//96 109//109 110//110
f 33//33 124//124 40//40
f 125//125 12//12 98//98
f 34//34 122//122 33//33
f 116//116 127//127 131//131
f 111//111 116//116 131//131
f 130//130 126//126 26//26
f 134//134 117//117 101//101
f 135//135 136//136 137//137
f 138//138 139//139 140//140
f 141//141 142//142 143//143
f 140//140 139//139 143//143
f 108//108 144//144 99//99
f 26//26 146//146 130//130
f 108//108 117//117 149//149
f 151//151 102//102 103//103
f 151//151 103//103 152//152
f 131//131 153//153 111//111
f 111//111 113//113 114//114
f 130//130 127//127 126//126
f 154//154 115//115 114//114
f 152//152 103//103 155//155
f 155//155 157//157 156//156
f 108//108 149//149 144//144
f 104//104 102//102 45//45
f 158//158 106//106 43//43
f 9//9 48//48 118//118
f 101//101 104//104 16//16
f 107//107 118//118 105//105
f 96//96 98//98 118//118
f 104//104 45//45 17//17
f 98//98 9//9 118//118
f 119//119 41//41 39//39
f 159//159 1//1 41//41
f 119//119 38//38 159//159
f 42//42 43//43 48//48
f 101//101 16//16 134//134
f 13//13 12//12 125//125
f 26//26 126//126 19//19
f 126//126 116//116 121//121
f 160//160 141//141 39//39
f 48//48 43//43 105//105
f 39//39 87//87 160//160
f 39//39 141//141 119//119
f 30//30 28//28 147//147
f 34//34 38//38 120//120
f 134//134 16//16 14//14
f 18//18 87//87 39//39
f 44//44 156//156 29//29
f 123//123 46//46 45//45
f 123//123 151//151 47//47
f 47//47 151//151 152//152
f 47//47 152//152 44//44
f 44//44 152//152 156//156
f 13//13 125//125 134//134
f 74//74 162//162 83//83
f 163//163 51//51 164//164
f 53//53 54//54 165//165
f 52//52 53//53 166//166
f 51//51 52//52 167//167
f 53//53 165//165 166//166
f 51//51 167//167 164//164
f 57//57 56//56 55//55
f 95//95 69//69 70//70
f 61//61 69//69 62//62
f 55//55 58//58 57//57
f 171//171 168//168 170//170
f 172//172 84//84 173//173
f 60//60 71//71 85//85
f 174//174 175//175 57//57
f 163//163 177//177 67//67
f 57//57 171//171 174//174
f 67//67 177//177 65//65
f 161//161 65//65 177//177
f 174//174 69//69 95//95
f 69//69 174//174 168//168
f 168//168 174//174 169//169
f 165//165 54//54 179//179
f 161//161 95//95 85//85
f 68//68 72//72 74//74
f 64//64 51//51 68//68
f 51//51 64//64 81//81
f 54//54 53//53 55//55
f 51//51 55//55 53//53
f 53//53 52//52 51//51
f 67//67 51//51 163//163
f 67//67 66//66 68//68
f 161//161 180//180 176//176
f 60//60 58//58 51//51
f 51//51 59//59 60//60
f 60//60 63//63 58//58
f 62//62 69//69 171//171
f 95//95 70//70 85//85
f 51//51 81//81 78//78
f 74//74 83//83 64//64
f 68//68 74//74 64//64
f 61//61 57//57 58//58
f 75//75 51//51 78//78
f 77//77 51//51 75//75
f 59//59 51//51 77//77
f 161//161 176//176 166//166
f 161//161 165//165 179//179
f 182//182 181//181 183//183
f 73//73 172//172 173//173
f 181//181 172//172 183//183
f 167//167 176//176 164//164
f 183//183 172//172 86//86
f 182//182 172//172 181//181
f 84//84 172//172 182//182
f 60//60 85//85 63//63
f 63//63 85//85 70//70
f 161//161 71//71 76//76
f 161//161 76//76 79//79
f 161//161 79//79 80//80
f 81//81 82//82 80//80
f 84//84 182//182 86//86
f 164//164 180//180 163//163
f 56//56 179//179 54//54
f 57//57 175//175 56//56
f 163//163 180//180 177//177
f 171//171 57//57 62//62
f 161//161 173//173 65//65
f 52//52 166//166 176//176
f 64//64 83//83 82//82
f 77//77 71//71 59//59
f 168//168 171//171 69//69
f 169//169 174//174 170//170
f 170//170 174//174 171//171
f 175//175 174//174 95//95
f 178//178 175//175 95//95
f 161//161 178//178 95//95
f 56//56 175//175 178//178
f 168//168 169//169 170//170
f 56//56 178//178 179//179
f 161//161 166//166 165//165
f 161//161 179//179 178//178
f 164//164 176//176 180//180
f 161//161 177//177 180//180
f 161//161 80//80 82//82
f 78//78 80//80 79//79
f 75//75 79//79 76//76
f 161//161 85//85 71//71
f 77//77 76//76 71//71
f 161//161 82//82 83//83
f 74//74 73//73 162//162
f 68//68 84//84 86//86
f 161//161 83//83 162//162
f 173//173 84//84 65//65
f 72//72 86//86 172//172
f 172//172 73//73 72//72
f 86//86 182//182 183//183
f 162//162 73//73 173//173
f 161//161 162//162 173//173
f 52//52 176//176 167//167
f 84//84 66//66 65//65
f 154//154 142//142 88//88
f 140//140 142//142 184//184
f 185//185 107//107 186//186
f 127//127 130//130 131//131
f 107//107 185//185 109//109
f 187//187 154//154 114//114
f 184//184 188//188 189//189
f 114//114 116//116 111//111
f 122//122 145//145 33//33
f 138//138 189//189 190//190
f 107//107 106//106 186//186
f 30//30 147//147 146//146
f 129//129 133//133 145//145
f 98//98 97//97 193//193
f 185//185 110//110 109//109
f 133//133 150//150 192//192
f 140//140 189//189 138//138
f 191//191 122//122 120//120
f 196//196 197//197 51//51
f 123//123 45//45 151//151
f 114//114 113//113 187//187
f 187//187 184//184 154//154
f 184//184 142//142 154//154
f 185//185 186//186 192//192
f 97//97 110//110 195//195
f 58//58 185//185 198//198
f 188//188 201//201 189//189
f 196//196 198//198 206//206
f 210//210 211//211 212//212
f 136//136 213//213 137//137
f 193//193 136//136 149//149
f 193//193 194//194 136//136
f 215//215 197//197 216//216
f 137//137 217//217 210//210
f 137//137 213//213 217//217
f 211//211 218//218 219//219
f 221//221 222//222 216//216
f 220//220 223//223 221//221
f 224//224 223//223 220//220
f 216//216 197//197 220//220
f 219//219 225//225 226//226
f 221//221 216//216 220//220
f 202//202 203//203 227//227
f 228//228 229//229 230//230
f 224//224 231//231 223//223
f 202//202 227//227 232//232
f 228//228 209//209 200//200
f 233//233 97//97 195//195
f 228//228 203//203 209//209
f 209//209 112//112 153//153
f 224//224 206//206 242//242
f 121//121 18//18 126//126
f 243//243 214//214 244//244
f 213//213 243//243 244//244
f 213//213 244//244 245//245
f 245//245 244//244 246//246
f 197//197 196//196 220//220
f 112//112 203//203 202//202
f 218//218 205//205 225//225
f 198//198 248//248 242//242
f 224//224 242//242 201//201
f 37//37 159//159 38//38
f 47//47 46//46 123//123
f 89//89 92//92 42//42
f 17//17 46//46 10//10
f 104//104 17//17 16//16
f 41//41 36//36 39//39
f 31//31 28//28 30//30
f 32//32 47//47 44//44
f 160//160 87//87 88//88
f 41//41 119//119 159//159
f 1//1 36//36 41//41
f 1//1 159//159 94//94
f 18//18 36//36 35//35
f 185//185 192//192 150//150
f 134//134 14//14 13//13
f 24//24 25//25 21//21
f 94//94 34//34 2//2
f 50//50 91//91 93//93
f 49//49 50//50 93//93
f 92//92 2//2 40//40
f 9//9 6//6 23//23
f 14//14 15//15 6//6
f 7//7 5//5 20//20
f 5//5 4//4 24//24
f 22//22 21//21 90//90
f 92//92 89//89 1//1
f 222//222 229//229 205//205
f 158//158 43//43 132//132
f 144//144 100//100 99//99
f 152//152 155//155 156//156
f 156//156 148//148 29//29
f 45//45 102//102 151//151
f 106//106 105//105 43//43
f 240//240 156//156 157//157
f 103//103 157//157 155//155
f 144//144 149//149 135//135
f 147//147 29//29 148//148
f 38//38 119//119 141//141
f 40//40 34//34 33//33
f 134//134 125//125 117//117
f 98//98 12//12 9//9
f 3//3 10//10 4//4
f 48//48 105//105 118//118
f 92//92 40//40 42//42
f 6//6 7//7 23//23
f 5//5 24//24 20//20
f 94//94 159//159 37//37
f 34//34 94//94 37//37
f 160//160 142//142 141//141
f 160//160 88//88 142//142
f 115//115 88//88 121//121
f 126//126 127//127 116//116
f 18//18 19//19 126//126
f 26//26 30//30 146//146
f 28//28 29//29 147//147
f 99//99 104//104 101//101
f 220//220 196//196 206//206
f 113//113 232//232 187//187
f 238//238 147//147 241//241
f 241//241 147//147 148//148
f 241//241 148//148 240//240
f 240//240 148//148 156//156
f 238//238 130//130 146//146
f 130//130 238//238 239//239
f 238//238 146//146 147//147
f 239//239 131//131 130//130
f 238//238 234//234 237//237
f 135//135 149//149 136//136
f 144//144 135//135 137//137
f 239//239 237//237 236//236
f 144//144 157//157 100//100
f 103//103 100//100 157//157
f 247//247 240//240 157//157
f 234//234 241//241 240//240
f 112//112 111//111 153//153
f 153//153 131//131 239//239
f 201//201 242//242 128//128
f 242//242 249//249 128//128
f 242//242 248//248 249//249
f 248//248 128//128 249//249
f 140//140 143//143 142//142
f 185//185 250//250 248//248
f 214//214 233//233 244//244
f 244//244 185//185 246//246
f 35//35 19//19 18//18
f 248//248 250//250 128//128
f 189//189 201//201 190//190
f 209//209 203//203 112//112
f 128//128 190//190 201//201
f 250//250 129//129 128//128
f 129//129 250//250 133//133
f 250//250 150//150 133//133
f 113//113 112//112 202//202
f 187//187 232//232 235//235
f 187//187 235//235 188//188
f 184//184 187//187 188//188
f 117//117 125//125 98//98
f 153//153 239//239 236//236
f 190//190 128//128 129//129
f 138//138 120//120 139//139
f 132//132 145//145 133//133
f 191//191 120//120 138//138
f 138//138 190//190 191//191
f 190//190 129//129 191//191
f 154//154 88//88 115//115
f 129//129 145//145 191//191
f 191//191 145//145 122//122
f 132//132 124//124 33//33
f 144//144 247//247 157//157
f 140//140 184//184 189//189
f 99//99 100//100 102//102
f 115//115 121//121 116//116
f 141//141 143//143 139//139
f 141//141 139//139 120//120
f 38//38 141//141 120//120
f 144//144 137//137 247//247
f 40//40 124//124 43//43
f 113//113 202//202 232//232
f 193//193 97//97 194//194
f 238//238 241//241 234//234
f 149//149 117//117 193//193
f 239//239 238//238 237//237
f 193//193 117//117 98//98
f 43//43 124//124 132//132
f 33//33 145//145 132//132
f 158//158 132//132 133//133
f 158//158 133//133 192//192
f 158//158 192//192 186//186
f 106//106 158//158 186//186
f 233//233 195//195 244//244
f 212//212 219//219 226//226
f 223//223 227//227 221//221
f 231//231 224//224 201//201
f 212//212 211//211 219//219
f 222//222 207//207 216//216
f 207//207 215//215 216//216
f 222//222 205//205 207//207
f 205//205 208//208 207//207
f 221//221 230//230 222//222
f 188//188 231//231 201//201
f 220//220 206//206 224//224
f 228//228 230//230 203//203
f 227//227 203//203 230//230
f 232//232 227//227 223//223
f 219//219 218//218 225//225
f 235//235 223//223 231//231
f 188//188 235//235 231//231
f 227//227 230//230 221//221
f 232//232 223//223 235//235
f 210//210 217//217 211//211
f 245//245 246//246 218//218
f 218//218 246//246 204//204
f 213//213 251//251 243//243
f 243//243 136//136 214//214
f 217//217 213//213 245//245
f 213//213 136//136 251//251
f 243//243 251//251 136//136
f 217//217 245//245 211//211
f 245//245 218//218 211//211
f 230//230 229//229 222//222
f 200//200 226//226 228//228
f 226//226 225//225 229//229
f 226//226 229//229 228//228
f 205//205 204//204 208//208
f 225//225 205//205 229//229
f 153//153 236//236 209//209
f 218//218 204//204 205//205
f 185//185 55//55 51//51
f 51//51 197//197 215//215
f 58//58 196//196 51//51
f 185//185 195//195 110//110
f 185//185 150//150 250//250
f 185//185 248//248 198//198
f 58//58 198//198 196//196
f 185//185 58//58 55//55
f 195//195 185//185 244//244
f 137//137 210//210 247//247
f 252//252 247//247 210//210
f 200//200 212//212 226//226
f 199//199 234//234 252//252
f 199//199 212//212 200//200
f 252//252 234//234 240//240
f 252//252 240//240 247//247
f 237//237 234//234 199//199
f 198//198 242//242 206//206
f 214//214 136//136 194//194
f 194//194 233//233 214//214
f 97//97 233//233 194//194
f 51//51 215//215 207//207
f 208//208 185//185 207//207
f 204//204 185//185 208//208
f 246//246 185//185 204//204
f 236//236 199//199 200//200
f 236//236 237//237 199//199
f 212//212 199//199 210//210
f 209//209 236//236 200//200
f 252//252 210//210 199//199
f 207//207 185//185 51//51
