# Created by Open3D 
# object name: link2
# number of vertices: 252
# number of triangles: 500
v -0.0261168 -0.150722 -0.0358135
vn -0.122422 -0.973862 -0.191327
v -0.0107854 -0.150722 -0.0430735
vn -0.118853 -0.844527 -0.522158
v 0.0333579 -0.150725 0.0293111
vn 0.14311 -0.986525 0.0793002
v -0.0425997 -0.0919781 0.0660609
vn -0.916273 0.399043 -0.0347555
v -0.0353237 -0.0789528 0.0641943
vn -0.821066 0.570573 -0.0172204
v -0.0414387 -0.0880003 0.0196864
vn -0.948583 0.314948 -0.0315878
v -0.0454372 -0.101331 0.0738931
vn -0.995086 0.0910449 -0.0389104
v -0.036518 -0.0815592 -0.00572795
vn -0.823726 0.562588 -0.0704996
v 0.0238078 -0.142875 0.0395664
vn 0.591569 -0.790793 0.15714
v 0.0131396 -0.147596 0.0436412
vn 0.135135 -0.976468 0.168076
v -0.00388802 -0.147744 0.075434
vn -0.0773197 -0.994739 0.0671938
v -0.0119041 -0.148049 0.0442883
vn -0.251749 -0.955045 0.15656
v -0.024369 -0.133168 0.0954101
vn -0.596549 -0.701974 0.389052
v -0.0320482 -0.130773 0.0824829
vn -0.719053 -0.681729 0.134938
v -0.0373782 -0.118691 0.0947338
vn -0.790055 -0.51239 0.336555
v -0.0412421 -0.117376 0.0830788
vn -0.87997 -0.467903 0.0819764
v 0.0401263 -0.0908111 -0.00781212
vn 0.932608 0.317613 -0.171358
v 0.0428559 -0.0925826 0.0188228
vn 0.956924 0.289706 -0.0191628
v 0.0443776 -0.107671 0.00402372
vn 0.998999 0.0362804 -0.0261608
v -0.00904192 -0.139617 0.0997642
vn -0.267004 -0.822537 0.502137
v -0.0037393 -0.145682 0.0874955
vn -0.0586911 -0.963122 0.262586
v 0.0045262 -0.140193 0.0998387
vn 0.119272 -0.817142 0.563962
v -0.044408 -0.110378 0.00200835
vn -0.998859 0.0168648 -0.0446795
v -0.0441159 -0.108666 0.0865765
vn -0.976869 -0.206293 0.0563061
v 0.0258271 -0.137301 0.0802621
vn 0.639583 -0.756534 0.136341
v 0.0117821 -0.146335 0.0720105
vn 0.32789 -0.93941 0.0999862
v 0.0358167 -0.132491 0.0306979
vn 0.798348 -0.586361 0.137191
v 0.042967 -0.12078 0.0169666
vn 0.96917 -0.216796 0.117085
v 0.0377527 -0.124108 0.0792117
vn 0.860509 -0.500238 0.0963689
v 0.0111799 -0.144071 0.08741
vn 0.324626 -0.907489 0.26661
v 0.0350165 -0.0903155 -0.0214338
vn 0.847637 0.238051 -0.474176
v 0.0286634 -0.0766014 -0.0191037
vn 0.699273 0.632577 -0.332963
v 0.0188721 -0.135357 0.0990554
vn 0.487389 -0.757693 0.433996
v -0.0186651 -0.141576 0.0835149
vn -0.469737 -0.869542 0.152459
v -0.0357762 -0.134274 0.0288161
vn -0.858603 -0.469548 0.205733
v -0.04142 -0.104082 0.100624
vn -0.811269 -0.295581 0.504454
v 0.0350809 -0.0769285 0.0128554
vn 0.811616 0.58294 -0.0382222
v -0.00342247 -0.0594745 0.0659973
vn -0.1179 0.991979 -0.0455739
v -0.0258218 -0.142199 0.0379985
vn -0.613986 -0.767023 0.186269
v 0.0388984 -0.0826616 0.0427591
vn 0.863955 0.503553 0.00412079
v 0.0320347 -0.0743032 0.0538601
vn 0.707491 0.706479 0.0185238
v 0.0376953 -0.0818806 0.0698791
vn 0.882414 0.465656 -0.0671597
v 0.0355372 -0.139163 0.0274543
vn 0.808497 -0.15226 0.568463
v -0.0419278 -0.122322 0.0219584
vn -0.956453 -0.287979 0.0475903
v 0.0221387 -0.150729 0.0385679
vn 0.0753934 -0.991409 0.106884
v -0.0161798 -0.150726 0.0414762
vn -0.00110398 -0.999081 0.0428577
v 0.0356044 -0.106739 -0.0250998
vn 0.833695 0.0638472 -0.548521
v 0.0281295 -0.120647 -0.0341267
vn 0.628384 0.0300857 -0.777321
v 0.0237124 -0.0943414 -0.0352301
vn 0.585104 0.148017 -0.797336
v 0.0429012 -0.11286 -0.00999575
vn 0.955187 0.0666215 -0.288409
v -0.045593 -0.0906438 0.0984729
vn -0.931077 -0.0820042 0.355487
v -0.0427328 -0.0857673 0.079439
vn -0.850395 0.400735 -0.34094
v 0.0450119 -0.105888 0.0793387
vn 0.984385 -0.175786 0.00920173
v -0.0309048 -0.1104 0.108303
vn -0.510273 -0.300665 0.805743
v -0.0311743 -0.119141 0.103793
vn -0.637087 -0.492193 0.593183
v -0.0173215 -0.13156 0.104501
vn -0.408086 -0.558331 0.722311
v -0.0304037 -0.0802256 0.113308
vn -0.345515 -0.0116265 0.938341
v -0.0415015 -0.0675799 0.107516
vn -0.744304 -0.0206314 0.667522
v -0.037658 -0.0925407 0.108054
vn -0.612219 -0.134598 0.779148
v -0.037608 -0.0298628 0.110024
vn -0.547208 0.012443 0.836904
v 0.01172 -0.120657 0.112363
vn 0.196773 -0.262186 0.944743
v 0.0132528 -0.130434 0.107262
vn 0.329076 -0.566617 0.755416
v -0.017366 -0.118821 0.111766
vn -0.287092 -0.329613 0.899407
v 0.0369175 0.0179652 0.108596
vn 0.658021 0.203597 0.724952
v 0.0303058 0.0299821 0.108616
vn 0.678455 0.467506 0.566689
v 0.0446221 0.0105925 0.101496
vn 0.851756 0.13409 0.506489
v 0.047532 -0.0047129 0.0975895
vn 0.986496 0.0043618 0.163726
v 0.0475308 0.00693378 0.0895476
vn 0.979895 0.192168 0.053641
v 0.0485157 0.00261948 0.0591567
vn 0.974691 0.0091514 -0.223368
v -0.0478197 -0.0109945 0.0915748
vn -0.959804 -0.0656426 -0.272887
v -0.0485211 -0.00248123 0.0591559
vn -0.572393 0.000317005 -0.819979
v -0.0470666 -0.00314274 0.100125
vn -0.922483 0.0279234 0.385027
v -0.0463403 0.0122668 0.0913344
vn -0.978496 0.18978 0.0808087
v -0.0439226 0.00901632 0.103142
vn -0.75115 0.132207 0.646757
v 0.0314768 -0.125476 0.0968068
vn 0.695909 -0.609491 0.379777
v 0.044484 -0.101126 0.0517502
vn 0.992266 0.123218 -0.0150051
v 0.0430329 -0.0881844 0.0789315
vn 0.913188 0.278497 -0.297535
v -0.00490982 -0.0765224 -0.0373403
vn -0.124635 0.481547 -0.867513
v 0.0119956 -0.0785862 -0.0363421
vn 0.287802 0.434394 -0.853505
v -0.0120583 -0.085494 -0.0389375
vn -0.26943 0.157394 -0.950071
v -0.0192986 -0.0791902 -0.0331267
vn -0.522859 0.442723 -0.728433
v -0.0320021 -0.0942912 -0.0277517
vn -0.782331 0.175109 -0.597741
v -0.0305165 -0.0815643 -0.0229338
vn -0.774429 0.488146 -0.402459
v -0.0398124 -0.0934237 -0.011914
vn -0.946699 0.227585 -0.227962
v 0.0182941 0.0313792 0.114122
vn 0.242215 0.309829 0.919423
v -0.0285282 -0.0711653 0.0677216
vn -0.676832 0.722419 -0.141456
v -0.0287798 -0.0704075 0.0368382
vn -0.670674 0.741745 -0.00314382
v -0.00242873 -0.06113 -0.00280354
vn -0.0351157 0.998012 -0.0523321
v -6.38701e-06 -0.0639438 -0.0200863
vn 0.0349224 0.970349 -0.23917
v -0.0119445 -0.0643599 -0.0139912
vn -0.358718 0.916988 -0.174511
v -0.0429084 -0.127261 0.0132106
vn -0.962902 -0.0513089 0.26493
v 0.00772991 -0.0612312 0.00782077
vn 0.217897 0.974491 -0.0537429
v 0.0143391 -0.0661129 -0.0183411
vn 0.334137 0.91428 -0.229007
v -0.0426784 -0.0256313 0.0838012
vn -0.880713 -0.422711 -0.213682
v -0.0337884 -0.0610792 0.0811695
vn -0.506427 0.156468 -0.847968
v 0.0186528 -0.0656808 -0.00656819
vn 0.421477 0.902873 -0.0847189
v -0.0280929 -0.0715511 -0.0032609
vn -0.643503 0.754526 -0.128817
v -0.0205368 -0.0653222 0.00941162
vn -0.468427 0.882759 -0.036216
v -0.011783 -0.0620389 0.0100409
vn -0.246036 0.968768 -0.0309183
v 0.00536129 -0.0597025 0.0675767
vn 0.0963215 0.993268 -0.0643464
v 0.0245036 -0.0674771 0.010215
vn 0.568431 0.822397 -0.023434
v 0.0320056 -0.0763265 -0.0095329
vn 0.737296 0.659441 -0.146738
v -0.0223897 -0.0730678 -0.0241171
vn -0.573791 0.748541 -0.33234
v -0.0241409 -0.0945696 -0.0349529
vn -0.528697 0.126427 -0.839343
v -0.0298589 -0.1196 -0.0326734
vn -0.685384 0.034329 -0.727372
v -0.044051 -0.150723 -0.00683895
vn -0.823883 -0.532435 -0.194241
v -0.0399764 -0.110927 -0.0182568
vn -0.916628 0.0446914 -0.397234
v -0.0160099 -0.116008 -0.040908
vn -0.376278 0.0428227 -0.925517
v -0.0362688 -0.150722 -0.0259237
vn -0.684506 -0.5872 -0.432028
v 0.00735116 -0.0676354 -0.0278243
vn 0.205693 0.822343 -0.530511
v -0.00118764 -0.11461 -0.043913
vn -0.0471287 0.0455598 -0.997849
v 0.00688061 -0.150722 -0.0437873
vn 0.10642 -0.797705 -0.593584
v -0.00123543 -0.0699179 -0.0326129
vn 0.000808131 0.761845 -0.647759
v 0.0148125 -0.0625756 0.0636618
vn 0.360541 0.931789 -0.0421763
v -0.0440881 -0.150724 0.00585629
vn -0.955131 -0.262398 0.137379
v -0.0121024 -0.0686157 -0.0269436
vn -0.305312 0.805347 -0.508134
v -0.0143458 -0.0622145 0.066811
vn -0.441208 0.887682 -0.131741
v 0.0232627 -0.0668499 0.0679072
vn 0.598874 0.794053 -0.104068
v 0.0440697 -0.150725 0.00591526
vn 0.790432 -0.589917 0.16497
v -0.027083 -0.150728 0.0352658
vn -0.416408 -0.790512 0.449105
v 0.0414277 -0.150723 -0.0164935
vn 0.91423 0.00917845 -0.405092
v -0.0169769 -0.0581997 0.07626
vn -0.218421 0.476947 -0.85136
v -0.0385593 -0.150725 0.021848
vn -0.878758 -0.175466 0.443842
v -0.00697103 0.0329558 0.115791
vn -0.0735096 0.301393 0.950662
v -0.0118814 0.0403894 0.111317
vn -0.253995 0.6177 0.744267
v 0.00901976 -0.150937 -0.0430533
vn 0.114721 0.700605 -0.704267
v 0.0210615 -0.182723 -0.0389182
vn 0.253116 -0.825683 -0.504163
v 0.00728354 -0.182724 -0.043648
vn 0.0583736 -0.903488 -0.424619
v 0.0271773 -0.150937 -0.0349238
vn 0.364846 0.818204 -0.444332
v 0.0325556 -0.182725 -0.0299706
vn 0.262941 -0.927694 -0.26504
v 0.0373927 -0.168273 -0.0244843
vn 0.855658 0.0519315 -0.514929
v 0.0405224 -0.182726 -0.0177742
vn 0.168303 -0.982596 -0.0786121
v 0.041016 -0.170333 -0.0174192
vn 0.927261 0.165775 -0.335716
v 0.0441003 -0.182724 -0.0036539
vn 0.421446 -0.905941 -0.0406705
v 0.0411561 -0.166366 -0.0170013
vn 0.921909 -0.0384251 -0.385496
v 0.0439496 -0.150936 -0.00182494
vn 0.565947 0.824441 0.00103803
v 0.0405225 -0.150934 -0.0177751
vn 0.190018 0.977046 -0.0963055
v -0.00901765 -0.182724 -0.0430524
vn -0.133402 -0.705119 -0.696428
v -0.0125604 -0.150937 -0.0421565
vn -0.25877 0.644657 -0.719344
v -0.0405224 -0.182726 0.0177745
vn -0.0491102 -0.998566 0.0213299
v -0.0411898 -0.169528 0.0168977
vn -0.967107 -0.0243302 0.253203
v -0.0405281 -0.150938 -0.0177721
vn -0.85416 0.392713 -0.340863
v -0.0441021 -0.182722 -0.00365548
vn -0.997392 -0.0680654 -0.0240101
v -0.0441029 -0.150939 -0.00365875
vn -0.899193 0.43486 -0.0484717
v -0.0405258 -0.182723 -0.0177731
vn -0.814099 -0.337638 -0.472487
v -0.0373596 -0.169596 0.024533
vn -0.834546 0.0294408 0.550151
v -0.0284209 -0.182724 0.0335717
vn -0.63439 -0.107468 0.765506
v -0.0325555 -0.150937 0.0299723
vn -0.643285 0.488315 0.589688
v -0.00728385 -0.150938 0.0436502
vn -0.132838 0.590683 0.795894
v -9.31323e-10 -0.182723 0.0442519
vn 2.09024e-05 -0.488116 0.872779
v 0.00728053 -0.150937 0.04365
vn 0.121506 0.674624 0.728093
v -0.031111 -0.150937 -0.0310977
vn -0.607371 0.513511 -0.60614
v -0.0284215 -0.182724 -0.0335716
vn -0.487238 -0.558668 -0.671185
v 0.0393728 -0.16993 -0.00413065
vn 0.0381556 0.963557 -0.264768
v 0.0405241 -0.150937 0.0177759
vn 0.504885 0.841381 0.192793
v 0.0370452 -0.182723 0.0242053
vn 0.478541 -0.82052 0.312644
v 0.0428969 -0.182724 0.010863
vn 0.550886 -0.825663 0.121675
v 0.0143707 -0.182723 0.0418537
vn 0.246925 -0.649349 0.719287
v -0.0290763 -0.150683 0.00503912
vn -0.0114526 0.999929 0.0032391
v -0.0421614 -0.150936 0.0125398
vn -0.900569 0.375859 0.218417
v -0.0210585 -0.150937 0.0389212
vn -0.432842 0.460036 0.775251
v -0.0284971 -0.150683 0.00467793
vn 0.00159777 0.999995 -0.00265705
v -0.0284833 -0.150683 0.00530872
vn 0.002156 0.99999 0.00403637
v 0.0325576 -0.150937 0.0299711
vn 0.45164 0.789397 0.415781
v 0.0210616 -0.150937 0.0389188
vn 0.318546 0.742962 0.588672
v -0.038797 -0.165911 0.0219349
vn -0.880008 -0.0514163 0.472167
v -0.0388437 -0.166629 0.00413168
vn -0.478838 -0.846493 0.232732
v -0.0403423 -0.169931 0.00413178
vn -0.299634 0.940777 0.158613
v 0.0374719 -0.166541 -0.00413166
vn 0.633306 -0.763934 -0.123807
v -0.0143685 -0.182723 0.0418542
vn -0.329124 -0.281743 0.901276
v 0.0271802 -0.182723 0.0349216
vn 0.401658 -0.756547 0.51605
v 0.00122217 -0.0895667 -0.0416837
vn 0.0438735 0.161737 -0.985858
v 0.041662 -0.0300084 0.084903
vn 0.828574 -0.296375 -0.475002
v 0.0310109 -0.0422993 0.0795891
vn 0.582329 -0.63686 -0.505275
v 0.0461057 -0.0716073 0.101686
vn 0.940619 -0.0266443 0.338417
v 0.0456086 -0.0978839 0.0952562
vn 0.97923 -0.139324 0.147303
v 0.0465652 -0.0809829 0.091427
vn 0.946973 0.0172894 -0.320848
v -0.0466901 -0.0756417 0.0925352
vn -0.95245 0.0126284 -0.304434
v 0.0311907 -0.119118 0.10375
vn 0.553692 -0.447689 0.70214
v 0.0248755 -0.0808137 -0.0295068
vn 0.64265 0.391025 -0.658863
v 0.0166562 -0.0724914 -0.0294698
vn 0.481243 0.704087 -0.522176
v 0.0416321 -0.109904 0.0953657
vn 0.855295 -0.393719 0.336832
v -0.0241429 0.0192651 0.114503
vn -0.253202 0.042997 0.966457
v -0.0306936 0.0301267 0.108013
vn -0.5297 0.392807 0.751745
v -0.0344449 0.0119234 0.110948
vn -0.451611 0.0540209 0.890578
v 0.0352916 -0.0327652 0.0591503
vn 0.0738651 -0.0672062 -0.995001
v 0.03558 -0.0583311 0.0828521
vn 0.53957 0.078422 -0.838281
v 0.0432468 -0.0956985 0.101469
vn 0.739559 -0.208518 0.639979
v -0.00768483 -0.110098 0.115579
vn -0.066461 -0.168262 0.983499
v 0.00761773 -0.0958569 0.117134
vn 0.0939788 -0.0622351 0.993627
v 0.0194811 0.0444989 0.0591561
vn 0.164596 0.468356 -0.868073
v 0.0295943 0.038387 0.0591546
vn 0.517129 0.582077 -0.627506
v -0.022263 -0.0429739 0.0591485
vn -0.260175 -0.474353 -0.84101
v -0.0354502 -0.0330064 0.0591504
vn -0.397655 -0.326188 -0.857596
v 0.0126482 -0.0463629 0.0591478
vn 0.344082 -0.836767 -0.425945
v 0.00287039 0.0482071 0.0591563
vn 0.0198962 0.59111 -0.806345
v 0.0395353 0.0282125 0.0591553
vn 0.48348 0.350672 -0.802045
v -0.0465032 0.0129765 0.0591566
vn -0.388737 0.120653 -0.913415
v -0.038355 0.0296317 0.0591559
vn -0.302358 0.22183 -0.927022
v 0.0465208 -0.01297 0.0591542
vn 0.92532 -0.334818 -0.17799
v -0.0450561 -0.0172532 0.0591537
vn -0.478608 -0.182804 -0.858788
v -0.00795105 -0.0479162 0.0591497
vn -0.0381131 -0.72634 -0.686279
v 0.0456262 0.0162848 0.0591552
vn 0.866567 0.308261 -0.392476
v -0.0284116 0.0393766 0.0591567
vn -0.235651 0.343084 -0.909265
v -0.0140537 0.0463775 0.0591557
vn -0.116661 0.396118 -0.910758
v 0.0132989 0.0163336 0.117467
vn 0.111946 0.0400902 0.992905
v -0.0369551 0.0293017 0.0994314
vn -0.815386 0.504508 0.283932
v -0.00449156 0.0176912 0.118174
vn -0.0974331 0.0233119 0.994969
v 0.00725362 0.0435688 0.1084
vn 0.182782 0.785558 0.591176
v -0.0238878 -0.100899 0.11378
vn -0.302407 -0.134603 0.943627
v 0.0245454 0.0421356 0.0799318
vn 0.463551 0.885871 0.01878
v 0.0122087 0.0468231 0.0903483
vn 0.265193 0.962298 0.0604576
v 0.00246677 0.0479727 0.0972567
vn 0.0239784 0.995595 0.0906447
v 0.024053 0.0413055 0.0969421
vn 0.491825 0.858859 0.143071
v 0.0333178 0.0341719 0.0968141
vn 0.707943 0.69134 0.144451
v 0.0242769 0.0376444 0.107049
vn 0.450926 0.722394 0.524226
v 0.0309138 -0.110382 0.108267
vn 0.500275 -0.24759 0.829713
v 0.032161 -0.0881952 0.111849
vn 0.449927 -0.091442 0.888372
v 0.0414116 -0.0827726 0.106552
vn 0.627618 -0.0469403 0.777105
v 0.0203785 -0.093035 0.115323
vn 0.257107 -0.0739268 0.963551
v -0.00351352 -0.129912 0.109876
vn -0.0498597 -0.486216 0.872415
v 0.043002 0.0198219 0.0957698
vn 0.896344 0.398912 0.193488
v -0.00788419 0.0454457 0.105421
vn -0.20433 0.93 0.305532
v 0.0403122 0.0268872 0.0882581
vn 0.816728 0.576377 0.0273126
v 0.0291907 0.0097341 0.113791
vn 0.317198 0.0372511 0.947627
v 0.018227 -0.0421833 0.116945
vn 0.182551 -0.00765713 0.983167
v 0.0433626 -0.0279115 0.105712
vn 0.741256 0.0133635 0.67109
v -0.00337121 -0.0857243 0.118185
vn -0.035468 -0.0428738 0.998451
v -0.00190977 -0.0475255 0.118471
vn 0.0179777 -0.00267998 0.999835
v -0.0422446 0.0245196 0.0852333
vn -0.878978 0.476092 0.0271056
v -0.0115901 0.0470157 0.0904659
vn -0.159727 0.986701 0.0301324
v -0.00592411 -0.0530653 0.0756287
vn -0.0994251 -0.603131 -0.791421
v 0.030606 -0.0658527 0.077772
vn 0.600205 0.515851 -0.611271
v -0.0307484 -0.0404495 0.0780078
vn -0.618613 -0.659809 -0.42658
v -0.0169427 -0.0802141 0.116933
vn -0.177857 -0.00990468 0.984006
v 0.0350728 -0.0441362 0.111668
vn 0.403269 -0.0105705 0.91502
v 0.0387618 0.00211428 0.109391
vn 0.544876 0.0252673 0.838136
v 0.0256054 -0.150723 -0.0360712
vn 0.283657 -0.821294 -0.494989
v 0.0361404 -0.150723 -0.0261115
vn 0.755611 -0.250333 -0.605298
v 0.0440053 -0.150723 -0.00713681
vn 0.990837 -0.0786451 -0.109808
v -0.0255361 0.0398924 0.101741
vn -0.52022 0.793924 0.314731
v -0.0214101 0.0436745 0.0896726
vn -0.443175 0.895378 0.0435348
v -0.0332171 0.0354678 0.0877395
vn -0.684594 0.728164 0.033282
v -0.047844 -0.0314876 0.0965764
vn -0.962322 -0.0205043 0.271137
v 0.0120275 -0.090642 -0.0402479
vn 0.301973 0.149879 -0.941461
v 0.0138684 -0.0497927 0.0752949
vn 0.265907 -0.712006 -0.649878
v -0.0141308 -0.0482465 0.0724338
vn -0.412353 -0.899858 -0.142196
v 0.0144043 -0.115794 -0.0414929
vn 0.326058 0.0324317 -0.944793
v 0.0127776 -0.0575823 0.0752163
vn 0.244293 0.592646 -0.767523
v -0.0373687 -0.0710085 0.0809767
vn -0.698432 0.196647 -0.68813
v -0.0340363 -0.044795 0.0815887
vn -0.378667 -0.0854378 -0.921581
v 0.0473167 -0.0167143 0.0914722
vn 0.978535 -0.114051 -0.171645
f 1//1 2//2 3//3
f 4//4 5//5 6//6
f 15//15 14//14 13//13
f 15//15 16//16 14//14
f 17//17 18//18 19//19
f 20//20 21//21 22//22
f 7//7 23//23 24//24
f 12//12 10//10 11//11
f 27//27 28//28 29//29
f 26//26 11//11 10//10
f 30//30 33//33 22//22
f 26//26 25//25 30//30
f 34//34 13//13 14//14
f 21//21 34//34 11//11
f 24//24 15//15 36//36
f 24//24 16//16 15//15
f 18//18 17//17 37//37
f 14//14 35//35 39//39
f 40//40 41//41 42//42
f 45//45 43//43 27//27
f 47//47 48//48 49//49
f 47//47 31//31 50//50
f 14//14 39//39 34//34
f 12//12 11//11 34//34
f 23//23 44//44 24//24
f 34//34 39//39 12//12
f 16//16 35//35 14//14
f 16//16 44//44 35//35
f 52//52 4//4 7//7
f 24//24 44//44 16//16
f 30//30 25//25 33//33
f 54//54 55//55 56//56
f 57//57 58//58 59//59
f 31//31 32//32 17//17
f 20//20 34//34 21//21
f 20//20 13//13 34//34
f 20//20 56//56 13//13
f 54//54 56//56 63//63
f 69//69 68//68 67//67
f 72//72 73//73 70//70
f 58//58 60//60 74//74
f 36//36 55//55 54//54
f 53//53 76//76 77//77
f 53//53 28//28 76//76
f 9//9 26//26 10//10
f 25//25 9//9 27//27
f 25//25 75//75 33//33
f 25//25 29//29 75//75
f 28//28 53//53 29//29
f 33//33 75//75 62//62
f 80//80 81//81 78//78
f 82//82 83//83 81//81
f 84//84 8//8 83//83
f 33//33 62//62 22//22
f 25//25 26//26 9//9
f 6//6 84//84 23//23
f 86//86 87//87 5//5
f 88//88 89//89 90//90
f 92//92 93//93 89//89
f 70//70 94//94 95//95
f 98//98 90//90 97//97
f 99//99 90//90 98//98
f 88//88 90//90 99//99
f 97//97 8//8 87//87
f 87//87 8//8 5//5
f 4//4 6//6 7//7
f 8//8 6//6 5//5
f 44//44 91//91 35//35
f 101//101 102//102 96//96
f 4//4 52//52 5//5
f 7//7 6//6 23//23
f 51//51 24//24 36//36
f 97//97 83//83 8//8
f 108//108 105//105 104//104
f 103//103 83//83 97//97
f 106//106 107//107 109//109
f 81//81 83//83 103//103
f 93//93 110//110 89//89
f 79//79 78//78 113//113
f 82//82 105//105 107//107
f 104//104 105//105 82//82
f 87//87 98//98 97//97
f 115//115 23//23 106//106
f 116//116 78//78 81//81
f 117//117 99//99 98//98
f 38//38 99//99 117//117
f 38//38 88//88 99//99
f 87//87 117//117 98//98
f 87//87 86//86 117//117
f 91//91 23//23 115//115
f 9//9 10//10 45//45
f 92//92 89//89 88//88
f 96//96 93//93 92//92
f 3//3 119//119 28//28
f 28//28 27//27 43//43
f 9//9 45//45 27//27
f 10//10 46//46 45//45
f 12//12 46//46 10//10
f 8//8 84//84 6//6
f 50//50 31//31 17//17
f 50//50 121//121 47//47
f 28//28 119//119 19//19
f 3//3 28//28 43//43
f 84//84 107//107 23//23
f 82//82 107//107 84//84
f 117//117 122//122 38//38
f 123//123 91//91 115//115
f 35//35 91//91 123//123
f 120//120 46//46 12//12
f 12//12 39//39 120//120
f 45//45 3//3 43//43
f 35//35 120//120 39//39
f 50//50 17//17 19//19
f 126//126 127//127 128//128
f 129//129 127//127 126//126
f 129//129 130//130 127//127
f 131//131 130//130 129//129
f 134//134 133//133 135//135
f 132//132 133//133 134//134
f 136//136 135//135 137//137
f 132//132 131//131 133//133
f 126//126 128//128 138//138
f 126//126 138//138 139//139
f 135//135 136//136 134//134
f 142//142 143//143 144//144
f 142//142 145//145 143//143
f 146//146 147//147 148//148
f 149//149 150//150 151//151
f 154//154 135//135 133//133
f 155//155 156//156 157//157
f 135//135 129//129 137//137
f 148//148 161//161 159//159
f 160//160 159//159 144//144
f 159//159 161//161 149//149
f 144//144 159//159 142//142
f 142//142 159//159 152//152
f 162//162 152//152 159//159
f 162//162 139//139 152//152
f 163//163 159//159 149//149
f 131//131 129//129 135//135
f 162//162 155//155 136//136
f 162//162 163//163 155//155
f 163//163 149//149 151//151
f 163//163 164//164 155//155
f 163//163 165//165 164//164
f 163//163 151//151 165//165
f 147//147 146//146 140//140
f 140//140 146//146 141//141
f 167//167 146//146 166//166
f 167//167 166//166 141//141
f 141//141 168//168 167//167
f 168//168 146//146 167//167
f 141//141 146//146 168//168
f 133//133 131//131 154//154
f 169//169 131//131 135//135
f 135//135 154//154 169//169
f 154//154 131//131 169//169
f 159//159 160//160 148//148
f 143//143 160//160 144//144
f 148//148 147//147 161//161
f 149//149 170//170 150//150
f 161//161 170//170 149//149
f 139//139 138//138 153//153
f 165//165 158//158 171//171
f 161//161 147//147 170//170
f 166//166 148//148 160//160
f 140//140 141//141 143//143
f 160//160 141//141 166//166
f 148//148 166//166 146//146
f 141//141 160//160 143//143
f 136//136 157//157 134//134
f 155//155 157//157 136//136
f 152//152 145//145 142//142
f 152//152 153//153 145//145
f 151//151 158//158 165//165
f 130//130 131//131 132//132
f 162//162 126//126 139//139
f 164//164 171//171 156//156
f 164//164 156//156 155//155
f 165//165 171//171 164//164
f 151//151 150//150 158//158
f 140//140 158//158 150//150
f 21//21 30//30 22//22
f 21//21 26//26 30//30
f 11//11 26//26 21//21
f 175//175 176//176 177//177
f 61//61 62//62 179//179
f 32//32 180//180 181//181
f 23//23 91//91 44//44
f 18//18 76//76 19//19
f 182//182 29//29 53//53
f 182//182 75//75 29//29
f 83//83 82//82 84//84
f 19//19 76//76 28//28
f 18//18 37//37 40//40
f 183//183 184//184 185//185
f 64//64 65//65 85//85
f 100//100 88//88 38//38
f 173//173 174//174 186//186
f 124//124 184//184 183//183
f 124//124 125//125 184//184
f 7//7 24//24 178//178
f 86//86 5//5 52//52
f 188//188 176//176 175//175
f 60//60 58//58 57//57
f 178//178 24//24 51//51
f 179//179 62//62 75//75
f 140//140 150//150 170//170
f 140//140 134//134 157//157
f 140//140 138//138 128//128
f 140//140 171//171 158//158
f 140//140 156//156 171//171
f 140//140 127//127 130//130
f 140//140 132//132 134//134
f 140//140 130//130 132//132
f 140//140 170//170 147//147
f 140//140 157//157 156//156
f 162//162 129//129 126//126
f 162//162 136//136 137//137
f 162//162 137//137 129//129
f 140//140 128//128 127//127
f 191//191 192//192 186//186
f 186//186 193//193 194//194
f 186//186 196//196 191//191
f 102//102 17//17 32//32
f 192//192 197//197 186//186
f 186//186 198//198 199//199
f 186//186 201//201 71//71
f 198//198 186//186 71//71
f 186//186 69//69 200//200
f 195//195 202//202 186//186
f 140//140 145//145 153//153
f 140//140 153//153 138//138
f 140//140 143//143 145//145
f 197//197 203//203 186//186
f 204//204 205//205 186//186
f 205//205 196//196 186//186
f 186//186 199//199 204//204
f 202//202 193//193 186//186
f 201//201 186//186 194//194
f 186//186 203//203 69//69
f 116//116 81//81 103//103
f 102//102 32//32 96//96
f 113//113 78//78 116//116
f 208//208 206//206 124//124
f 124//124 209//209 125//125
f 54//54 210//210 59//59
f 85//85 209//209 124//124
f 212//212 213//213 209//209
f 214//214 192//192 211//211
f 196//196 213//213 212//212
f 215//215 192//192 214//214
f 63//63 189//189 210//210
f 214//214 216//216 215//215
f 209//209 216//216 214//214
f 61//61 179//179 217//217
f 184//184 74//74 185//185
f 188//188 218//218 217//217
f 188//188 219//219 218//218
f 176//176 182//182 53//53
f 179//179 75//75 182//182
f 188//188 182//182 176//176
f 217//217 182//182 188//188
f 217//217 218//218 220//220
f 61//61 220//220 190//190
f 221//221 62//62 61//61
f 90//90 103//103 97//97
f 90//90 89//89 116//116
f 36//36 59//59 51//51
f 114//114 118//118 101//101
f 217//217 220//220 61//61
f 63//63 210//210 54//54
f 176//176 53//53 177//177
f 61//61 190//190 189//189
f 209//209 85//85 216//216
f 64//64 222//222 65//65
f 66//66 222//222 64//64
f 65//65 215//215 216//216
f 223//223 209//209 213//213
f 224//224 203//203 197//197
f 206//206 229//229 226//226
f 67//67 227//227 175//175
f 221//221 22//22 62//62
f 73//73 207//207 230//230
f 223//223 213//213 231//231
f 66//66 68//68 222//222
f 231//231 213//213 196//196
f 224//224 222//222 203//203
f 217//217 179//179 182//182
f 124//124 206//206 85//85
f 208//208 235//235 229//229
f 183//183 235//235 208//208
f 212//212 214//214 211//211
f 211//211 192//192 191//191
f 225//225 236//236 237//237
f 85//85 65//65 216//216
f 230//230 199//199 198//198
f 183//183 57//57 235//235
f 185//185 57//57 183//183
f 212//212 191//191 196//196
f 209//209 214//214 212//212
f 212//212 211//211 191//191
f 224//224 197//197 192//192
f 215//215 222//222 224//224
f 65//65 222//222 215//215
f 225//225 226//226 236//236
f 237//237 236//236 227//227
f 66//66 67//67 68//68
f 208//208 229//229 206//206
f 220//220 218//218 236//236
f 206//206 226//226 225//225
f 54//54 59//59 36//36
f 2//2 112//112 3//3
f 42//42 76//76 18//18
f 106//106 23//23 107//107
f 120//120 35//35 123//123
f 123//123 115//115 120//120
f 69//69 203//203 68//68
f 238//238 239//239 119//119
f 239//239 240//240 119//119
f 109//109 1//1 46//46
f 46//46 1//1 45//45
f 45//45 1//1 3//3
f 239//239 121//121 240//240
f 235//235 189//189 228//228
f 51//51 59//59 58//58
f 241//241 242//242 243//243
f 228//228 189//189 190//190
f 20//20 221//221 56//56
f 15//15 55//55 36//36
f 13//13 55//55 15//15
f 56//56 55//55 13//13
f 63//63 221//221 189//189
f 46//46 159//159 163//163
f 106//106 162//162 159//159
f 106//106 109//109 162//162
f 115//115 106//106 120//120
f 120//120 106//106 46//46
f 3//3 238//238 119//119
f 112//112 238//238 3//3
f 163//163 162//162 46//46
f 162//162 109//109 46//46
f 46//46 106//106 159//159
f 60//60 57//57 185//185
f 184//184 241//241 207//207
f 242//242 204//204 243//243
f 242//242 205//205 204//204
f 125//125 241//241 184//184
f 223//223 242//242 241//241
f 231//231 242//242 223//223
f 125//125 223//223 241//241
f 207//207 74//74 184//184
f 209//209 223//223 125//125
f 231//231 205//205 242//242
f 235//235 210//210 189//189
f 57//57 59//59 210//210
f 189//189 221//221 61//61
f 57//57 210//210 235//235
f 226//226 220//220 236//236
f 226//226 190//190 220//220
f 229//229 190//190 226//226
f 229//229 228//228 190//190
f 235//235 228//228 229//229
f 178//178 51//51 244//244
f 71//71 73//73 198//198
f 230//230 198//198 73//73
f 207//207 243//243 230//230
f 72//72 58//58 74//74
f 20//20 22//22 221//221
f 56//56 221//221 63//63
f 244//244 72//72 70//70
f 70//70 73//73 71//71
f 243//243 199//199 230//230
f 199//199 243//243 204//204
f 243//243 207//207 241//241
f 208//208 124//124 183//183
f 185//185 74//74 60//60
f 73//73 72//72 74//74
f 207//207 73//73 74//74
f 139//139 153//153 152//152
f 77//77 233//233 187//187
f 77//77 42//42 233//233
f 180//180 79//79 181//181
f 96//96 114//114 101//101
f 92//92 114//114 96//96
f 40//40 37//37 41//41
f 41//41 37//37 101//101
f 40//40 42//42 18//18
f 215//215 224//224 192//192
f 25//25 27//27 29//29
f 49//49 31//31 47//47
f 172//172 79//79 245//245
f 101//101 37//37 102//102
f 77//77 76//76 42//42
f 107//107 105//105 109//109
f 49//49 180//180 31//31
f 49//49 79//79 180//180
f 246//246 232//232 202//202
f 240//240 121//121 50//50
f 240//240 50//50 19//19
f 119//119 240//240 19//19
f 239//239 48//48 47//47
f 178//178 52//52 7//7
f 244//244 70//70 178//178
f 245//245 79//79 49//49
f 111//111 248//248 112//112
f 246//246 202//202 195//195
f 37//37 17//17 102//102
f 239//239 238//238 48//48
f 249//249 100//100 122//122
f 121//121 239//239 47//47
f 32//32 31//31 180//180
f 248//248 238//238 112//112
f 203//203 222//222 68//68
f 232//232 122//122 234//234
f 114//114 92//92 100//100
f 78//78 172//172 80//80
f 108//108 111//111 2//2
f 108//108 2//2 1//1
f 248//248 172//172 245//245
f 181//181 79//79 110//110
f 181//181 93//93 32//32
f 110//110 93//93 181//181
f 248//248 245//245 49//49
f 113//113 89//89 110//110
f 105//105 1//1 109//109
f 90//90 116//116 103//103
f 80//80 104//104 81//81
f 79//79 172//172 78//78
f 81//81 104//104 82//82
f 96//96 32//32 93//93
f 116//116 89//89 113//113
f 122//122 117//117 95//95
f 110//110 79//79 113//113
f 249//249 232//232 246//246
f 114//114 100//100 249//249
f 248//248 49//49 48//48
f 111//111 112//112 2//2
f 111//111 172//172 248//248
f 42//42 41//41 118//118
f 108//108 80//80 111//111
f 108//108 104//104 80//80
f 105//105 108//108 1//1
f 100//100 92//92 88//88
f 111//111 80//80 172//172
f 67//67 177//177 252//252
f 246//246 187//187 249//249
f 249//249 233//233 118//118
f 246//246 174//174 187//187
f 173//173 187//187 174//174
f 252//252 177//177 173//173
f 249//249 187//187 233//233
f 173//173 186//186 200//200
f 69//69 252//252 200//200
f 67//67 252//252 69//69
f 249//249 118//118 114//114
f 64//64 227//227 66//66
f 66//66 227//227 67//67
f 122//122 95//95 251//251
f 117//117 250//250 95//95
f 117//117 86//86 250//250
f 42//42 118//118 233//233
f 227//227 236//236 219//219
f 64//64 237//237 227//227
f 187//187 173//173 177//177
f 250//250 86//86 52//52
f 177//177 53//53 77//77
f 175//175 227//227 219//219
f 219//219 188//188 175//175
f 187//187 177//177 77//77
f 219//219 236//236 218//218
f 231//231 196//196 205//205
f 41//41 101//101 118//118
f 252//252 173//173 200//200
f 247//247 193//193 202//202
f 248//248 48//48 238//238
f 247//247 202//202 232//232
f 247//247 234//234 193//193
f 38//38 122//122 100//100
f 201//201 194//194 94//94
f 70//70 71//71 201//201
f 251//251 94//94 234//234
f 58//58 244//244 51//51
f 72//72 244//244 58//58
f 193//193 234//234 194//194
f 94//94 194//194 234//234
f 94//94 70//70 201//201
f 175//175 177//177 67//67
f 64//64 225//225 237//237
f 85//85 225//225 64//64
f 85//85 206//206 225//225
f 174//174 195//195 186//186
f 174//174 246//246 195//195
f 234//234 247//247 232//232
f 122//122 232//232 249//249
f 250//250 70//70 95//95
f 234//234 122//122 251//251
f 251//251 95//95 94//94
f 178//178 250//250 52//52
f 70//70 250//250 178//178
