# Created by Open3D 
# object name: link6
# number of vertices: 252
# number of triangles: 500
v 0.00274635 -0.0383374 -0.0120069
vn 0.128635 -0.981942 -0.138721
v 0.0148309 -0.0352316 -0.0120069
vn 0.410225 -0.871389 -0.269068
v 0.0342618 -0.0216021 -0.0091943
vn 0.22543 -0.728023 -0.647429
v 0.0374837 -0.0128089 -0.012088
vn -0.5687 -0.131584 -0.811952
v 0.0383418 -0.0278047 -0.00690685
vn -0.705199 -0.439554 -0.556316
v 0.0279477 -0.0260988 -0.0120072
vn 0.572767 -0.615346 -0.54156
v 0.107781 -0.00698177 0.0220385
vn 0.83646 -0.0105012 0.547927
v 0.109224 -0.0233831 0.0185566
vn 0.883643 -0.0961512 0.458181
v 0.113588 -0.00872717 0.00876893
vn 0.973364 -0.0154215 0.228745
v 0.112818 -0.0233831 0.00958603
vn 0.957025 -0.209368 0.200671
v 0.112111 -0.029533 -0.00226466
vn 0.860418 -0.50929 0.0174509
v 0.1064 -0.0337279 0.00941147
vn 0.376155 -0.920752 0.103553
v 0.0837213 -0.0299836 0.0350593
vn 0.15997 -0.482232 0.861314
v 0.0926339 -0.0289593 0.0324924
vn 0.491627 -0.299684 0.817614
v 0.0983758 -0.0320324 0.0259847
vn 0.452827 -0.706002 0.544527
v 0.106922 -0.0305574 0.017275
vn 0.718136 -0.598269 0.355464
v 0.0818069 -0.0342795 -0.0297948
vn 0.0892893 -0.943629 -0.318736
v 0.106965 -0.033728 -0.00566486
vn 0.375252 -0.92357 -0.078771
v 0.0489095 0.0318286 0.0324139
vn 0.0376561 0.922878 0.383247
v 0.0383534 0.0366182 0.00956931
vn -0.954884 0.102683 0.278663
v 0.0359977 0.0350117 0.0118284
vn -0.085624 0.994774 -0.0556222
v 0.054524 0.0362504 0.0324406
vn -0.520305 0.254339 0.815226
v 0.0551575 0.0284447 0.0360307
vn 0.0945566 0.667824 0.738289
v 0.0401347 0.0347084 0.0224696
vn 0.0361504 0.987963 0.150404
v 0.106853 -0.0297583 -0.0182722
vn 0.688735 -0.581689 -0.432762
v 0.0848527 -0.0340591 0.0299533
vn 0.12517 -0.903882 0.409059
v 0.0725707 -0.0351759 0.0271184
vn -0.0264625 -0.981279 0.190767
v 0.0949953 -0.0349155 0.0204561
vn 0.0956012 -0.990015 0.103586
v 0.099521 -0.0346132 -0.0167615
vn 0.227868 -0.959599 -0.165061
v 0.0741772 -0.0311296 0.035145
vn -0.0484665 -0.732765 0.678753
v 0.0230519 0.0322015 0.000187376
vn 0.334823 0.919728 -0.204926
v 0.0219677 0.0315539 -0.0120069
vn 0.535564 0.694461 -0.480515
v 0.0820352 -0.0315712 -0.0341584
vn 0.171231 -0.619684 -0.765945
v 0.0977428 -0.0315817 -0.0269205
vn 0.413087 -0.708709 -0.571919
v 0.0796317 -0.0260874 -0.0372313
vn 0.0805135 -0.244214 -0.966373
v 0.112548 -0.0258844 -0.00826276
vn 0.945678 -0.199595 -0.256624
v 0.0959865 -0.0233831 -0.0324247
vn 0.504581 -0.24807 -0.826958
v 0.0415091 -0.0120811 -0.0182116
vn -0.8342 -0.000520336 -0.551461
v 0.0375294 0.0155126 -0.0117469
vn -0.177844 0.193239 -0.964899
v 0.0313446 0.02451 -0.00689181
vn 0.354665 0.778696 -0.517538
v 0.0148061 0.0359403 0.00511308
vn 0.282416 0.957094 -0.0649076
v 0.0171141 0.0365032 0.0142455
vn 0.101521 0.99072 -0.0903777
v 0.0646398 0.0290023 0.0373128
vn -0.104867 0.129676 0.985995
v 0.0762957 0.00941023 0.0394051
vn 0.115393 0.129626 0.984826
v 0.0576416 -0.035804 0.0140428
vn -0.0253506 -0.998876 0.0400626
v 0.0949661 -0.035913 0.00391301
vn 0.0423218 -0.99906 0.0093814
v 0.0669939 0.0169397 0.0397715
vn 0.203899 0.283966 0.936904
v 0.0942582 -0.0139636 0.0343263
vn 0.45761 -0.0264321 0.88876
v 0.0871926 -0.0233832 0.0364322
vn 0.210932 -0.15139 0.965706
v 0.114816 0.0363756 -0.00218576
vn 0.999968 0.0061449 0.00520025
v 0.114239 -0.0186734 -0.00246061
vn 0.996692 -0.0341653 -0.0737472
v 0.113578 0.0360068 -0.0101164
vn 0.961468 0.00222093 -0.274909
v 0.111908 -0.0104726 -0.0145936
vn 0.937771 -0.0180735 -0.346784
v 0.0759 -0.015721 -0.0388362
vn -0.0491954 -0.0361425 -0.998135
v 0.0826234 -0.00698174 -0.0383097
vn 0.186829 -0.0186509 -0.982215
v 0.0810835 -0.0108747 0.0385823
vn 0.211212 -0.104908 0.971794
v 0.00456504 0.0382186 0.00847494
vn 0.0804489 0.996738 0.00639347
v 0.0623104 0.0224589 0.0387426
vn 0.159459 0.466125 0.87023
v 0.100468 -0.00698176 0.0301411
vn 0.675652 -0.0113442 0.737134
v 0.103491 -0.0233831 0.026336
vn 0.686738 -0.17146 0.706394
v 0.00626743 0.0379235 -0.0120069
vn 0.237939 0.937401 -0.254293
v 0.0839713 0.00748175 0.0380819
vn 0.231542 0.00655128 0.972803
v -0.00439669 0.0380954 -0.0120069
vn -0.0778774 0.996877 -0.0130544
v 0.033952 0.0315306 0.000954706
vn -0.167785 0.895295 -0.412668
v 0.0371839 0.0232842 -0.00961114
vn -0.855283 0.123938 -0.50312
v 0.0661455 -0.0204857 0.038857
vn 0.154986 -0.335846 0.929078
v 0.0563657 -0.035913 -0.00793457
vn -0.0406609 -0.998949 -0.021139
v 0.0660055 -0.0352663 -0.024048
vn -0.0679338 -0.984858 -0.159496
v 0.0870935 -0.0357166 -0.0208761
vn 0.0234551 -0.998483 -0.0498106
v 0.0369138 0.0354476 -0.00149391
vn -0.902447 0.377562 -0.207451
v 0.0385718 0.0362501 -0.0105527
vn -0.968774 0.0226653 -0.246905
v 0.0629552 0.03625 0.0365193
vn -0.329317 0.00541658 0.944204
v 0.0775435 0.03625 0.0386199
vn 0.101292 0.00810514 0.994824
v 0.0851164 0.0360068 -0.0379086
vn 0.296446 0.0250821 -0.95472
v 0.0768555 0.0360068 -0.0390012
vn -0.0512172 0.0211652 -0.998463
v 0.0964879 0.0360068 -0.0328753
vn 0.522355 0.160526 -0.837483
v 0.109499 0.03625 -0.0194752
vn 0.869539 0.0324179 -0.4928
v 0.0903441 0.0361284 0.0360314
vn 0.359541 0.000344861 0.933129
v 0.0427117 0.03625 -0.0201147
vn -0.836209 0.0051455 -0.548387
v 0.0501916 0.0360068 -0.0290469
vn -0.637969 0.0347502 -0.769277
v 0.035556 -0.00400614 -0.0140067
vn 0.103478 -0.0365361 -0.993961
v 0.0248429 -0.0257144 -0.013007
vn 0.213526 -0.248791 -0.944727
v -0.0302966 -0.0190368 -0.0140067
vn -0.331563 -0.240296 -0.912318
v -0.0190365 -0.0302968 -0.0140066
vn -0.0109229 -0.0203758 -0.999733
v -0.035556 -0.00400631 -0.0140067
vn -0.161829 -0.0266121 -0.98646
v -0.0337731 0.0118176 -0.0140067
vn -0.0874215 0.0235994 -0.995892
v -0.0253011 0.0253009 -0.0140066
vn -0.0425483 0.0365217 -0.998427
v -0.00400612 -0.035556 -0.0140067
vn -0.00156365 -0.0161935 -0.999868
v 0.00400614 0.035556 -0.0140068
vn 0.00353424 0.0288984 -0.999576
v -0.0118179 0.0337732 -0.0140065
vn -0.0276444 0.050841 -0.998324
v 0.0118179 -0.0337732 -0.0140065
vn 0.0799148 -0.133913 -0.987766
v 0.0610889 0.0363128 -0.0359412
vn -0.37777 0.00760286 -0.925868
v 0.0685511 0.0360068 -0.0383144
vn -0.157369 0.0101461 -0.987488
v 0.114448 0.0360069 0.00566193
vn 0.988552 0.00964239 0.150574
v 0.101011 0.0361596 0.0295256
vn 0.646572 0.00619309 0.762828
v 0.10869 0.03625 0.0208434
vn 0.821474 0.00174666 0.570243
v 0.0337731 0.0118179 -0.0140066
vn 0.0752218 0.0309524 -0.996686
v 0.0253009 0.0253011 -0.0140067
vn 0.0225723 0.0340793 -0.999164
v 0.0918585 -0.00698178 -0.035472
vn 0.413568 -0.00986343 -0.91042
v 0.0871928 -0.0233831 -0.0364322
vn 0.294542 -0.100991 -0.950287
v 0.10059 -0.00698178 -0.0300558
vn 0.633703 -0.00977476 -0.773514
v 0.109675 -0.0233831 -0.0174306
vn 0.870718 -0.127386 -0.474998
v 0.107236 -0.00698179 -0.0230431
vn 0.812432 -0.0177456 -0.582786
v 0.103491 -0.0233831 -0.0263359
vn 0.72811 -0.139683 -0.671077
v 0.105981 0.0360068 -0.0248423
vn 0.720029 0.0213759 -0.693615
v 0.112418 0.0360068 0.0135793
vn 0.926218 0.0288259 0.375884
v 0.102275 0.0364932 -0.0282173
vn 0.661769 -0.189969 -0.725241
v 0.0828842 0.0364932 -0.0381213
vn 0.198326 -0.08618 -0.97634
v 0.0918506 0.0364932 -0.0351788
vn 0.43944 -0.0340985 -0.897625
v 0.0372819 0.0364931 0.00174016
vn -0.999344 -0.0359011 -0.00473602
v 0.0499898 0.0381622 -0.0290677
vn -0.51334 0.242244 -0.823286
v 0.0417558 0.0364931 0.0183258
vn -0.852269 -0.103046 0.512854
v 0.0719428 0.0364932 0.0385536
vn -0.101579 -0.00852679 0.994791
v 0.0681319 0.0429473 -0.0314207
vn -0.324968 -0.18833 -0.926783
v 0.0519974 0.0451807 -0.0308023
vn -0.5309 -0.231259 -0.815269
v 0.0674305 0.0442934 -0.0356366
vn -0.100058 -0.748699 0.655315
v 0.112537 0.0364932 0.0122145
vn 0.943833 -0.0345293 0.328613
v 0.0472879 0.0364932 0.025946
vn -0.722531 -0.0257862 0.690858
v 0.0542298 0.0647557 0.0324267
vn -0.451871 0.490661 0.745027
v 0.0951263 0.0440046 0.0338507
vn 0.540247 -0.0303037 0.840961
v 0.0843167 0.0438329 0.0353176
vn 0.0676492 -0.651594 -0.755546
v 0.0981957 0.0399873 0.0317418
vn 0.673514 0.418917 0.609005
v 0.083928 0.0398327 0.0329817
vn 0.180837 0.882469 0.434219
v 0.102345 0.0434378 0.0286122
vn 0.625832 -0.0759676 0.776249
v 0.0836211 0.0432715 0.031137
vn 0.291509 -0.503346 0.813428
v 0.0575369 0.0417764 -0.0343762
vn -0.663595 0.189505 -0.723692
v 0.0676514 0.0400196 -0.0343088
vn -0.196103 0.920355 0.338364
v 0.0486744 0.0430438 -0.027925
vn -0.625302 -0.0615687 -0.77795
v 0.0688474 0.0650068 0.0379784
vn -0.189551 0.56506 0.802981
v 0.0854438 0.065258 0.0102181
vn 0.0348551 0.998488 0.0425027
v 0.106967 0.0647559 0.0233402
vn 0.760203 0.462263 0.456512
v 0.113797 0.0647555 0.00917137
vn 0.741325 0.651741 0.16022
v 0.0787421 0.0652593 0.0136871
vn -0.0116223 0.998882 0.045827
v 0.089517 0.0647558 0.0365263
vn 0.266585 0.572932 0.775036
v 0.10136 0.0650069 0.0290862
vn 0.458792 0.643513 0.612699
v 0.113472 0.0650067 -0.00791831
vn 0.811354 0.568267 -0.13703
v 0.0893681 0.06626 -0.00229549
vn 0.0646886 0.997804 0.0142443
v 0.0623105 0.06576 0.000916558
vn -0.0339501 0.998825 0.0345802
v 0.0472878 0.0650068 0.025946
vn -0.439393 0.810513 0.387302
v 0.0758995 0.06726 2.52224e-07
vn -0.0130016 0.999649 -0.0230768
v 0.0488726 0.0647559 -0.0280945
vn -0.508099 0.722927 -0.4682
v 0.0405313 0.0648811 -0.0158274
vn -0.646137 0.710325 -0.279186
v 0.108599 0.0647557 -0.0212511
vn 0.66549 0.612685 -0.426311
v 0.0803125 0.0648817 0.0385371
vn 0.0507297 0.562036 0.825556
v 0.0417557 0.0650067 0.0183259
vn -0.677665 0.664244 0.315515
v 0.0854454 0.0672564 0.010219
vn 0.0825218 0.989717 0.116831
v 0.0973472 0.0650065 -0.032124
vn 0.430762 0.666437 -0.608528
v 0.0859309 0.0650066 -0.0373018
vn 0.207642 0.68026 -0.702945
v 0.0745056 0.0648815 -0.0387621
vn -0.0314095 0.716868 -0.696502
v 0.0373929 0.0650067 -0.0029595
vn -0.750362 0.654536 -0.0924079
v 0.0602924 0.0649442 -0.0351875
vn -0.266381 0.597433 -0.756383
v 0.0374665 0.0647557 0.00658391
vn -0.981947 0.0475746 0.183075
v -0.0114243 -0.010442 0.05973
vn -0.031086 -0.230914 0.972477
v -0.0108756 -0.0158301 0.0561966
vn -0.051761 -0.536228 0.842484
v -0.0192617 -0.00894241 0.0577103
vn -0.206902 -0.266079 0.941485
v -0.000898857 -0.0201563 0.0543846
vn -0.0862864 -0.961103 0.262367
v 0.0131241 0.0158969 0.0524943
vn 0.20305 0.409889 0.889248
v 0.0194772 0.00817014 0.052004
vn 0.239332 0.101554 0.965612
v -0.00168441 0.0203042 0.0547251
vn -0.00334698 0.926591 0.376057
v -0.0145136 -0.00106254 0.060361
vn -0.0190879 0.0536777 0.998376
v 0.00270023 0.00156976 0.0595897
vn 0.164976 -0.00366718 0.986291
v 0.0201526 -0.00450943 0.0519096
vn 0.243589 -0.0373926 0.969158
v 0.0168185 -0.0127406 0.0523392
vn 0.416815 -0.484538 -0.769082
v 0.00745883 -0.0146272 0.0531451
vn 0.202481 -0.28638 0.936476
v -0.0184779 0.00376538 0.0586287
vn -0.194102 0.184064 0.963558
v -0.0119638 0.0158661 0.056572
vn -0.265802 0.0425814 -0.963087
v 0.00590395 -0.0151833 0.0570178
vn 0.169613 -0.239547 0.955954
v -2.68294e-05 0.0156212 0.0580881
vn 0.105345 0.197985 0.974528
v -0.0110426 0.0123072 0.0590053
vn -0.117974 0.297875 0.947287
v 0.00939359 -0.0181047 0.054116
vn 0.424817 -0.600299 0.677622
v 0.0157003 0.00904418 0.0553044
vn 0.394411 0.117044 0.91145
v 0.0101017 0.0151308 0.0559526
vn 0.320969 0.535738 0.781002
v 0.0168414 -0.00678995 0.055104
vn 0.386001 -0.108495 0.916096
v 0.0550535 -0.0306579 0.0326919
vn 0.0852531 -0.864747 0.494919
v 0.0524042 -0.0336036 0.0254379
vn 0.0249556 -0.976111 0.215834
v 0.0407236 -0.0327459 -0.00279687
vn -0.383488 -0.885396 -0.262698
v 0.0489795 -0.0315818 -0.0220869
vn -0.479319 -0.792359 -0.377387
v 0.0669906 -0.0289591 -0.035338
vn -0.242838 -0.457562 -0.855375
v 0.0643621 -0.0331453 -0.0308501
vn -0.185035 -0.84532 -0.501195
v 0.0524724 -0.028959 -0.0279159
vn -0.611008 -0.454376 -0.648237
v 0.0546974 -0.0351671 -0.0177904
vn -0.237338 -0.956632 -0.168895
v -0.0264534 -0.00675486 0.0567545
vn -0.361188 -0.145868 0.921013
v 0.0369809 -0.0339013 0.00484367
vn -0.0909061 -0.984492 -0.150038
v 0.0422958 -0.0348007 0.0117231
vn 0.0507024 -0.998518 0.0197645
v 0.017893 -0.0361231 0.0104214
vn 0.152574 -0.981241 -0.117848
v 0.000899004 -0.0380106 0.0177126
vn 0.0298865 -0.998865 0.0370946
v -0.0313201 -0.0108863 0.0526891
vn -0.80718 -0.272519 0.523636
v -0.0329103 0.00124082 0.0532029
vn -0.732559 -0.0222111 0.680342
v -0.0149737 0.0191958 0.0544093
vn 0.00947074 0.374782 0.927065
v -0.0259099 0.0101258 0.0564517
vn -0.280604 0.201391 0.938458
v 0.0212002 -0.0328553 0.00151106
vn 0.443604 -0.859247 -0.254775
v 0.0310577 -0.0309781 0.000225084
vn -0.117766 -0.824834 -0.552974
v 0.0639142 -0.0233831 -0.0359788
vn -0.291658 -0.121446 -0.948782
v 0.00674815 -0.0365015 0.0297802
vn 0.0679079 -0.990573 0.118967
v -0.00640893 -0.0356964 0.0347946
vn -0.0769533 -0.970555 0.228256
v -0.0104627 -0.0369955 0.0205211
vn -0.195798 -0.979117 0.0547116
v -0.0176994 -0.034894 0.0191473
vn -0.402554 -0.914357 0.0436065
v -0.0278935 -0.0191729 0.0504173
vn -0.592333 -0.531752 0.605295
v -0.0207981 -0.0228366 0.0519022
vn -0.148714 -0.575745 0.803991
v -0.0324275 -0.0189822 0.0410343
vn -0.811726 -0.53687 0.22994
v -0.0246729 -0.0291149 0.0354955
vn -0.576828 -0.799597 0.167074
v 0.00440183 -0.0343305 0.0384993
vn 0.08625 -0.918494 0.385915
v -0.0226113 -0.0276843 0.0449367
vn -0.5498 -0.744107 0.379507
v -0.00773362 -0.0305466 0.0458218
vn -0.0262959 -0.774119 0.632494
v -0.0159354 -0.0321391 0.0403985
vn -0.281784 -0.913514 0.293411
v 0.00669845 -0.0300371 0.044848
vn 0.13249 -0.723652 0.677329
v -0.0241048 -0.0310708 0.0226771
vn -0.613945 -0.789346 -0.00203154
v -0.0297325 -0.0256482 0.0258073
vn -0.796067 -0.605138 0.00928041
v -0.0345552 -0.0176818 0.0284082
vn -0.936609 -0.350179 0.0117783
v -0.0359906 -0.00859283 0.0434795
vn -0.953927 -0.220032 0.203984
v -0.0379799 -0.00622902 0.0299557
vn -0.975893 -0.217555 0.017392
v -0.0384583 3.68861e-08 0.0305824
vn -0.997179 0.0227452 0.0715373
v 0.000636934 -0.0224049 0.0514326
vn 0.144775 -0.496986 0.855596
v 0.0610587 -0.0271848 0.035986
vn 0.132931 -0.582371 0.801981
v -0.0359735 0.00235633 0.0468012
vn -0.958361 0.0389775 0.282888
v -0.0382734 -0.00278853 -0.0120069
vn -0.992456 -0.104681 -0.0638202
v -0.0269777 -0.0272725 -0.0120069
vn -0.737778 -0.672397 -0.0597187
v -0.034387 -0.0167084 -0.0120069
vn -0.89127 -0.439159 -0.113038
v -0.0357521 0.0150568 0.0290274
vn -0.926809 0.375357 0.0115194
v -0.0328097 0.0195551 -0.0120069
vn -0.820734 0.562008 -0.102677
v -0.0368287 0.0112451 -0.0120069
vn -0.964879 0.245228 -0.0941899
v -0.0379244 0.00660677 0.0299423
vn -0.988955 0.147667 0.0127188
v -0.0292399 0.0216552 0.0452211
vn -0.736232 0.605882 0.301448
v -0.0348097 0.0132624 0.0426841
vn -0.924449 0.321494 0.205028
v -0.031624 0.00902579 0.053012
vn -0.731239 0.266875 0.627748
v -0.0261399 0.0179353 0.052828
vn -0.428871 0.513422 0.743281
v 0.005581 0.0284603 0.0467375
vn 0.148774 0.636296 0.756963
v 0.00035436 0.03541 0.0362105
vn 0.0513916 0.961575 0.269688
v -0.0124693 0.0362922 -0.0120069
vn -0.33115 0.930453 -0.156831
v 0.000631046 0.0226317 0.0514867
vn 0.157294 0.464263 0.871618
v -0.0231296 0.0299834 0.0366082
vn -0.537022 0.823605 0.182433
v -0.0205302 0.0263012 0.0484309
vn -0.336328 0.732505 0.591878
v -0.00944851 0.0289513 0.0478375
vn -0.0152439 0.756956 0.653288
v -0.00569429 -0.0380164 -0.0120069
vn -0.132541 -0.983936 -0.119593
v -0.0132924 -0.0360596 -0.0120069
vn -0.323093 -0.945901 -0.0296994
v -0.0203336 -0.0326026 -0.0120069
vn -0.537973 -0.819401 -0.197906
v 0.00129063 0.0375795 0.0231827
vn 0.022314 0.996378 0.0820543
v -0.0225905 0.0307415 -0.012007
vn -0.625568 0.768834 -0.132513
v -0.0319905 0.0225673 0.0270503
vn -0.849723 0.525113 0.0471967
v -0.0156323 0.0322229 0.040525
vn -0.248133 0.914712 0.318956
v -0.0175909 0.0349441 0.0190881
vn -0.40911 0.911773 0.0360395
v 0.0356874 0.00259061 -0.0120074
vn 0.406183 0.0532519 -0.912239
v 0.0525384 -0.0233831 -0.0301115
vn -0.575722 -0.132995 -0.806757
v 0.0479256 -0.00698178 -0.0269805
vn -0.727042 -0.0106397 -0.68651
v 0.067584 -0.00698177 -0.0379653
vn -0.270058 -0.0173368 -0.962688
v 0.0569604 -0.00698178 -0.0338841
vn -0.497248 -0.0135923 -0.867502
v 0.0446653 -0.0233832 -0.0218372
vn -0.803884 -0.192137 -0.562898
v -0.0283098 0.0273581 0.0250181
vn -0.729776 0.683658 0.00620352
v -0.00909925 0.0355923 0.0339795
vn -0.167673 0.970886 0.171075
v 0.00934105 0.0329524 0.0403745
vn 0.101455 0.843603 0.527297
v -0.0098924 0.0372506 0.0190721
vn -0.162423 0.986214 0.0316302
v -0.0236094 0.0313394 0.0158872
vn -0.575319 0.817904 0.00637345
f 9//9 8//8 10//10
f 14//14 13//13 15//15
f 16//16 12//12 11//11
f 20//20 21//21 22//22
f 4//4 5//5 3//3
f 22//22 19//19 23//23
f 22//22 21//21 24//24
f 19//19 22//22 24//24
f 3//3 6//6 4//4
f 11//11 18//18 25//25
f 26//26 30//30 27//27
f 26//26 27//27 28//28
f 30//30 26//26 13//13
f 34//34 17//17 33//33
f 13//13 26//26 15//15
f 15//15 26//26 28//28
f 15//15 28//28 16//16
f 10//10 16//16 11//11
f 36//36 11//11 25//25
f 25//25 34//34 37//37
f 37//37 34//34 33//33
f 37//37 33//33 35//35
f 16//16 28//28 12//12
f 47//47 44//44 43//43
f 50//50 51//51 52//52
f 52//52 51//51 53//53
f 56//56 49//49 48//48
f 57//57 42//42 41//41
f 58//58 47//47 43//43
f 59//59 48//48 60//60
f 59//59 60//60 7//7
f 7//7 60//60 8//8
f 51//51 50//50 9//9
f 41//41 61//61 57//57
f 23//23 43//43 22//22
f 61//61 63//63 57//57
f 31//31 61//61 41//41
f 64//64 31//31 42//42
f 7//7 8//8 9//9
f 38//38 39//39 65//65
f 43//43 23//23 58//58
f 56//56 66//66 49//49
f 48//48 62//62 56//56
f 67//67 68//68 69//69
f 67//67 69//69 46//46
f 39//39 40//40 65//65
f 39//39 38//38 4//4
f 71//71 70//70 20//20
f 64//64 20//20 70//70
f 74//74 75//75 76//76
f 81//81 6//6 82//82
f 84//84 83//83 85//85
f 85//85 86//86 84//84
f 84//84 86//86 87//87
f 89//89 88//88 84//84
f 89//89 84//84 90//90
f 81//81 82//82 91//91
f 92//92 75//75 93//93
f 88//88 98//98 97//97
f 88//88 89//89 98//98
f 64//64 70//70 65//65
f 99//99 37//37 100//100
f 101//101 37//37 99//99
f 9//9 10//10 51//51
f 51//51 36//36 53//53
f 53//53 36//36 102//102
f 53//53 102//102 103//103
f 103//103 102//102 104//104
f 103//103 104//104 101//101
f 101//101 104//104 37//37
f 8//8 60//60 16//16
f 11//11 12//12 18//18
f 25//25 18//18 29//29
f 25//25 29//29 34//34
f 34//34 29//29 17//17
f 99//99 100//100 55//55
f 55//55 100//100 35//35
f 55//55 35//35 54//54
f 66//66 13//13 49//49
f 49//49 13//13 14//14
f 49//49 14//14 48//48
f 48//48 14//14 60//60
f 102//102 25//25 104//104
f 104//104 25//25 37//37
f 32//32 31//31 40//40
f 76//76 75//75 77//77
f 76//76 77//77 105//105
f 80//80 79//79 92//92
f 96//96 106//106 50//50
f 50//50 106//106 94//94
f 102//102 36//36 25//25
f 66//66 30//30 13//13
f 14//14 15//15 60//60
f 60//60 15//15 16//16
f 8//8 16//16 10//10
f 51//51 10//10 11//11
f 51//51 11//11 36//36
f 100//100 37//37 35//35
f 21//21 64//64 42//42
f 77//77 75//75 107//107
f 108//108 109//109 107//107
f 110//110 71//71 20//20
f 92//92 79//79 111//111
f 73//73 113//113 72//72
f 108//108 107//107 75//75
f 114//114 115//115 116//116
f 50//50 117//117 96//96
f 118//118 112//112 22//22
f 121//121 120//120 122//122
f 124//124 125//125 123//123
f 124//124 121//121 125//125
f 120//120 121//121 124//124
f 116//116 126//126 127//127
f 111//111 128//128 114//114
f 127//127 111//111 114//114
f 114//114 128//128 115//115
f 119//119 72//72 129//129
f 116//116 115//115 126//126
f 124//124 122//122 96//96
f 79//79 128//128 111//111
f 126//126 92//92 111//111
f 129//129 72//72 113//113
f 126//126 111//111 127//127
f 112//112 20//20 22//22
f 130//130 131//131 132//132
f 133//133 134//134 130//130
f 130//130 135//135 131//131
f 132//132 136//136 137//137
f 138//138 139//139 133//133
f 133//133 139//139 119//119
f 140//140 141//141 142//142
f 140//140 142//142 138//138
f 137//137 143//143 140//140
f 133//133 144//144 134//134
f 138//138 145//145 139//139
f 130//130 132//132 137//137
f 130//130 146//146 133//133
f 77//77 107//107 143//143
f 147//147 143//143 107//107
f 147//147 107//107 109//109
f 148//148 147//147 109//109
f 148//148 109//109 108//108
f 108//108 149//149 148//148
f 75//75 149//149 108//108
f 135//135 124//124 131//131
f 135//135 120//120 124//124
f 134//134 120//120 135//135
f 130//130 137//137 146//146
f 138//138 133//133 140//140
f 133//133 129//129 144//144
f 138//138 142//142 150//150
f 138//138 150//150 145//145
f 140//140 149//149 151//151
f 140//140 148//148 149//149
f 143//143 147//147 140//140
f 140//140 147//147 148//148
f 123//123 125//125 121//121
f 114//114 116//116 127//127
f 119//119 129//129 133//133
f 137//137 136//136 143//143
f 130//130 134//134 135//135
f 133//133 146//146 140//140
f 122//122 95//95 96//96
f 113//113 144//144 129//129
f 123//123 122//122 124//124
f 119//119 22//22 72//72
f 151//151 149//149 75//75
f 151//151 75//75 92//92
f 126//126 151//151 92//92
f 79//79 141//141 128//128
f 142//142 141//141 79//79
f 71//71 142//142 79//79
f 71//71 150//150 142//142
f 110//110 150//150 71//71
f 110//110 152//152 150//150
f 20//20 152//152 110//110
f 20//20 145//145 152//152
f 112//112 145//145 20//20
f 112//112 139//139 145//145
f 118//118 139//139 112//112
f 139//139 118//118 119//119
f 119//119 118//118 22//22
f 140//140 151//151 141//141
f 146//146 137//137 140//140
f 122//122 78//78 95//95
f 134//134 78//78 120//120
f 52//52 77//77 143//143
f 52//52 143//143 136//136
f 124//124 96//96 131//131
f 144//144 73//73 134//134
f 134//134 73//73 78//78
f 120//120 78//78 122//122
f 50//50 52//52 136//136
f 96//96 117//117 131//131
f 117//117 132//132 131//131
f 117//117 50//50 132//132
f 50//50 136//136 132//132
f 73//73 144//144 113//113
f 151//151 115//115 141//141
f 153//153 155//155 154//154
f 162//162 163//163 164//164
f 166//166 159//159 157//157
f 153//153 154//154 156//156
f 153//153 156//156 167//167
f 154//154 164//164 156//156
f 158//158 171//171 162//162
f 164//164 163//163 156//156
f 166//166 157//157 165//165
f 160//160 153//153 161//161
f 172//172 168//168 171//171
f 42//42 31//31 41//41
f 173//173 161//161 167//167
f 172//172 159//159 168//168
f 171//171 173//173 162//162
f 161//161 153//153 167//167
f 169//169 160//160 168//168
f 171//171 158//158 157//157
f 161//161 173//173 171//171
f 151//151 126//126 115//115
f 121//121 122//122 123//123
f 150//150 152//152 145//145
f 161//161 171//171 168//168
f 170//170 156//156 163//163
f 141//141 115//115 128//128
f 165//165 160//160 169//169
f 173//173 163//163 162//162
f 166//166 169//169 159//159
f 159//159 169//169 168//168
f 172//172 157//157 159//159
f 170//170 163//163 173//173
f 161//161 168//168 160//160
f 167//167 156//156 170//170
f 167//167 170//170 173//173
f 157//157 172//172 171//171
f 165//165 169//169 166//166
f 165//165 155//155 153//153
f 160//160 165//165 153//153
f 174//174 175//175 30//30
f 178//178 179//179 180//180
f 180//180 179//179 177//177
f 33//33 17//17 179//179
f 183//183 184//184 185//185
f 5//5 177//177 176//176
f 187//187 182//182 188//188
f 165//165 157//157 189//189
f 182//182 165//165 190//190
f 179//179 17//17 68//68
f 179//179 68//68 177//177
f 177//177 68//68 181//181
f 177//177 181//181 176//176
f 175//175 27//27 30//30
f 185//185 186//186 1//1
f 184//184 186//186 185//185
f 185//185 191//191 192//192
f 178//178 33//33 179//179
f 45//45 184//184 183//183
f 45//45 183//183 67//67
f 54//54 35//35 193//193
f 185//185 192//192 183//183
f 27//27 175//175 45//45
f 183//183 192//192 176//176
f 181//181 68//68 67//67
f 185//185 2//2 191//191
f 67//67 183//183 176//176
f 1//1 2//2 185//185
f 194//194 195//195 186//186
f 186//186 195//195 196//196
f 203//203 198//198 200//200
f 200//200 201//201 203//203
f 199//199 198//198 203//203
f 195//195 204//204 205//205
f 207//207 201//201 208//208
f 208//208 201//201 200//200
f 208//208 200//200 209//209
f 209//209 200//200 210//210
f 209//209 210//210 211//211
f 211//211 210//210 212//212
f 196//196 205//205 197//197
f 194//194 202//202 195//195
f 175//175 174//174 202//202
f 202//202 174//174 206//206
f 202//202 206//206 204//204
f 202//202 204//204 195//195
f 35//35 33//33 178//178
f 199//199 204//204 213//213
f 206//206 214//214 213//213
f 154//154 199//199 213//213
f 187//187 188//188 215//215
f 212//212 216//216 211//211
f 155//155 199//199 154//154
f 199//199 155//155 182//182
f 199//199 182//182 198//198
f 198//198 182//182 187//187
f 198//198 187//187 200//200
f 200//200 187//187 210//210
f 187//187 215//215 210//210
f 208//208 218//218 217//217
f 209//209 218//218 208//208
f 203//203 201//201 205//205
f 203//203 205//205 199//199
f 199//199 205//205 204//204
f 211//211 216//216 209//209
f 209//209 216//216 218//218
f 213//213 204//204 206//206
f 47//47 157//157 158//158
f 219//219 220//220 221//221
f 219//219 221//221 222//222
f 223//223 225//225 226//226
f 227//227 58//58 23//23
f 228//228 19//19 24//24
f 47//47 230//230 157//157
f 225//225 190//190 226//226
f 226//226 190//190 189//189
f 231//231 223//223 232//232
f 233//233 232//232 189//189
f 233//233 189//189 230//230
f 234//234 235//235 236//236
f 221//221 216//216 222//222
f 222//222 216//216 212//212
f 237//237 42//42 57//57
f 24//24 42//42 237//237
f 21//21 42//42 24//24
f 229//229 63//63 61//61
f 6//6 2//2 82//82
f 82//82 2//2 1//1
f 240//240 241//241 231//231
f 242//242 4//4 6//6
f 39//39 4//4 242//242
f 32//32 39//39 242//242
f 218//218 236//236 217//217
f 215//215 224//224 212//212
f 180//180 177//177 5//5
f 243//243 178//178 180//180
f 193//193 178//178 243//243
f 245//245 193//193 246//246
f 246//246 193//193 243//243
f 246//246 243//243 244//244
f 244//244 243//243 247//247
f 244//244 247//247 38//38
f 38//38 247//247 4//4
f 245//245 54//54 193//193
f 12//12 28//28 46//46
f 12//12 46//46 18//18
f 18//18 46//46 29//29
f 29//29 69//69 17//17
f 17//17 69//69 68//68
f 27//27 45//45 28//28
f 28//28 45//45 46//46
f 29//29 46//46 69//69
f 5//5 4//4 247//247
f 67//67 176//176 181//181
f 243//243 180//180 247//247
f 247//247 180//180 5//5
f 193//193 35//35 178//178
f 62//62 44//44 158//158
f 158//158 44//44 47//47
f 47//47 58//58 230//230
f 230//230 58//58 227//227
f 158//158 162//162 62//62
f 248//248 238//238 220//220
f 248//248 220//220 239//239
f 231//231 248//248 223//223
f 239//239 220//220 219//219
f 230//230 227//227 233//233
f 232//232 233//233 240//240
f 232//232 240//240 231//231
f 248//248 239//239 223//223
f 232//232 223//223 226//226
f 232//232 226//226 189//189
f 157//157 230//230 189//189
f 194//194 175//175 202//202
f 89//89 61//61 98//98
f 80//80 246//246 244//244
f 79//79 38//38 65//65
f 79//79 65//65 71//71
f 80//80 244//244 79//79
f 79//79 244//244 38//38
f 246//246 92//92 245//245
f 245//245 92//92 93//93
f 55//55 54//54 75//75
f 75//75 54//54 93//93
f 93//93 54//54 245//245
f 76//76 99//99 74//74
f 74//74 99//99 55//55
f 74//74 55//55 75//75
f 71//71 65//65 70//70
f 92//92 246//246 80//80
f 192//192 5//5 176//176
f 31//31 32//32 61//61
f 31//31 64//64 40//40
f 40//40 39//39 32//32
f 192//192 191//191 3//3
f 220//220 90//90 87//87
f 238//238 229//229 90//90
f 90//90 229//229 89//89
f 3//3 5//5 192//192
f 2//2 6//6 191//191
f 61//61 89//89 229//229
f 48//48 95//95 78//78
f 101//101 76//76 105//105
f 101//101 105//105 103//103
f 77//77 103//103 105//105
f 52//52 53//53 77//77
f 77//77 53//53 103//103
f 50//50 94//94 9//9
f 9//9 94//94 106//106
f 9//9 106//106 7//7
f 7//7 106//106 96//96
f 64//64 21//21 20//20
f 62//62 78//78 73//73
f 73//73 44//44 62//62
f 43//43 73//73 72//72
f 44//44 73//73 43//43
f 72//72 22//22 43//43
f 78//78 62//62 48//48
f 99//99 76//76 101//101
f 59//59 95//95 48//48
f 46//46 45//45 67//67
f 64//64 65//65 40//40
f 97//97 81//81 88//88
f 88//88 81//81 91//91
f 84//84 87//87 90//90
f 7//7 96//96 95//95
f 98//98 61//61 32//32
f 242//242 97//97 32//32
f 32//32 97//97 98//98
f 97//97 242//242 81//81
f 81//81 242//242 6//6
f 1//1 88//88 91//91
f 91//91 82//82 1//1
f 238//238 90//90 220//220
f 191//191 6//6 3//3
f 87//87 221//221 220//220
f 88//88 1//1 234//234
f 88//88 234//234 84//84
f 84//84 234//234 236//236
f 84//84 236//236 83//83
f 218//218 83//83 236//236
f 83//83 218//218 85//85
f 216//216 85//85 218//218
f 216//216 86//86 85//85
f 86//86 216//216 221//221
f 86//86 221//221 87//87
f 7//7 95//95 59//59
f 240//240 228//228 249//249
f 23//23 19//19 250//250
f 228//228 24//24 237//237
f 228//228 237//237 249//249
f 249//249 237//237 251//251
f 251//251 237//237 63//63
f 229//229 238//238 241//241
f 231//231 252//252 248//248
f 229//229 241//241 251//251
f 241//241 240//240 249//249
f 63//63 237//237 57//57
f 241//241 238//238 252//252
f 223//223 224//224 225//225
f 225//225 224//224 215//215
f 252//252 238//238 248//248
f 225//225 215//215 188//188
f 165//165 189//189 190//190
f 190//190 225//225 182//182
f 182//182 225//225 188//188
f 223//223 239//239 224//224
f 250//250 19//19 228//228
f 196//196 195//195 205//205
f 207//207 236//236 197//197
f 197//197 236//236 235//235
f 235//235 234//234 196//196
f 207//207 217//217 236//236
f 196//196 234//234 186//186
f 186//186 234//234 1//1
f 194//194 184//184 175//175
f 197//197 235//235 196//196
f 241//241 249//249 251//251
f 229//229 251//251 63//63
f 227//227 23//23 250//250
f 213//213 66//66 164//164
f 66//66 213//213 214//214
f 205//205 201//201 197//197
f 197//197 201//201 207//207
f 217//217 207//207 208//208
f 227//227 250//250 233//233
f 233//233 250//250 228//228
f 233//233 228//228 240//240
f 252//252 231//231 241//241
f 45//45 175//175 184//184
f 30//30 66//66 214//214
f 174//174 30//30 214//214
f 224//224 219//219 222//222
f 224//224 222//222 212//212
f 56//56 162//162 164//164
f 206//206 174//174 214//214
f 194//194 186//186 184//184
f 210//210 215//215 212//212
f 239//239 219//219 224//224
f 164//164 66//66 56//56
f 164//164 154//154 213//213
f 182//182 155//155 165//165
f 162//162 56//56 62//62
