# Created by Open3D 
# object name: link7
# number of vertices: 252
# number of triangles: 500
v 0.0143214 -0.0280561 -0.00599999
vn 0.332972 -0.704899 0.626296
v 0.00881212 -0.0302423 -0.00599999
vn 0.195559 -0.758909 0.621139
v 0.0271227 -0.0160189 -0.00599999
vn 0.460274 -0.289975 0.839084
v -0.0142727 -0.0280809 -0.00599999
vn -0.285058 -0.47605 0.831936
v -0.0214431 -0.0228837 -0.00599999
vn -0.389691 -0.414036 0.822627
v -0.0270949 -0.016066 -0.00599999
vn -0.650821 -0.44475 0.615328
v -0.00299081 0.0313577 -0.00599999
vn -0.0383149 0.515413 0.856085
v 0.00293641 0.0313628 -0.00599999
vn 0.104464 0.755428 0.646851
v 0.00875965 0.0302575 -0.00599999
vn 0.154966 0.493534 0.855809
v 0.0142728 0.0280809 -0.00599999
vn 0.392653 0.636142 0.664189
v 0.021443 0.0228837 -0.00599999
vn 0.355806 0.389531 0.84951
v 0.0296434 -0.0106544 -0.00599999
vn 0.506972 -0.196679 0.839224
v -0.0236417 0.0208163 -0.00599999
vn -0.294397 0.259213 0.919858
v -0.0193237 0.0248766 -0.00599999
vn -0.499729 0.677285 0.539958
v -0.0143214 0.0280561 -0.00599999
vn -0.225856 0.464422 0.85633
v -0.00881212 0.0302423 -0.00599999
vn -0.183267 0.746233 0.63996
v 0.0236417 -0.0208163 -0.00599999
vn 0.595451 -0.55616 0.579762
v 0.0193237 -0.0248766 -0.00599999
vn 0.324611 -0.444837 0.834714
v 0.00564097 -0.0555 -0.0266342
vn 0.592313 -0.0309823 -0.805112
v -0.0134666 -0.0411429 -0.0305
vn -0.912796 -0.355143 -0.201685
v 0.00894893 -0.0374455 -0.02065
vn 0.102707 -0.989687 0.0998495
v -0.00891353 0.0302084 -0.000996049
vn -0.309824 0.946674 0.0884151
v -0.021732 0.0227919 4.08762e-09
vn -0.124374 0.121631 0.984752
v -0.00414291 -0.0555 -0.0274449
vn -0.347695 -0.119762 -0.929928
v -0.0246425 0.0293897 -0.031
vn -0.0117795 0.0149273 -0.999819
v -0.0100457 -0.0394617 -0.0305957
vn -0.776718 -0.626138 -0.0682617
v -0.000851687 -0.0435 -0.0282783
vn -0.133419 -0.250154 -0.958969
v 0.0297601 -0.0103001 4.08762e-09
vn 0.952273 -0.298373 0.0644238
v -0.0311716 -0.00448179 4.08762e-09
vn -0.137261 -0.00530315 0.990521
v -0.0306044 0.00742454 4.08762e-09
vn -0.12634 0.0259133 0.991648
v 0.00253183 -0.0555 -0.027998
vn 0.0543414 -0.98334 -0.173465
v 0.0311414 -0.00469531 -0.00599999
vn 0.773753 -0.119682 0.62208
v 0.00883218 0.0300796 4.08762e-09
vn 0.0490719 0.18297 0.981893
v -0.0312838 0.00320364 -0.00599999
vn -0.597431 0.045128 0.800649
v -0.00414291 -0.0435 -0.0274449
vn -0.441319 -0.215463 -0.871099
v -0.00698517 -0.0555 -0.0255879
vn -0.615052 -0.250897 -0.747503
v -0.0090705 -0.0555 -0.0229087
vn -0.833195 -0.406533 -0.374855
v -0.00297996 0.0312075 4.08762e-09
vn -0.0157628 0.132744 0.991025
v -0.0143652 0.0278645 4.08762e-09
vn -0.0659055 0.116786 0.990968
v 0.0144295 0.0279963 -0.000996049
vn 0.426758 0.900161 0.0871108
v 0.019379 0.0246424 4.08762e-09
vn 0.208059 0.272216 0.939473
v 0.0271495 0.0156748 4.08762e-09
vn 0.55187 0.294044 0.78037
v 0.0306044 0.00742454 4.08762e-09
vn 0.914411 0.251774 0.316958
v 0.0311716 -0.00448179 4.08762e-09
vn 0.0192981 -0.0017949 0.999812
v 0.00253183 -0.0435 -0.027998
vn 0.188795 -0.160286 -0.968847
v 0.0238001 -0.0206229 4.08762e-09
vn 0.675533 -0.552278 0.488512
v 0.00813884 -0.0435 -0.0243347
vn 0.729143 -0.253721 -0.635591
v 0.0194671 -0.0247545 4.08762e-09
vn 0.45961 -0.550457 0.696962
v -0.00299352 -0.0313495 4.08762e-09
vn -0.018128 -0.285973 0.958066
v -0.0144305 -0.0279913 4.08762e-09
vn -0.0899403 -0.189661 0.977722
v -0.027273 -0.015746 4.08762e-09
vn -0.138522 -0.0749878 0.987516
v 0.0312795 0.00323041 -0.00599999
vn 0.651783 0.0497322 0.756774
v -0.0311371 -0.00472208 -0.00599999
vn -0.773502 -0.120386 0.622255
v -0.00894893 -0.0402643 -0.02065
vn 0.214387 -0.906479 0.363778
v -0.00469315 -0.0403 -0.0266038
vn 0.135394 -0.839794 0.525752
v 0.00499615 -0.0403 -0.0265036
vn -0.0747481 -0.983981 0.161844
v 0.00894893 -0.0402643 -0.02065
vn 0.156669 -0.919232 0.361202
v -0.010062 -0.0394714 -0.02065
vn -0.966343 -0.242604 0.0855861
v 0.00975474 -0.0435 -0.0213488
vn 0.912161 -0.174201 -0.370967
v 0.00975474 -0.0555 -0.0213488
vn 0.931608 -0.250897 -0.262979
v -0.00525578 -0.0381324 -0.0263663
vn -0.00102171 -0.993364 0.115012
v 0.0104944 -0.0370421 -0.02065
vn 0.803324 -0.589024 0.0878708
v 0.00299351 -0.0313495 4.08762e-09
vn 0.0440377 -0.346417 0.937046
v -0.00887236 -0.0302164 4.08762e-09
vn -0.0605842 -0.234277 0.97028
v -0.0353634 -0.0164448 -0.0305
vn -0.91828 -0.395337 -0.0216884
v -0.0319726 -0.0223328 -0.0305
vn -0.834035 -0.549436 -0.0500515
v -0.0276113 -0.027543 -0.0305
vn -0.727814 -0.685432 -0.0216886
v -0.0293693 0.0246667 -0.00599999
vn -0.0616086 0.0486996 0.996912
v 0.0275658 0.0275886 -0.0065
vn 0.686034 0.727246 0.0216884
v 0.0353362 0.0165032 -0.0065
vn 0.888803 0.446021 0.105332
v -0.00929033 -0.0404415 -0.0075
vn 0.0906486 0.960085 -0.264614
v 0.0388545 -0.00336518 -0.0305
vn 0.98527 -0.112335 -0.128937
v -0.0100328 -0.0403987 -0.031
vn 0.332149 0.84447 -0.420176
v -0.0148347 -0.0359338 -0.00599999
vn -0.0175767 -0.0265156 0.999494
v -0.0104694 -0.04325 -0.00625
vn -0.135519 -0.584832 0.799754
v 0.016474 0.0353498 -0.0065
vn 0.396096 0.917953 0.0216882
v -0.0332364 -0.0191402 -0.00599999
vn -0.0542095 -0.0333994 0.997971
v 0.00339729 0.0388517 -0.0065
vn 0.0584331 0.998056 0.0216885
v -0.0377771 -0.00662535 -0.00599999
vn -0.0719722 -0.00866808 0.997369
v 0.0376808 -0.0100576 -0.0305
vn 0.958049 -0.285451 -0.0256849
v -0.0353362 0.0165032 -0.0305
vn -0.89309 0.447086 -0.0500514
v -0.022412 -0.0319171 -0.0305
vn -0.596009 -0.802306 -0.0328458
v 0.00959887 -0.0405514 -0.03075
vn -0.0544582 0.907279 -0.416989
v 0.0102588 -0.0396565 -0.0305
vn -0.945723 0.32489 0.00743317
v 0.0124655 -0.0415992 -0.00599999
vn 0.00895121 -0.0398603 0.999165
v -0.0142915 -0.0376546 -0.0065
vn -0.931841 -0.362749 0.00927251
v 0.0105 -0.0435 -0.0065
vn 0.26837 -0.940393 0.208899
v -0.0142915 -0.0376546 -0.0305
vn -0.942235 -0.334943 -0.00263566
v -0.0151952 -0.0362803 -0.0305
vn -0.577015 -0.816671 -0.0101228
v 0.0376641 0.0101199 -0.0305
vn 0.972714 0.231604 -0.013692
v 0.00941286 -0.0403584 -0.0075
vn -0.223842 0.933814 -0.279081
v 0.0104468 -0.0392626 -0.0075
vn -0.913953 0.351494 -0.202835
v -0.0319356 0.0223856 -0.0305
vn -0.801841 0.597143 -0.0216884
v -0.016474 0.0353498 -0.0305
vn -0.397102 0.916409 -0.0500516
v -0.0376641 0.0101199 -0.0305
vn -0.957667 0.287061 -0.0216885
v -0.0388489 0.0034294 -0.0305
vn -0.992954 0.116496 -0.0216886
v -0.0102588 -0.0396565 -0.0075
vn 0.951907 0.28744 -0.106074
v -0.0388546 -0.00336518 -0.0305
vn -0.996915 -0.0575402 -0.0533776
v -0.0376808 -0.0100576 -0.0305
vn -0.955134 -0.224228 -0.193496
v 0.0388489 0.0034294 -0.0065
vn 0.992121 0.114851 0.0500522
v 0.0376808 -0.0100576 -0.0065
vn 0.971612 -0.231224 0.0500508
v 0.0388489 0.0034294 -0.0305
vn 0.997802 0.0592451 -0.0296818
v 0.0319726 -0.0223328 -0.0065
vn 0.834036 -0.549436 0.0500514
v -0.0100888 0.0376725 -0.0065
vn -0.28627 0.957904 0.0216884
v -0.0191677 0.0332205 -0.00599999
vn -0.0357619 0.0579368 0.99768
v -0.0223592 0.0319541 -0.0065
vn -0.596481 0.802334 0.0216886
v -0.00665658 0.0377716 -0.00599999
vn -0.0138649 0.0669757 0.997658
v -0.0353362 0.0165032 -0.0065
vn -0.91608 0.397859 0.0500515
v 0.00665657 0.0377716 -0.00599999
vn 0.00990077 0.0679199 0.997642
v -0.0376641 0.0101199 -0.0065
vn -0.972576 0.231571 0.0216883
v -0.0360322 0.0131409 -0.00599999
vn -0.0631075 0.0169562 0.997863
v 0.0029715 0.0313556 -0.000996049
vn 0.0629233 0.994151 0.0877764
v -0.0271495 0.0156748 4.08762e-09
vn -0.114122 0.0627147 0.991485
v -0.00875966 -0.0302575 -0.00599999
vn -0.242852 -0.745018 0.621266
v 0.0237096 0.0207353 -0.000998023
vn 0.760726 0.64685 0.0536793
v 0.00887235 -0.0302164 4.08762e-09
vn 0.136158 -0.416164 0.899037
v 0.0144305 -0.0279913 4.08762e-09
vn 0.271862 -0.490682 0.827842
v 0.0272729 -0.015746 4.08762e-09
vn 0.852506 -0.460865 0.246652
v -0.0297601 -0.0103001 4.08762e-09
vn -0.144235 -0.0452475 0.988508
v -0.0238001 -0.0206229 4.08762e-09
vn -0.150569 -0.128036 0.980273
v -0.0194671 -0.0247545 4.08762e-09
vn -0.131433 -0.173004 0.976112
v 0.0275658 0.0275886 -0.0305
vn 0.726679 0.686634 -0.0216884
v -0.0353634 -0.0164448 -0.0065
vn -0.893828 -0.445609 0.0500512
v 0.0223592 0.0319541 -0.0305
vn 0.592851 0.798394 -0.105331
v 0.022412 -0.0319171 -0.0305
vn 0.5552 -0.831455 -0.0208566
v 0.0100888 0.0376725 -0.0305
vn 0.286271 0.957903 -0.0216885
v 0.016474 0.0353498 -0.0305
vn 0.448176 0.893682 -0.0216882
v -0.0276113 -0.027543 -0.0065
vn -0.687649 -0.724316 0.0500516
v -0.0296434 0.0106544 -0.00599999
vn -0.769797 0.27831 0.574418
v -0.0271227 0.0160189 -0.00599999
vn -0.493058 0.325846 0.806671
v 0.0270949 0.016066 -0.00599999
vn 0.63904 0.425216 0.640952
v -0.0029364 -0.0313628 -0.00599999
vn -0.034723 -0.274108 0.961072
v 0.00457412 -0.0405 -0.0114231
vn -0.145249 0.869367 -0.472339
v -0.0275658 0.0275886 -0.0305
vn -0.686451 0.725452 -0.0500517
v -0.024691 -0.0293489 -0.00599999
vn -0.0480559 -0.0580072 0.997159
v 0.0296249 0.0107058 -0.00599999
vn 0.519727 0.188301 0.833323
v 0.0029908 -0.0313577 -0.00599999
vn 0.0533424 -0.844288 0.533229
v -0.0296249 -0.0107058 -0.00599999
vn -0.506979 -0.197155 0.839108
v 0.0276113 -0.027543 -0.0065
vn 0.727813 -0.685432 0.0216886
v 0.00457412 -0.0435 -0.0114231
vn -0.0686103 0.972667 -0.221837
v -0.000851687 -0.0555 -0.00772167
vn -0.0910339 -0.750718 0.654321
v 0.0191677 0.0332205 -0.00599999
vn 0.0301827 0.0560949 0.997969
v 0.00813884 -0.0555 -0.0116653
vn 0.588083 -0.625597 0.512628
v 0.00975474 -0.0555 -0.0146512
vn 0.78752 -0.526531 0.320277
v 0.0103135 -0.0555 -0.018
vn 0.916702 -0.396306 0.0509894
v 0.024691 -0.0293489 -0.00599999
vn 0.0470341 -0.049859 0.997648
v -0.00698517 -0.0435 -0.0104121
vn -0.609702 -0.284396 0.739853
v -0.00698517 -0.0555 -0.0104121
vn -0.488361 -0.732259 0.474658
v 0.0332364 -0.0191402 -0.00599999
vn 0.0690298 -0.037069 0.996926
v -0.0090705 -0.0435 -0.0130913
vn -0.827516 -0.238383 0.508322
v 0.0293693 0.0246667 -0.00599999
vn 0.0569205 0.0428092 0.99746
v -0.0090705 -0.0555 -0.0130913
vn -0.654891 -0.699111 0.286987
v -0.0102432 -0.0555 -0.0171512
vn -0.776957 -0.629553 -8.30158e-18
v 0.0377771 -0.00662535 -0.00599999
vn 0.0643854 -0.00933122 0.997881
v -0.0101729 -0.0435 -0.0163024
vn -0.967437 -0.151511 0.202756
v -0.00414291 -0.0555 -0.00855513
vn -0.29856 -0.750718 0.589309
v 0.022412 -0.0319171 -0.0065
vn 0.596009 -0.802305 0.032846
v 0.00975474 -0.0435 -0.0146512
vn 0.946178 -0.182779 0.267092
v 0.0148347 -0.0359338 -0.00599999
vn 0.0249855 -0.0282609 0.999288
v 0.00813884 -0.0435 -0.0116653
vn 0.791724 -0.26904 0.548443
v 0.00564097 -0.0435 -0.00936584
vn 0.570578 -0.270077 0.775564
v -0.00414291 -0.0435 -0.00855513
vn -0.340084 -0.246672 0.907467
v -0.000851687 -0.0435 -0.00772167
vn -0.028345 -0.36405 0.930948
v 0.0377661 0.00668779 -0.00599999
vn 0.0697805 0.0187492 0.997386
v 0.00253183 -0.0555 -0.00800204
vn 0.130259 -0.732259 0.668453
v 0.00564097 -0.0555 -0.00936584
vn 0.360493 -0.692365 0.62504
v 0.00253183 -0.0435 -0.00800204
vn 0.29373 -0.185969 0.937624
v 0.0353634 -0.0164448 -0.0065
vn 0.91828 -0.395336 0.0216881
v 0.00743047 -0.0435 -0.0151359
vn -0.57198 0.781749 -0.248411
v 0.0388545 -0.00336518 -0.0065
vn 0.998104 -0.0576102 0.0216884
v -0.00457412 -0.0435 -0.0114231
vn 0.0369355 0.976911 -0.210431
v 0.00743047 -0.0405 -0.0151359
vn -0.748451 0.647506 -0.143374
v -0.0106876 -0.0369816 -0.0309765
vn 0.015237 -0.00159495 -0.999883
v -0.0151952 -0.0362803 -0.0065
vn -0.575473 -0.815561 0.060755
v -0.00457412 -0.0405 -0.0114231
vn 0.335965 0.795485 -0.504312
v -0.0100888 0.0376725 -0.0305
vn -0.230767 0.972767 -0.0216885
v -0.0223592 0.0319541 -0.0305
vn -0.549402 0.835276 -0.0216886
v -0.024691 -0.0293489 -0.031
vn -0.0275137 -0.0291663 -0.999196
v -0.0148347 -0.0359338 -0.031
vn -0.0159936 -0.0238664 -0.999587
v 0.0131111 0.0360431 -0.031
vn 0.0203389 0.0759476 -0.996904
v 0.00339729 0.0388517 -0.0305
vn 0.115536 0.991868 -0.0533771
v -0.0033973 0.0388517 -0.0305
vn -0.0558631 0.979509 -0.193496
v -0.0131111 0.0360431 -0.031
vn -0.00625859 0.0313259 -0.99949
v -0.0319356 0.0223856 -0.0065
vn -0.834822 0.550093 0.0216884
v 0.0376641 0.0101199 -0.0065
vn 0.957667 0.287061 0.0216889
v -0.0319726 -0.0223328 -0.0065
vn -0.802827 -0.595818 0.0216884
v -0.0376808 -0.0100576 -0.0065
vn -0.95814 -0.285478 0.0216884
v 0.0319356 0.0223856 -0.0065
vn 0.80184 0.597145 0.0216888
v -0.0388546 -0.00336518 -0.0065
vn -0.993146 -0.114854 0.0216887
v 0.0223592 0.0319541 -0.0065
vn 0.550125 0.833581 0.0500514
v -0.0388489 0.0034294 -0.0065
vn -0.992655 0.0595042 0.105331
v 0.0100888 0.0376725 -0.0065
vn 0.232026 0.971421 0.0500514
v 0.0319356 0.0223856 -0.0305
vn 0.834821 0.550094 -0.0216888
v 0.0353362 0.0165032 -0.0305
vn 0.915153 0.397238 -0.0685285
v -0.022412 -0.0319171 -0.0065
vn -0.5552 -0.831456 0.0208564
v 0.0319726 -0.0223328 -0.0305
vn 0.796751 -0.589693 -0.132099
v -0.0033973 0.0388517 -0.0065
vn -0.114031 0.992216 0.0500515
v 0.0353634 -0.0164448 -0.0305
vn 0.893759 -0.44729 -0.0335537
v -0.016474 0.0353498 -0.0065
vn -0.446347 0.893459 0.0500515
v 0.0276113 -0.027543 -0.0305
vn 0.687235 -0.726112 -0.0216886
v -0.0275658 0.0275886 -0.0065
vn -0.724884 0.68705 0.0500516
v 0.0151952 -0.0362803 -0.0305
vn 0.528264 -0.848347 -0.0352631
v 0.0151952 -0.0362803 -0.0065
vn 0.554072 -0.832413 0.00961708
v 0.0145631 -0.0367942 -0.03075
vn 0.72844 -0.30034 -0.615768
v 0.0142915 -0.0376546 -0.0065
vn 0.922451 -0.385494 0.0218544
v -0.00743046 -0.0435 -0.0151359
vn 0.902543 0.248143 -0.351912
v -0.00796334 -0.0405 -0.018
vn 0.455368 0.888186 -0.0613663
v -0.00743046 -0.0435 -0.0208641
vn 0.61813 0.748216 0.241016
v -0.00689758 -0.0405 -0.0222466
vn 0.361961 0.913341 0.186526
v -0.00457412 -0.0405 -0.0245769
vn 0.0864853 0.943674 0.319374
v -0.00457412 -0.0435 -0.0245769
vn 0.0686104 0.972667 0.221837
v 0.00457412 -0.0405 -0.0245769
vn -0.109599 0.928662 0.354365
v 0.00457412 -0.0435 -0.0245769
vn -0.0732559 0.968779 0.236858
v 0.00743047 -0.0405 -0.0208641
vn -0.385516 0.909297 0.156704
v 0.00743047 -0.0435 -0.0208641
vn -0.926592 0.333145 0.174477
v -0.00576616 -0.0380658 -0.0075
vn -0.149348 -0.980712 -0.126091
v -0.0107123 -0.0369797 -0.0075
vn 0.475936 -0.868287 -0.139869
v 0.00576617 -0.0380658 -0.0075
vn 0.142637 -0.981607 -0.126898
v 0.0107123 -0.0369797 -0.0075
vn -0.783901 -0.615047 -0.0849525
v 0.0106876 -0.0369816 -0.0309766
vn -0.0170721 -0.0113239 -0.99979
v 4.23116e-09 -0.0385 -0.0075
vn -0.00138943 -0.988078 -0.153945
v 0.0105 -0.0435 -0.029
vn 0.136894 -0.984264 0.111735
v -0.0105 -0.0435 -0.029
vn -0.272809 -0.957007 0.0985531
v -0.00352928 -0.0446099 -0.02975
vn -0.0400474 -0.992059 0.119229
v -0.0122435 -0.0426489 -0.0305
vn -0.554498 -0.824699 -0.111373
v -0.0128432 -0.0419084 -0.0065
vn -0.764898 -0.641572 0.0575837
v 0.00348984 -0.0441115 -0.031
vn 0.0414838 -0.325161 -0.944748
v 0.0122435 -0.0426489 -0.0305
vn 0.562754 -0.804709 -0.189079
v 0.0128432 -0.0419084 -0.0065
vn 0.886071 -0.463179 0.018506
v 0.0134666 -0.0411429 -0.0305
vn 0.917956 -0.369816 -0.143505
v -0.00693626 -0.0435627 -0.031
vn -0.0696903 -0.349879 -0.934199
v 0.00499615 -0.0381656 -0.0265036
vn -0.00850949 -0.985033 0.172154
v 4.23116e-09 -0.0385 -0.027
vn -0.00196361 -0.995543 0.0942848
v -0.00860238 -0.0401804 -0.0307554
vn -0.0369836 -0.806805 -0.589659
v 0.0100333 -0.0394542 -0.030625
vn 0.893443 -0.449111 0.00766469
v 0.00901372 -0.0401579 -0.030625
vn 0.0610911 -0.903792 -0.423589
v -0.00972165 -0.0372438 -0.02065
vn -0.253658 -0.961422 0.106421
v -0.0332364 -0.0191402 -0.031
vn -0.0880154 -0.0342198 -0.995531
v 0.0293693 0.0246667 -0.031
vn 0.00314182 0.00252885 -0.999992
v -0.0332047 0.0191951 -0.031
vn -0.0121678 0.00752458 -0.999898
v -0.0377661 0.00668779 -0.031
vn -0.00633467 3.08894e-05 -0.99998
v 0.0363435 -0.0114297 -0.031
vn 0.0357823 -0.015114 -0.999245
v 0.024691 -0.0293489 -0.031
vn 0.0822597 -0.0856158 -0.992927
v 0.0371813 0.00999014 -0.031
vn 0.0100847 0.00170283 -0.999948
v -0.000851687 -0.0555 -0.0282783
vn -0.0270912 -0.0309826 -0.999153
v -0.0101729 -0.0435 -0.0196976
vn -0.978815 -0.0973656 -0.180116
v -0.0090705 -0.0435 -0.0229087
vn -0.831036 -0.327286 -0.449735
v -0.00698517 -0.0435 -0.0255879
vn -0.69208 -0.261831 -0.672659
v 0.00564097 -0.0435 -0.0266342
vn 0.483852 -0.249168 -0.838929
v 0.0314564 0.00149845 4.08762e-09
vn 0.995754 0.0474334 0.0788901
v 0.00813884 -0.0555 -0.0243347
vn 0.816117 -0.119762 -0.56534
v 0.0103135 -0.0435 -0.018
vn 0.987523 -0.147586 -0.0549287
f 213//213 169//169 215//215
f 213//213 140//140 169//169
f 208//208 171//171 211//211
f 208//208 206//206 171//171
f 171//171 213//213 211//211
f 140//140 213//213 171//171
f 119//119 138//138 51//51
f 119//119 53//53 138//138
f 29//29 53//53 119//119
f 6//6 51//51 138//138
f 120//120 51//51 6//6
f 5//5 120//120 6//6
f 121//121 120//120 5//5
f 4//4 121//121 5//5
f 4//4 50//50 121//121
f 114//114 50//50 4//4
f 114//114 64//64 50//50
f 132//132 64//64 114//114
f 132//132 49//49 64//64
f 137//137 49//49 132//132
f 137//137 63//63 49//49
f 2//2 63//63 137//137
f 2//2 116//116 63//63
f 1//1 116//116 2//2
f 1//1 117//117 116//116
f 18//18 117//117 1//1
f 18//18 48//48 117//117
f 17//17 48//48 18//18
f 17//17 46//46 48//48
f 3//3 46//46 17//17
f 3//3 118//118 46//46
f 12//12 118//118 3//3
f 12//12 28//28 118//118
f 32//32 28//28 12//12
f 44//44 28//28 32//32
f 43//43 136//136 42//42
f 43//43 52//52 136//136
f 131//131 42//42 136//136
f 115//115 42//42 131//131
f 11//11 115//115 131//131
f 41//41 115//115 11//11
f 10//10 41//41 11//11
f 10//10 40//40 41//41
f 9//9 40//40 10//10
f 9//9 33//33 40//40
f 8//8 33//33 9//9
f 8//8 112//112 33//33
f 7//7 112//112 8//8
f 7//7 38//38 112//112
f 16//16 38//38 7//7
f 16//16 22//22 38//38
f 15//15 22//22 16//16
f 15//15 39//39 22//22
f 14//14 39//39 15//15
f 14//14 23//23 39//39
f 13//13 23//23 14//14
f 130//130 23//23 13//13
f 130//130 113//113 23//23
f 129//129 113//113 130//130
f 129//129 30//30 113//113
f 34//34 30//30 129//129
f 85//85 75//75 87//87
f 132//132 74//74 85//85
f 114//114 74//74 132//132
f 4//4 74//74 114//114
f 4//4 135//135 74//74
f 5//5 135//135 4//4
f 5//5 77//77 135//135
f 6//6 77//77 5//5
f 138//138 77//77 6//6
f 138//138 79//79 77//77
f 3//3 146//146 149//149
f 17//17 146//146 3//3
f 18//18 146//146 17//17
f 18//18 159//159 146//146
f 1//1 159//159 18//18
f 2//2 159//159 1//1
f 137//137 159//159 2//2
f 74//74 75//75 85//85
f 149//149 12//12 3//3
f 154//154 12//12 149//149
f 154//154 32//32 12//12
f 52//52 32//32 154//154
f 130//130 68//68 111//111
f 13//13 68//68 130//130
f 13//13 105//105 68//68
f 14//14 105//105 13//13
f 15//15 105//105 14//14
f 15//15 107//107 105//105
f 16//16 107//107 15//15
f 7//7 107//107 16//16
f 7//7 109//109 107//107
f 8//8 109//109 7//7
f 9//9 109//109 8//8
f 9//9 142//142 109//109
f 10//10 142//142 9//9
f 11//11 142//142 10//10
f 11//11 151//151 142//142
f 131//131 151//151 11//11
f 136//136 151//151 131//131
f 136//136 164//164 151//151
f 34//34 79//79 53//53
f 111//111 129//129 130//130
f 111//111 34//34 129//129
f 79//79 34//34 111//111
f 132//132 159//159 137//137
f 138//138 53//53 79//79
f 164//164 52//52 154//154
f 85//85 159//159 132//132
f 136//136 52//52 164//164
f 135//135 174//174 74//74
f 135//135 195//195 174//174
f 135//135 128//128 195//195
f 77//77 128//128 135//135
f 77//77 186//186 128//128
f 77//77 123//123 186//186
f 79//79 123//123 77//77
f 79//79 187//187 123//123
f 79//79 189//189 187//187
f 79//79 191//191 189//189
f 111//111 191//191 79//79
f 111//111 110//110 191//191
f 111//111 108//108 110//110
f 68//68 108//108 111//111
f 68//68 184//184 108//108
f 68//68 201//201 184//184
f 105//105 201//201 68//68
f 105//105 106//106 201//201
f 105//105 199//199 106//106
f 107//107 199//199 105//105
f 107//107 104//104 199//199
f 107//107 197//197 104//104
f 109//109 197//197 107//107
f 109//109 78//78 197//197
f 109//109 192//192 78//78
f 142//142 192//192 109//109
f 142//142 76//76 192//192
f 142//142 190//190 76//76
f 151//151 190//190 142//142
f 151//151 69//69 190//190
f 151//151 188//188 69//69
f 151//151 70//70 188//188
f 164//164 70//70 151//151
f 164//164 185//185 70//70
f 164//164 100//100 185//185
f 154//154 100//100 164//164
f 154//154 170//170 100//100
f 154//154 101//101 170//170
f 149//149 101//101 154//154
f 149//149 168//168 101//101
f 149//149 103//103 168//168
f 146//146 103//103 149//149
f 146//146 139//139 103//103
f 146//146 157//157 139//139
f 159//159 157//157 146//146
f 159//159 203//203 157//157
f 86//86 74//74 174//174
f 205//205 159//159 85//85
f 203//203 159//159 205//205
f 125//125 203//203 202//202
f 125//125 157//157 203//203
f 200//200 157//157 125//125
f 200//200 139//139 157//157
f 196//196 139//139 200//200
f 196//196 103//103 139//139
f 198//198 103//103 196//196
f 198//198 168//168 103//103
f 80//80 168//168 198//198
f 80//80 101//101 168//168
f 72//72 101//101 80//80
f 72//72 170//170 101//101
f 102//102 170//170 72//72
f 102//102 100//100 170//170
f 90//90 100//100 102//102
f 90//90 185//185 100//100
f 194//194 185//185 90//90
f 194//194 70//70 185//185
f 193//193 70//70 194//194
f 193//193 188//188 70//70
f 122//122 188//188 193//193
f 122//122 69//69 188//188
f 124//124 69//69 122//122
f 124//124 190//190 69//69
f 127//127 190//190 124//124
f 127//127 76//76 190//190
f 126//126 76//76 127//127
f 126//126 192//192 76//76
f 181//181 192//192 126//126
f 181//181 78//78 192//192
f 182//182 78//78 181//181
f 182//182 197//197 78//78
f 176//176 197//197 182//182
f 176//176 104//104 197//197
f 94//94 104//104 176//176
f 94//94 199//199 104//104
f 177//177 199//199 94//94
f 177//177 106//106 199//199
f 134//134 106//106 177//177
f 134//134 201//201 106//106
f 93//93 201//201 134//134
f 93//93 184//184 201//201
f 81//81 184//184 93//93
f 81//81 108//108 184//184
f 95//95 108//108 81//81
f 95//95 110//110 108//108
f 96//96 110//110 95//95
f 96//96 191//191 110//110
f 98//98 191//191 96//96
f 98//98 189//189 191//191
f 99//99 189//189 98//98
f 99//99 187//187 189//189
f 65//65 187//187 99//99
f 65//65 123//123 187//187
f 66//66 123//123 65//65
f 66//66 186//186 123//123
f 67//67 186//186 66//66
f 67//67 128//128 186//186
f 82//82 128//128 67//67
f 82//82 195//195 128//128
f 89//89 195//195 82//82
f 89//89 174//174 195//195
f 243//243 202//202 204//204
f 243//243 125//125 202//202
f 243//243 200//200 125//125
f 196//196 200//200 243//243
f 242//242 198//198 196//196
f 242//242 80//80 198//198
f 242//242 72//72 80//80
f 244//244 72//72 242//242
f 244//244 102//102 72//72
f 244//244 90//90 102//102
f 244//244 194//194 90//90
f 239//239 194//194 244//244
f 239//239 193//193 194//194
f 239//239 122//122 193//193
f 239//239 124//124 122//122
f 180//180 124//124 239//239
f 180//180 127//127 124//124
f 180//180 126//126 127//127
f 181//181 126//126 180//180
f 183//183 176//176 182//182
f 183//183 94//94 176//176
f 25//25 94//94 183//183
f 25//25 177//177 94//94
f 25//25 134//134 177//177
f 240//240 134//134 25//25
f 240//240 93//93 134//134
f 240//240 81//81 93//93
f 241//241 81//81 240//240
f 241//241 95//95 81//81
f 241//241 96//96 95//95
f 241//241 98//98 96//96
f 99//99 98//98 241//241
f 238//238 65//65 99//99
f 238//238 66//66 65//65
f 178//178 66//66 238//238
f 178//178 67//67 66//66
f 178//178 82//82 67//67
f 179//179 82//82 178//178
f 179//179 89//89 82//82
f 88//88 179//179 20//20
f 89//89 179//179 88//88
f 219//219 84//84 92//92
f 220//220 84//84 219//219
f 97//97 173//173 217//217
f 73//73 173//173 97//97
f 83//83 84//84 220//220
f 91//91 218//218 92//92
f 91//91 221//221 218//218
f 71//71 221//221 91//91
f 71//71 216//216 221//221
f 219//219 92//92 218//218
f 97//97 216//216 71//71
f 97//97 217//217 216//216
f 91//91 84//84 83//83
f 92//92 84//84 91//91
f 83//83 210//210 212//212
f 73//73 210//210 83//83
f 71//71 133//133 175//175
f 91//91 133//133 71//71
f 83//83 212//212 214//214
f 73//73 209//209 210//210
f 73//73 207//207 209//209
f 71//71 207//207 73//73
f 175//175 207//207 71//71
f 91//91 172//172 133//133
f 214//214 172//172 91//91
f 91//91 83//83 214//214
f 71//71 73//73 97//97
f 231//231 224//224 225//225
f 227//227 224//224 231//231
f 231//231 225//225 20//20
f 226//226 74//74 86//86
f 226//226 75//75 74//74
f 85//85 229//229 205//205
f 87//87 229//229 85//85
f 86//86 89//89 88//88
f 174//174 89//89 86//86
f 203//203 204//204 202//202
f 205//205 204//204 203//203
f 206//206 175//175 171//171
f 206//206 207//207 175//175
f 208//208 207//207 206//206
f 208//208 209//209 207//207
f 208//208 210//210 209//209
f 211//211 210//210 208//208
f 210//210 213//213 212//212
f 211//211 213//213 210//210
f 213//213 214//214 212//212
f 215//215 214//214 213//213
f 215//215 172//172 214//214
f 169//169 172//172 215//215
f 169//169 133//133 172//172
f 140//140 133//133 169//169
f 133//133 171//171 175//175
f 140//140 171//171 133//133
f 229//229 204//204 205//205
f 229//229 230//230 204//204
f 229//229 228//228 230//230
f 87//87 228//228 229//229
f 222//222 228//228 87//87
f 222//222 227//227 228//228
f 224//224 227//227 222//222
f 223//223 225//225 224//224
f 226//226 223//223 75//75
f 226//226 225//225 223//223
f 226//226 20//20 225//225
f 86//86 20//20 226//226
f 86//86 88//88 20//20
f 222//222 59//59 47//47
f 222//222 252//252 59//59
f 87//87 252//252 222//222
f 87//87 158//158 252//252
f 160//160 158//158 87//87
f 223//223 35//35 248//248
f 223//223 27//27 35//35
f 222//222 27//27 223//223
f 222//222 45//45 27//27
f 249//249 45//45 222//222
f 75//75 150//150 147//147
f 75//75 155//155 150//150
f 223//223 155//155 75//75
f 223//223 246//246 155//155
f 247//247 246//246 223//223
f 223//223 248//248 247//247
f 47//47 249//249 222//222
f 87//87 167//167 161//161
f 87//87 163//163 167//167
f 75//75 163//163 87//87
f 75//75 162//162 163//163
f 147//147 162//162 75//75
f 161//161 160//160 87//87
f 222//222 223//223 224//224
f 216//216 61//61 221//221
f 237//237 61//61 216//216
f 221//221 233//233 232//232
f 221//221 61//61 233//233
f 218//218 232//232 21//21
f 221//221 232//232 218//218
f 219//219 62//62 220//220
f 219//219 21//21 62//62
f 218//218 21//21 219//219
f 237//237 217//217 173//173
f 237//237 216//216 217//217
f 173//173 234//234 26//26
f 236//236 220//220 235//235
f 234//234 220//220 236//236
f 57//57 62//62 21//21
f 237//237 58//58 54//54
f 54//54 61//61 237//237
f 55//55 61//61 54//54
f 57//57 232//232 56//56
f 57//57 21//21 232//232
f 55//55 233//233 61//61
f 55//55 232//232 233//233
f 56//56 232//232 55//55
f 73//73 227//227 231//231
f 83//83 227//227 73//73
f 83//83 228//228 227//227
f 83//83 230//230 228//228
f 83//83 204//204 230//230
f 220//220 204//204 83//83
f 241//241 178//178 238//238
f 239//239 183//183 180//180
f 25//25 183//183 239//239
f 182//182 180//180 183//183
f 181//181 180//180 182//182
f 241//241 179//179 178//178
f 173//173 179//179 241//241
f 173//173 20//20 179//179
f 239//239 240//240 25//25
f 173//173 220//220 234//234
f 244//244 220//220 173//173
f 242//242 220//220 244//244
f 242//242 204//204 220//220
f 243//243 204//204 242//242
f 243//243 242//242 196//196
f 239//239 241//241 240//240
f 73//73 20//20 173//173
f 73//73 231//231 20//20
f 244//244 173//173 239//239
f 241//241 239//239 173//173
f 238//238 99//99 241//241
f 173//173 58//58 237//237
f 26//26 58//58 173//173
f 220//220 62//62 235//235
f 26//26 54//54 58//58
f 234//234 54//54 26//26
f 57//57 235//235 62//62
f 57//57 236//236 235//235
f 234//234 56//56 55//55
f 236//236 56//56 234//234
f 56//56 236//236 57//57
f 54//54 234//234 55//55
f 44//44 39//39 23//23
f 38//38 39//39 44//44
f 44//44 113//113 30//30
f 23//23 113//113 44//44
f 44//44 29//29 119//119
f 30//30 29//29 44//44
f 44//44 120//120 121//121
f 44//44 51//51 120//120
f 119//119 51//51 44//44
f 44//44 64//64 49//49
f 44//44 50//50 64//64
f 121//121 50//50 44//44
f 44//44 116//116 117//117
f 44//44 63//63 116//116
f 49//49 63//63 44//44
f 44//44 46//46 118//118
f 44//44 48//48 46//46
f 117//117 48//48 44//44
f 118//118 28//28 44//44
f 44//44 43//43 42//42
f 250//250 43//43 44//44
f 44//44 41//41 33//33
f 42//42 41//41 44//44
f 44//44 33//33 38//38
f 29//29 34//34 53//53
f 30//30 34//34 29//29
f 250//250 52//52 43//43
f 44//44 52//52 250//250
f 44//44 32//32 52//52
f 115//115 41//41 42//42
f 40//40 33//33 41//41
f 33//33 112//112 38//38
f 38//38 22//22 39//39
f 31//31 36//36 24//24
f 31//31 37//37 36//36
f 24//24 245//245 31//31
f 31//31 60//60 145//145
f 31//31 251//251 60//60
f 19//19 251//251 31//31
f 31//31 143//143 166//166
f 31//31 144//144 143//143
f 145//145 144//144 31//31
f 31//31 141//141 156//156
f 31//31 165//165 141//141
f 166//166 165//165 31//31
f 31//31 152//152 153//153
f 31//31 148//148 152//152
f 156//156 148//148 31//31
f 153//153 37//37 31//31
f 246//246 153//153 155//155
f 246//246 37//37 153//153
f 247//247 37//37 246//246
f 248//248 37//37 247//247
f 248//248 36//36 37//37
f 35//35 36//36 248//248
f 35//35 24//24 36//36
f 27//27 24//24 35//35
f 27//27 245//245 24//24
f 45//45 245//245 27//27
f 45//45 31//31 245//245
f 249//249 31//31 45//45
f 249//249 19//19 31//31
f 47//47 19//19 249//249
f 47//47 251//251 19//19
f 59//59 251//251 47//47
f 59//59 60//60 251//251
f 252//252 60//60 59//59
f 252//252 145//145 60//60
f 158//158 145//145 252//252
f 158//158 144//144 145//145
f 160//160 144//144 158//158
f 160//160 143//143 144//144
f 161//161 143//143 160//160
f 161//161 166//166 143//143
f 167//167 166//166 161//161
f 167//167 165//165 166//166
f 163//163 165//165 167//167
f 163//163 141//141 165//165
f 162//162 141//141 163//163
f 162//162 156//156 141//141
f 147//147 156//156 162//162
f 147//147 148//148 156//156
f 150//150 148//148 147//147
f 150//150 152//152 148//148
f 155//155 152//152 150//150
f 155//155 153//153 152//152
