# Created by Open3D 
# object name: link4
# number of vertices: 252
# number of triangles: 500
v 0.0861234 -0.161929 0.0443344
vn 0.219956 -0.0960688 0.970768
v 0.0745798 -0.162081 0.0447999
vn -0.0149613 -0.884339 0.466606
v 0.11806 -0.0966325 0.086037
vn 0.908654 -0.328864 0.257286
v 0.0275298 0.034659 0.0777728
vn 0.569749 0.818357 0.0753534
v 0.0139915 0.0418085 0.0735382
vn 0.297596 0.953008 0.0566857
v 0.0175186 0.0369407 0.0912824
vn 0.40818 0.847612 0.339032
v 0.00596182 0.0418934 0.0866307
vn 0.100508 0.951856 0.289601
v 0.00359523 0.035406 0.0984525
vn 0.119836 0.708857 0.695098
v 0.0233928 0.0302132 0.0962124
vn 0.401237 0.578161 0.71045
v 0.050008 0.00721167 0.0953607
vn 0.578945 0.569667 0.583355
v 0.0382544 0.0238314 0.087299
vn 0.701815 0.712314 -0.00802612
v 0.0967989 -0.0391234 0.0811874
vn 0.629568 0.681104 -0.373819
v 0.0754716 -0.0244955 0.0770029
vn 0.473787 0.549035 -0.688539
v 0.0473284 -0.00473909 0.0730633
vn 0.390099 0.230454 -0.891467
v 0.0324271 -0.0309459 0.0670784
vn 0.493576 -0.43583 -0.752619
v 0.050632 -0.0353993 0.0681724
vn 0.0213348 0.234518 -0.971878
v 0.0732574 -0.0334154 0.0703582
vn 0.144392 0.620301 -0.770959
v 0.0626453 -0.0368577 0.0663167
vn -0.139417 0.721467 -0.678269
v 0.0331104 -0.0522497 0.0685943
vn -0.205916 -0.0156158 -0.978445
v 0.049583 -0.0458897 0.0619556
vn -0.59437 0.73124 -0.334684
v 0.0414741 -0.0178149 0.068399
vn 0.913933 -0.405695 -0.0117269
v 0.0434847 0.0117014 0.0722843
vn 0.952383 0.28313 -0.113153
v 0.0480349 0.0103773 0.08075
vn 0.703041 0.50218 -0.503536
v 0.108847 -0.0984663 -0.0311503
vn 0.733193 0.0183056 -0.679774
v 0.101503 -0.129138 -0.0372333
vn 0.266316 -0.895065 -0.35768
v -0.00330946 0.0439809 0.0744504
vn -0.0462651 0.99677 0.0656425
v -0.00990877 0.0394451 0.0911769
vn -0.211828 0.899838 0.381341
v -0.00839295 0.0328957 0.100516
vn -0.105981 0.563642 0.819192
v 0.0355686 0.0269849 0.0755605
vn 0.818556 0.573431 -0.0338052
v -0.0222406 0.0284073 0.0989837
vn -0.44813 0.550892 0.704058
v 0.0989716 -0.117873 0.0892972
vn 0.399573 -0.789731 0.465475
v 0.0811635 -0.12378 0.0852025
vn 0.0492992 -0.914581 0.401386
v 0.0831681 -0.0707711 -0.0395567
vn 0.134781 0.323487 -0.936584
v 0.081459 -0.0831873 -0.0425579
vn 0.095047 0.0700748 -0.993003
v -0.0153863 -0.044766 0.0798011
vn -0.494593 -0.552438 -0.670961
v -0.00243904 -0.0453081 0.0714507
vn -0.193707 -0.874887 -0.443904
v 0.0238133 -0.0720732 0.0739446
vn -0.352029 -0.323673 -0.878243
v -0.0251219 0.0334795 0.0896056
vn -0.564143 0.767873 0.303503
v 0.121828 -0.129138 -0.00667867
vn 0.929468 -0.338882 -0.145765
v 0.11709 -0.129138 -0.0203951
vn 0.699062 -0.586431 -0.409159
v 0.120227 -0.087189 -0.00951437
vn 0.954155 0.0799302 -0.288444
v 0.121216 -0.0832866 0.00100387
vn 0.97524 0.192404 -0.109031
v 0.122238 -0.0985978 0.00764124
vn 0.999252 -0.0267989 0.0278957
v 0.115805 -0.0925544 -0.0212096
vn 0.861262 0.0946922 -0.499261
v 0.111164 -0.114546 0.0342365
vn 0.822178 -0.527103 0.214907
v 0.120758 -0.099112 0.0216089
vn 0.924512 -0.367091 0.102571
v 0.117855 -0.1023 0.0598664
vn 0.888004 -0.45681 0.0526656
v 0.120911 -0.0898089 0.0768683
vn 0.985776 -0.152099 0.071502
v 0.114278 -0.0650019 -0.00517217
vn 0.863909 0.467618 -0.18707
v 0.112533 -0.0704918 -0.0178432
vn 0.848648 0.338676 -0.406319
v 0.0804115 -0.0414917 0.00277727
vn 0.00313997 0.980553 -0.196228
v 0.0882453 -0.0403119 0.0216669
vn 0.216645 0.974213 -0.0630445
v 0.0938455 -0.0458794 -0.00342552
vn 0.379518 0.89367 -0.239417
v 0.0650048 -0.0395708 0.0607809
vn -0.236528 0.962752 -0.131007
v 0.0726656 -0.0391675 0.0325285
vn -0.120116 0.990916 -0.0604707
v 0.0819386 -0.0381782 0.0642929
vn 0.0830973 0.992747 -0.0868802
v 0.103256 -0.0565815 -0.016781
vn 0.647973 0.676614 -0.349749
v 0.119285 -0.113276 0.0168812
vn 0.948361 -0.0848963 0.305619
v 0.121878 -0.129139 0.00547073
vn 0.908032 -0.394772 0.140117
v 0.110035 -0.111695 0.0825222
vn 0.792535 -0.594822 0.134442
v 0.0568331 -0.0736649 -0.0352782
vn -0.503315 0.221455 -0.835244
v 0.118535 -0.12914 0.0179963
vn 0.837477 -0.293614 0.460895
v 0.120689 -0.0768373 0.0791643
vn 0.99784 0.0445815 0.0482508
v -0.0172057 0.0407515 0.0749984
vn -0.430369 0.899418 0.0763515
v 0.0838467 -0.0693631 0.107226
vn 0.161673 0.0814563 0.983477
v 0.0892468 -0.090097 0.10544
vn 0.0876931 -0.166583 0.98212
v 0.102342 -0.0809262 0.103395
vn 0.326353 0.0209242 0.945016
v 0.107179 -0.0969248 0.0997581
vn 0.381888 -0.19641 0.903097
v 0.100728 -0.106966 0.0986014
vn 0.239438 -0.417485 0.876571
v 0.117904 -0.080113 0.0907647
vn 0.916737 0.0837212 0.39062
v -0.042344 0.0122029 0.0792597
vn -0.960404 0.274265 0.0490123
v 0.115086 -0.0600996 0.0210031
vn 0.869311 0.489671 -0.0672344
v 0.120055 -0.0694773 0.0318886
vn 0.935539 0.352069 -0.0285437
v 0.114456 -0.0582276 0.075611
vn 0.859466 0.510193 0.031959
v 0.118654 -0.0675103 0.0777497
vn 0.952762 0.2916 0.0849317
v 0.0584471 -0.0450851 0.108438
vn 0.0834386 0.0815903 0.993167
v 0.036063 -0.00558715 0.105973
vn 0.184929 0.185388 0.965107
v 0.0629631 -0.0132531 0.0999475
vn 0.367784 0.335322 0.867349
v 0.0918091 -0.0328749 0.0890832
vn 0.710421 0.656685 0.253113
v 0.105367 -0.0651765 0.0996742
vn 0.542001 0.226867 0.809176
v 0.0986021 -0.0470585 0.0963289
vn 0.551982 0.450288 0.701823
v 0.0895571 -0.0577279 0.104621
vn 0.292964 0.229326 0.928214
v 0.112883 -0.0858523 0.0972115
vn 0.701498 0.00770609 0.71263
v -0.0359259 0.0197862 0.0912695
vn -0.798389 0.474429 0.3708
v -0.0332657 0.0285413 0.0776261
vn -0.759386 0.647151 0.0672945
v 0.111116 -0.104019 0.0936546
vn 0.694708 -0.460355 0.552678
v 0.113102 -0.0619757 0.0904014
vn 0.799703 0.335385 0.497988
v 0.0306456 0.0141291 0.102308
vn 0.319073 0.362678 0.87559
v -0.00222743 0.00771018 0.108285
vn 0.021834 0.0736353 0.997046
v -0.020025 0.00218913 0.106426
vn -0.2353 -0.0638962 0.96982
v 0.0649986 -0.0641349 0.108599
vn 0.0023459 -0.056797 0.998383
v 0.0179874 -0.0255787 0.108954
vn -0.0298243 -0.0226569 0.999298
v 0.00747578 0.0231289 0.104634
vn 0.133915 0.302538 0.943683
v -0.0129873 0.0200593 0.105923
vn -0.140509 0.260255 0.955261
v 0.0446261 -0.00383746 0.0689018
vn 0.995258 -0.05896 -0.0773595
v 0.10818 -0.0513198 0.0868224
vn 0.770461 0.592639 0.234879
v 0.104987 -0.0471649 0.0755747
vn 0.653311 0.756762 -0.0222903
v -0.0245984 0.0371793 0.0461575
vn -0.294317 0.438948 -0.848942
v 0.0597672 -0.0210971 0.0726657
vn 0.210669 0.27887 -0.936937
v 0.0943632 -0.0408928 0.0693688
vn 0.405678 0.900984 -0.153796
v 0.106723 -0.0525465 0.00566559
vn 0.684772 0.716929 -0.130768
v 0.093939 -0.0550113 -0.0248068
vn 0.39051 0.777694 -0.49264
v 0.086032 -0.0590057 -0.0329457
vn 0.17261 0.604537 -0.777651
v 0.0803875 -0.0495047 -0.0225368
vn 0.0849614 0.90751 -0.411347
v 0.0709575 -0.0660753 -0.03748
vn -0.169697 0.351965 -0.920502
v 0.0693513 -0.0540981 -0.0282471
vn -0.215391 0.757172 -0.616683
v 0.064288 -0.04376 0.00319427
vn -0.318553 0.936605 -0.145928
v 0.0647518 -0.0479196 -0.0137701
vn -0.313666 0.889037 -0.333507
v 0.0521505 -0.0603995 -0.0220206
vn -0.623938 0.669052 -0.403819
v 0.0361758 -0.0797494 -0.00778145
vn -0.950952 0.204881 -0.231765
v 0.0419274 -0.0657843 -0.00910661
vn -0.82774 0.51218 -0.229169
v 0.101229 -0.0662864 -0.0295499
vn 0.534256 0.44864 -0.716444
v 0.10636 -0.0772044 -0.0301587
vn 0.695965 0.20212 -0.689043
v 0.101099 -0.09525 -0.0371494
vn 0.469909 0.048032 -0.881407
v 0.0950767 -0.123564 0.0761086
vn 0.31744 -0.94357 0.0943792
v 0.105153 -0.11767 0.0756225
vn 0.585322 -0.807841 0.0692103
v 0.0360324 -0.0716563 0.00887679
vn -0.960077 0.272557 -0.062969
v 0.0693245 -0.0928225 -0.0428802
vn -0.172399 0.086244 -0.981244
v 0.0611431 -0.0937134 -0.0405737
vn -0.378985 0.101829 -0.919783
v 0.0586952 -0.129138 -0.0401979
vn -0.133991 -0.952005 -0.275195
v 0.0739778 -0.129138 -0.0442982
vn -0.0671223 -0.547719 -0.833966
v 0.0504721 -0.0960916 -0.0344434
vn -0.613139 0.0580611 -0.787839
v 0.0436113 -0.129138 -0.0283749
vn -0.763894 -0.0739104 -0.641095
v 0.0612286 -0.0606183 -0.0310941
vn -0.418716 0.547312 -0.724657
v 0.0860614 -0.129138 -0.0438114
vn 0.233645 -0.412539 -0.880467
v 0.0505804 -0.0532355 -0.0024144
vn -0.622759 0.758008 -0.193897
v 0.0339251 -0.0995525 -0.00530905
vn -0.994026 0.0591477 -0.0917254
v 0.0361237 -0.109469 0.0183254
vn -0.922297 -0.222528 0.315989
v 0.0332956 -0.0934217 0.0210024
vn -0.991088 -0.124313 0.0478664
v 0.032964 -0.0799032 0.0557505
vn -0.994776 0.0928581 -0.0424109
v 0.0497787 -0.0680208 -0.0273832
vn -0.647082 0.412438 -0.641234
v 0.0444475 -0.0545545 0.0241664
vn -0.787578 0.610757 -0.0818369
v 0.0938163 -0.0804462 -0.0391582
vn 0.356225 0.141967 -0.923552
v 0.0439365 -0.0529549 0.0590985
vn -0.827838 0.560737 -0.0160721
v 0.100519 -0.0452865 0.0234288
vn 0.536386 0.842087 -0.0563936
v 0.11096 -0.0532282 0.0525206
vn 0.727844 0.685155 -0.0283805
v 0.0358655 -0.0661678 0.0610302
vn -0.905852 0.419268 -0.0603786
v 0.0982748 -0.12289 0.0418976
vn 0.47599 -0.862507 0.171801
v 0.0430912 -0.0768301 -0.0232187
vn -0.802878 0.24622 -0.54292
v 0.122067 -0.0787849 0.0311892
vn 0.995099 0.0988003 0.00403489
v 0.0569952 -0.0442579 0.02732
vn -0.460749 0.883528 -0.0841953
v -0.0352049 -0.0246109 0.0874419
vn -0.840681 -0.474928 0.260192
v -0.0327701 -0.0303238 0.0722457
vn -0.772731 -0.634696 0.00691695
v -0.0411105 -0.0169176 0.0734533
vn -0.934634 -0.352089 0.0499216
v 0.0453714 -0.0963671 0.0999774
vn -0.271557 -0.419009 0.866423
v 0.0589958 -0.111758 0.0953591
vn -0.231485 -0.56437 0.792402
v 0.0450866 -0.11009 0.0890284
vn -0.476292 -0.698435 0.534167
v 0.0275811 -0.0913333 0.0936177
vn -0.569236 -0.592997 0.569495
v 0.0330859 -0.100469 0.0860166
vn -0.727597 -0.685264 -0.0318759
v 0.0325441 -0.0944031 0.0769758
vn -0.83554 -0.474062 -0.277737
v 0.0469938 -0.114709 0.0788203
vn -0.717733 -0.695753 0.0280712
v 0.0226783 -0.085081 0.0811266
vn -0.563187 -0.513443 -0.647454
v 0.0319818 -0.0690989 0.0687233
vn -0.824657 0.045354 -0.563813
v 0.0577273 -0.120802 0.0799882
vn -0.422604 -0.894697 0.144645
v 0.0430445 -0.0973161 -0.0275131
vn -0.78351 0.0532375 -0.619095
v 0.0375429 -0.0947741 -0.0179672
vn -0.912117 0.0477141 -0.407143
v 0.0794204 -0.105907 0.101281
vn -0.049424 -0.377283 0.924778
v 0.0639644 -0.088315 0.105648
vn -0.0774906 -0.216279 0.973252
v 0.0469083 -0.129144 0.0319637
vn -0.261937 -0.944685 0.197381
v 0.0427462 -0.112334 0.0338362
vn -0.783668 -0.589607 0.195519
v 0.0566335 -0.122975 0.0420448
vn -0.525205 -0.829459 0.190153
v 0.066804 -0.126646 0.0440255
vn -0.153402 -0.98406 0.0899683
v 0.0687213 -0.125481 0.0731668
vn -0.228134 -0.966394 0.118483
v 0.0335394 -0.0919248 0.069061
vn -0.987737 -0.154358 -0.0234519
v 0.10297 -0.129148 0.0364148
vn 0.0903421 -0.990755 0.10121
v 0.0639885 -0.120758 0.0867776
vn -0.256163 -0.859857 0.441618
v -0.0182985 -0.0445319 0.0913672
vn -0.680025 -0.611462 0.404573
v 0.0890408 -0.11404 0.0968082
vn 0.104007 -0.655926 0.747625
v 0.0741786 -0.118767 0.0926933
vn -0.0807075 -0.678615 0.730047
v 0.0376083 -0.102659 0.0435153
vn -0.890139 -0.453177 0.0477803
v 0.082124 -0.12641 0.074012
vn 0.0259625 -0.996488 0.0796045
v 0.0129672 -0.0699159 0.098743
vn -0.438876 -0.430755 0.788567
v -0.014677 -0.0405483 0.0983236
vn -0.483712 -0.387541 0.784751
v -0.0422702 0.00415398 0.0874953
vn -0.933659 0.100234 0.343852
v -0.0441046 -0.00408721 0.0737702
vn -0.996609 -0.0608961 0.0553339
v -0.0408084 -0.00790776 0.08938
vn -0.875445 -0.174961 0.450538
v -0.029091 -0.0341929 0.0844079
vn -0.7163 -0.677841 -0.165671
v -0.0213296 -0.0397448 0.075998
vn -0.477428 -0.876452 -0.0624064
v -0.00769543 -0.0350839 0.103534
vn -0.307839 -0.242033 0.920139
v 0.0325278 -0.0754994 0.104079
vn -0.219102 -0.244988 0.944445
v 0.0425622 -0.0643069 0.107777
vn -0.0960086 -0.122589 0.987803
v 0.0333186 -0.129139 0.00185257
vn -0.927008 -0.374146 0.0259034
v -0.000540589 -0.0243848 0.107247
vn -0.15099 -0.120269 0.981192
v -0.0307545 -0.024009 0.0954355
vn -0.668858 -0.376436 0.641035
v 0.0147375 -0.0432216 0.0691596
vn 0.185067 -0.702817 -0.686876
v -0.0271438 0.0129399 0.103048
vn -0.430993 0.158272 0.888367
v -0.0308455 -0.00857893 0.100724
vn -0.513273 -0.163643 0.842479
v -0.0336312 0.0137174 0.0982808
vn -0.722598 0.141689 0.676592
v 0.0358774 -0.129506 -0.0148347
vn -0.708903 0.681373 -0.182173
v 0.0408169 -0.129362 -0.024575
vn -0.642407 0.598404 -0.478774
v 0.0606156 -0.129431 -0.0406683
vn -0.216987 0.787697 -0.576585
v 0.0746164 -0.129506 -0.0443105
vn -0.0598648 0.667528 -0.742174
v 0.0424259 -0.162232 0.0274061
vn -0.604064 -0.653584 0.455997
v 0.0511367 -0.161922 0.0364401
vn -0.364238 -0.760624 0.537385
v 0.0354143 -0.162081 0.0149985
vn -0.720767 -0.662008 0.205525
v 0.0782898 -0.162555 0.0010399
vn -0.000564687 -1 0.000628673
v 0.0502623 -0.162306 -0.03501
vn -0.446169 -0.749966 -0.488349
v 0.0476696 -0.129349 -0.0324694
vn -0.386508 0.817432 -0.427102
v 0.0529227 -0.146526 -0.0376011
vn -0.496387 0.092217 -0.863189
v 0.0338355 -0.129585 0.00439718
vn -0.700566 0.710898 0.0618976
v 0.0385011 -0.162232 -0.0214117
vn -0.606063 -0.727445 -0.321732
v 0.0333535 -0.162001 -0.00444546
vn -0.742009 -0.667161 -0.0657209
v 0.0673262 -0.161944 -0.0439677
vn -0.173357 -0.732033 -0.658843
v 0.077743 -0.16224 -0.0449024
vn 0.0701674 -0.673911 -0.735473
v 0.083024 -0.129102 -0.00580627
vn 0.000727562 0.999992 -0.00389771
v 0.0476694 -0.129349 0.0324691
vn -0.460452 0.747173 0.479288
v 0.0595422 -0.129356 0.0402745
vn -0.322935 0.707058 0.629111
v 0.0697477 -0.129158 0.0437365
vn -0.0738843 -0.906526 0.415634
v 0.0389372 -0.129357 0.0211736
vn -0.599809 0.740604 0.302877
v 0.0650032 -0.161924 0.0432823
vn -0.331368 -0.0218296 0.943249
v 0.0594441 -0.144484 -0.0410029
vn -0.401958 -0.411771 -0.817847
v 0.0858093 -0.129152 0.0435472
vn 0.178504 -0.0286001 0.983523
v 0.102888 -0.129392 0.0359425
vn 0.229851 0.906953 0.352994
v 0.12165 -0.129572 -0.00439612
vn 0.73124 0.680883 0.0410532
v 0.0818803 -0.148355 0.0386625
vn 0.115179 0.937604 0.328075
v 0.103655 -0.146584 0.0369088
vn 0.606028 0.0284245 0.794935
v 0.107822 -0.12935 -0.0324693
vn 0.549923 0.553514 -0.625465
v 0.118727 -0.129642 -0.0178269
vn 0.707328 0.629618 -0.321354
v 0.11503 -0.129363 0.0240333
vn 0.717869 0.590146 0.369314
v 0.11699 -0.162233 -0.0214126
vn 0.519878 -0.779232 -0.350035
v 0.104355 -0.161922 -0.0364402
vn 0.40391 -0.802464 -0.439213
v 0.122129 -0.162074 0.00576126
vn 0.731276 -0.670476 0.125293
v 0.103168 -0.162197 0.0363438
vn 0.360257 -0.845445 0.394256
v 0.121896 -0.161923 -0.00876868
vn 0.980164 -0.038565 -0.194399
v 0.118891 -0.162239 0.017972
vn 0.518194 -0.79392 0.318066
v 0.0956605 -0.16224 -0.0410138
vn 0.311107 -0.600073 -0.73697
v 0.0942986 -0.14715 0.0418097
vn 0.411454 0.086437 0.907323
v 0.0889369 -0.129357 -0.0427956
vn 0.231895 0.605023 -0.76169
v 0.0995518 -0.144003 0.0392965
vn 0.44684 -0.381816 0.809043
v 0.0603702 -0.148379 -0.0414983
vn -0.487225 0.0488382 -0.87191
v 0.0814868 -0.127489 0.0457336
vn 0.153654 -0.983195 0.0985831
v 0.0443697 0.00198021 0.0461562
vn 0.704016 0.0606668 -0.707588
v -0.0333185 0.0295716 0.0461563
vn -0.289832 0.231912 -0.928555
v 0.0105578 -0.0426946 0.0461558
vn 0.0212437 -0.113489 -0.993312
v 0.0354256 -0.129138 -0.0136909
vn -0.910252 -0.283031 -0.302217
v -0.0109354 0.0431067 0.0461573
vn -0.0931228 0.415774 -0.904688
v 0.0057853 0.043829 0.0461577
vn 0.0579886 0.44218 -0.89505
v 0.0349273 -0.12914 0.0124244
vn -0.367613 -0.915087 0.165762
v 0.0293854 -0.0335144 0.0461566
vn 0.561414 -0.817624 -0.127692
v 0.0373253 -0.0241194 0.0461561
vn 0.781409 -0.492523 -0.383172
v -0.0113792 -0.0428 0.0461563
vn -0.263986 -0.945912 -0.188578
v -0.0300159 -0.0325692 0.0461564
vn -0.558399 -0.704973 -0.437268
v 0.0329945 0.0299801 0.0461578
vn 0.396641 0.369544 -0.840306
v 0.0410836 0.0169744 0.0461572
vn 0.585912 0.264959 -0.765835
v 0.0736145 -0.147685 -0.0411291
vn -0.221737 0.963023 0.153032
v 0.0736134 -0.145886 -0.037999
vn -0.160051 -0.680323 -0.715223
v 0.0818797 -0.145046 0.0401577
vn 0.217136 -0.926388 0.307666
v 0.0433721 -0.0103087 0.0461572
vn 0.793091 -0.200828 -0.575044
v -0.0397956 -0.0200085 0.0461564
vn -0.657944 -0.342745 -0.670549
v -0.0439828 -0.00340417 0.0461566
vn -0.700064 -0.020401 -0.713789
v -0.0412103 0.0164143 0.0461564
vn -0.554721 0.220902 -0.802177
v 0.0220064 0.0386214 0.0461563
vn 0.229104 0.438442 -0.869069
f 4//4 5//5 6//6
f 6//6 5//5 7//7
f 6//6 7//7 8//8
f 9//9 10//10 11//11
f 12//12 13//13 11//11
f 15//15 14//14 16//16
f 16//16 17//17 18//18
f 19//19 16//16 20//20
f 22//22 23//23 14//14
f 21//21 14//14 15//15
f 26//26 7//7 5//5
f 8//8 27//27 28//28
f 6//6 9//9 11//11
f 11//11 4//4 6//6
f 11//11 29//29 4//4
f 23//23 29//29 11//11
f 22//22 29//29 23//23
f 27//27 8//8 7//7
f 30//30 28//28 27//27
f 35//35 36//36 37//37
f 8//8 9//9 6//6
f 39//39 40//40 41//41
f 42//42 39//39 41//41
f 42//42 43//43 39//39
f 45//45 46//46 47//47
f 46//46 43//43 48//48
f 51//51 52//52 53//53
f 41//41 40//40 44//44
f 50//50 42//42 41//41
f 59//59 43//43 58//58
f 44//44 40//40 24//24
f 46//46 58//58 43//43
f 45//45 58//58 46//46
f 62//62 58//58 45//45
f 48//48 43//43 63//63
f 62//62 59//59 58//58
f 59//59 39//39 43//43
f 40//40 25//25 24//24
f 64//64 38//38 27//27
f 65//65 66//66 67//67
f 48//48 63//63 70//70
f 42//42 72//72 73//73
f 73//73 72//72 74//74
f 73//73 74//74 75//75
f 80//80 81//81 82//82
f 68//68 83//83 67//67
f 67//67 82//82 65//65
f 80//80 82//82 67//67
f 84//84 38//38 85//85
f 3//3 86//86 60//60
f 83//83 86//86 3//3
f 70//70 87//87 83//83
f 78//78 10//10 88//88
f 91//91 76//76 92//92
f 28//28 30//30 94//94
f 95//95 14//14 21//21
f 22//22 14//14 95//95
f 96//96 74//74 97//97
f 98//98 85//85 64//64
f 26//26 64//64 27//27
f 26//26 27//27 7//7
f 13//13 17//17 99//99
f 64//64 85//85 38//38
f 76//76 77//77 89//89
f 79//79 96//96 97//97
f 79//79 97//97 12//12
f 79//79 81//81 96//96
f 96//96 81//81 87//87
f 87//87 81//81 80//80
f 38//38 30//30 27//27
f 12//12 11//11 79//79
f 57//57 101//101 49//49
f 55//55 56//56 52//52
f 102//102 103//103 104//104
f 105//105 106//106 103//103
f 103//103 106//106 104//104
f 107//107 55//55 51//51
f 106//106 108//108 104//104
f 109//109 108//108 106//106
f 112//112 103//103 102//102
f 102//102 57//57 112//112
f 3//3 48//48 70//70
f 31//31 115//115 116//116
f 110//110 117//117 111//111
f 119//119 118//118 120//120
f 118//118 121//121 120//120
f 122//122 120//120 123//123
f 118//118 33//33 34//34
f 105//105 33//33 118//118
f 124//124 105//105 61//61
f 127//127 117//117 110//110
f 108//108 109//109 126//126
f 111//111 126//126 109//109
f 131//131 124//124 61//61
f 3//3 60//60 47//47
f 87//87 75//75 74//74
f 132//132 134//134 20//20
f 135//135 136//136 101//101
f 87//87 70//70 75//75
f 70//70 63//63 75//75
f 74//74 72//72 136//136
f 132//132 137//137 134//134
f 139//139 109//109 131//131
f 127//127 130//130 117//117
f 129//129 130//130 127//127
f 109//109 106//106 124//124
f 124//124 106//106 105//105
f 131//131 109//109 124//124
f 47//47 60//60 45//45
f 3//3 47//47 48//48
f 17//17 13//13 100//100
f 44//44 113//113 50//50
f 50//50 113//113 112//112
f 50//50 112//112 57//57
f 57//57 102//102 53//53
f 42//42 49//49 72//72
f 50//50 49//49 42//42
f 43//43 140//140 63//63
f 73//73 140//140 42//42
f 75//75 140//140 73//73
f 75//75 63//63 140//140
f 97//97 136//136 135//135
f 72//72 101//101 136//136
f 107//107 126//126 141//141
f 57//57 49//49 50//50
f 141//141 55//55 107//107
f 53//53 135//135 101//101
f 52//52 135//135 53//53
f 52//52 100//100 135//135
f 56//56 100//100 52//52
f 54//54 56//56 55//55
f 20//20 18//18 54//54
f 141//141 126//126 132//132
f 52//52 51//51 55//55
f 41//41 44//44 50//50
f 101//101 57//57 53//53
f 54//54 17//17 56//56
f 18//18 17//17 54//54
f 114//114 24//24 25//25
f 125//125 121//121 34//34
f 31//31 60//60 86//86
f 34//34 133//133 125//125
f 105//105 103//103 33//33
f 133//133 114//114 125//125
f 142//142 144//144 143//143
f 33//33 133//133 34//34
f 119//119 122//122 61//61
f 125//125 114//114 25//25
f 111//111 139//139 110//110
f 111//111 109//109 139//139
f 51//51 53//53 104//104
f 104//104 53//53 102//102
f 105//105 119//119 61//61
f 118//118 119//119 105//105
f 100//100 13//13 12//12
f 145//145 147//147 146//146
f 148//148 147//147 145//145
f 149//149 150//150 151//151
f 148//148 149//149 147//147
f 152//152 150//150 149//149
f 147//147 151//151 154//154
f 37//37 150//150 152//152
f 37//37 153//153 150//150
f 19//19 153//153 37//37
f 19//19 20//20 153//153
f 76//76 91//91 65//65
f 155//155 122//122 123//123
f 139//139 155//155 156//156
f 145//145 157//157 158//158
f 128//128 159//159 160//160
f 161//161 162//162 163//163
f 145//145 146//146 157//157
f 60//60 116//116 45//45
f 151//151 147//147 149//149
f 77//77 65//65 82//82
f 76//76 65//65 77//77
f 23//23 11//11 13//13
f 10//10 81//81 79//79
f 78//78 82//82 81//81
f 77//77 82//82 78//78
f 166//166 154//154 163//163
f 167//167 149//149 148//148
f 168//168 169//169 32//32
f 78//78 81//81 10//10
f 154//154 166//166 147//147
f 150//150 164//164 170//170
f 32//32 163//163 171//171
f 166//166 163//163 32//32
f 100//100 97//97 135//135
f 99//99 17//17 16//16
f 69//69 168//168 31//31
f 45//45 165//165 62//62
f 13//13 14//14 23//23
f 99//99 14//14 13//13
f 172//172 173//173 167//167
f 18//18 20//20 16//16
f 61//61 122//122 139//139
f 130//130 164//164 153//153
f 122//122 119//119 120//120
f 174//174 71//71 175//175
f 174//174 175//175 176//176
f 142//142 143//143 177//177
f 177//177 178//178 35//35
f 118//118 34//34 121//121
f 99//99 16//16 14//14
f 149//149 177//177 152//152
f 79//79 11//11 10//10
f 137//137 153//153 20//20
f 86//86 69//69 31//31
f 172//172 148//148 145//145
f 115//115 32//32 171//171
f 31//31 32//32 115//115
f 68//68 69//69 86//86
f 169//169 166//166 32//32
f 172//172 179//179 173//173
f 170//170 128//128 160//160
f 110//110 156//156 127//127
f 139//139 156//156 110//110
f 61//61 139//139 131//131
f 163//163 154//154 161//161
f 150//150 153//153 164//164
f 66//66 157//157 69//69
f 172//172 145//145 180//180
f 180//180 145//145 158//158
f 180//180 158//158 181//181
f 178//178 36//36 35//35
f 173//173 187//187 184//184
f 10//10 9//9 88//88
f 173//173 184//184 167//167
f 88//88 9//9 93//93
f 177//177 143//143 178//178
f 19//19 185//185 15//15
f 187//187 188//188 176//176
f 186//186 188//188 187//187
f 90//90 186//186 187//187
f 187//187 176//176 184//184
f 37//37 36//36 185//185
f 186//186 30//30 188//188
f 177//177 35//35 152//152
f 184//184 142//142 167//167
f 183//183 92//92 89//89
f 93//93 94//94 89//89
f 30//30 38//38 84//84
f 188//188 174//174 176//176
f 188//188 84//84 174//174
f 30//30 84//84 188//188
f 93//93 28//28 94//94
f 78//78 88//88 77//77
f 84//84 85//85 71//71
f 71//71 174//174 84//84
f 183//183 90//90 179//179
f 179//179 90//90 187//187
f 149//149 167//167 177//177
f 89//89 94//94 90//90
f 89//89 92//92 76//76
f 186//186 94//94 30//30
f 179//179 187//187 173//173
f 88//88 93//93 77//77
f 77//77 93//93 89//89
f 89//89 90//90 183//183
f 94//94 186//186 90//90
f 184//184 176//176 142//142
f 42//42 140//140 43//43
f 113//113 24//24 114//114
f 113//113 114//114 133//133
f 113//113 133//133 112//112
f 112//112 133//133 33//33
f 112//112 33//33 103//103
f 183//183 181//181 92//92
f 51//51 104//104 108//108
f 51//51 108//108 107//107
f 158//158 157//157 66//66
f 146//146 166//166 169//169
f 157//157 168//168 69//69
f 146//146 147//147 166//166
f 92//92 181//181 91//91
f 126//126 111//111 132//132
f 167//167 148//148 172//172
f 179//179 172//172 180//180
f 179//179 180//180 183//183
f 183//183 180//180 181//181
f 107//107 108//108 126//126
f 132//132 111//111 117//117
f 169//169 157//157 146//146
f 169//169 168//168 157//157
f 32//32 31//31 168//168
f 44//44 24//24 113//113
f 176//176 175//175 144//144
f 91//91 158//158 66//66
f 19//19 15//15 16//16
f 181//181 158//158 91//91
f 69//69 68//68 66//66
f 142//142 177//177 167//167
f 80//80 67//67 83//83
f 9//9 8//8 93//93
f 48//48 47//47 46//46
f 101//101 72//72 49//49
f 80//80 83//83 87//87
f 37//37 185//185 19//19
f 96//96 87//87 74//74
f 68//68 67//67 66//66
f 12//12 97//97 100//100
f 93//93 8//8 28//28
f 91//91 66//66 65//65
f 170//170 164//164 129//129
f 196//196 201//201 197//197
f 196//196 202//202 201//201
f 196//196 203//203 204//204
f 196//196 193//193 195//195
f 196//196 195//195 202//202
f 206//206 207//207 205//205
f 198//198 205//205 191//191
f 205//205 192//192 191//191
f 198//198 190//190 205//205
f 2//2 208//208 210//210
f 192//192 204//204 203//203
f 209//209 193//193 206//206
f 195//195 200//200 202//202
f 192//192 203//203 191//191
f 202//202 200//200 189//189
f 196//196 197//197 203//203
f 209//209 195//195 193//193
f 191//191 203//203 211//211
f 196//196 194//194 193//193
f 196//196 2//2 194//194
f 210//210 194//194 2//2
f 190//190 189//189 205//205
f 212//212 213//213 205//205
f 207//207 208//208 205//205
f 214//214 218//218 205//205
f 213//213 219//219 205//205
f 200//200 209//209 205//205
f 189//189 200//200 205//205
f 200//200 195//195 209//209
f 209//209 206//206 205//205
f 222//222 214//214 219//219
f 222//222 219//219 225//225
f 218//218 214//214 224//224
f 218//218 220//220 217//217
f 208//208 2//2 212//212
f 213//213 216//216 219//219
f 212//212 1//1 227//227
f 226//226 217//217 221//221
f 223//223 216//216 227//227
f 227//227 1//1 223//223
f 227//227 229//229 213//213
f 213//213 229//229 216//216
f 217//217 228//228 205//205
f 212//212 227//227 213//213
f 217//217 226//226 228//228
f 220//220 221//221 217//217
f 204//204 228//228 226//226
f 204//204 192//192 228//228
f 223//223 219//219 216//216
f 225//225 219//219 223//223
f 224//224 214//214 222//222
f 218//218 224//224 220//220
f 212//212 2//2 1//1
f 190//190 201//201 189//189
f 189//189 201//201 202//202
f 201//201 190//190 197//197
f 197//197 190//190 198//198
f 198//198 199//199 197//197
f 197//197 230//230 203//203
f 197//197 199//199 230//230
f 194//194 207//207 206//206
f 210//210 207//207 194//194
f 207//207 210//210 208//208
f 227//227 216//216 215//215
f 206//206 193//193 194//194
f 205//205 228//228 192//192
f 220//220 224//224 222//222
f 203//203 230//230 211//211
f 196//196 220//220 222//222
f 196//196 225//225 223//223
f 196//196 223//223 2//2
f 196//196 221//221 220//220
f 196//196 226//226 221//221
f 196//196 204//204 226//226
f 223//223 1//1 2//2
f 196//196 222//222 225//225
f 191//191 211//211 199//199
f 191//191 199//199 198//198
f 62//62 165//165 59//59
f 31//31 116//116 60//60
f 231//231 171//171 162//162
f 231//231 115//115 171//171
f 138//138 115//115 231//231
f 45//45 116//116 138//138
f 233//233 98//98 234//234
f 25//25 165//165 205//205
f 56//56 17//17 100//100
f 70//70 83//83 3//3
f 83//83 68//68 86//86
f 97//97 74//74 136//136
f 182//182 235//235 120//120
f 234//234 236//236 237//237
f 120//120 121//121 205//205
f 134//134 137//137 20//20
f 171//171 163//163 162//162
f 122//122 155//155 139//139
f 235//235 127//127 156//156
f 235//235 156//156 123//123
f 182//182 127//127 235//235
f 138//138 116//116 115//115
f 128//128 170//170 129//129
f 130//130 153//153 137//137
f 132//132 20//20 141//141
f 141//141 54//54 55//55
f 141//141 20//20 54//54
f 151//151 161//161 154//154
f 129//129 164//164 130//130
f 128//128 129//129 182//182
f 182//182 129//129 127//127
f 156//156 155//155 123//123
f 231//231 212//212 138//138
f 165//165 45//45 138//138
f 208//208 212//212 231//231
f 162//162 208//208 231//231
f 159//159 120//120 208//208
f 161//161 151//151 160//160
f 138//138 212//212 165//165
f 128//128 182//182 238//238
f 159//159 128//128 238//238
f 161//161 160//160 159//159
f 117//117 137//137 132//132
f 161//161 159//159 208//208
f 130//130 137//137 117//117
f 151//151 170//170 160//160
f 150//150 170//170 151//151
f 161//161 208//208 162//162
f 165//165 39//39 59//59
f 176//176 144//144 142//142
f 15//15 239//239 240//240
f 241//241 242//242 234//234
f 241//241 178//178 242//242
f 241//241 36//36 178//178
f 143//143 242//242 178//178
f 243//243 29//29 244//244
f 36//36 234//234 185//185
f 243//243 244//244 234//234
f 247//247 216//216 229//229
f 15//15 185//185 239//239
f 248//248 95//95 21//21
f 242//242 249//249 234//234
f 249//249 250//250 234//234
f 251//251 233//233 234//234
f 249//249 144//144 250//250
f 234//234 98//98 236//236
f 244//244 22//22 232//232
f 21//21 15//15 240//240
f 234//234 244//244 232//232
f 234//234 248//248 240//240
f 232//232 248//248 234//234
f 248//248 21//21 240//240
f 234//234 240//240 239//239
f 232//232 95//95 248//248
f 247//247 227//227 215//215
f 245//245 211//211 230//230
f 218//218 217//217 205//205
f 219//219 214//214 205//205
f 247//247 229//229 227//227
f 211//211 245//245 246//246
f 245//245 199//199 246//246
f 230//230 199//199 245//245
f 215//215 216//216 247//247
f 211//211 246//246 199//199
f 165//165 212//212 205//205
f 251//251 234//234 250//250
f 159//159 238//238 120//120
f 238//238 182//182 120//120
f 235//235 123//123 120//120
f 205//205 125//125 25//25
f 165//165 25//25 40//40
f 121//121 125//125 205//205
f 165//165 40//40 39//39
f 208//208 120//120 205//205
f 251//251 71//71 85//85
f 242//242 143//143 249//249
f 237//237 5//5 252//252
f 98//98 64//64 236//236
f 236//236 64//64 26//26
f 26//26 237//237 236//236
f 234//234 36//36 241//241
f 237//237 26//26 5//5
f 234//234 252//252 243//243
f 239//239 185//185 234//234
f 252//252 5//5 4//4
f 252//252 4//4 243//243
f 4//4 29//29 243//243
f 233//233 85//85 98//98
f 252//252 234//234 237//237
f 244//244 29//29 22//22
f 251//251 85//85 233//233
f 71//71 251//251 250//250
f 232//232 22//22 95//95
f 249//249 143//143 144//144
f 250//250 144//144 175//175
f 71//71 250//250 175//175
f 35//35 37//37 152//152
